<svg xmlns="http://www.w3.org/2000/svg" viewBox="0 0 526.1 176.2"><defs><style>.cls-1{fill:#fff;}</style></defs><title>left-arrow_2</title><g id="Layer_2" data-name="Layer 2"><g id="Layer_1-2" data-name="Layer 1"><path class="cls-1" d="M202.52,96h-172a9.73,9.73,0,0,0-1.42.2A11.26,11.26,0,0,0,30,97.42q30.9,32.2,61.81,64.37c3.72,3.87,4.53,8.13.52,12s-8.2,2.84-11.93-1Q40.32,131,.27,89.19A2.2,2.2,0,0,1,.29,87q40-41.82,80.1-83.55c3.71-3.87,7.9-4.93,11.93-1.1s3.22,8.13-.54,12Q60.89,46.56,30.06,78.73A13,13,0,0,0,29.11,80a11.29,11.29,0,0,0,1.54.21c114.2,0,371.76,0,486,0,5.47,0,9.49,2,9.48,7.93s-4,7.95-9.48,7.94C459.7,96,259.43,96,202.52,96Z"/></g></g></svg>