<svg xmlns="http://www.w3.org/2000/svg" viewBox="0 0 526.1 176.2"><defs><style>.cls-1{fill:#fff;}</style></defs><title>right-arrow_1</title><g id="Layer_2" data-name="Layer 2"><g id="Layer_1-2" data-name="Layer 1"><path class="cls-1" d="M323.58,80.15h172a9.73,9.73,0,0,0,1.42-.2,11.26,11.26,0,0,0-.86-1.16q-30.9-32.2-61.81-64.37c-3.72-3.87-4.53-8.13-.52-12s8.2-2.84,11.93,1Q485.78,45.23,525.83,87a2.2,2.2,0,0,1,0,2.15q-40,41.82-80.1,83.55c-3.71,3.87-7.9,4.93-11.93,1.1s-3.22-8.13.54-12Q465.21,129.64,496,97.46a13,13,0,0,0,.95-1.25,11.29,11.29,0,0,0-1.54-.21c-114.2,0-371.76,0-486,0C4,96,0,94,0,88.1s4-7.95,9.48-7.94C66.4,80.18,266.67,80.15,323.58,80.15Z"/></g></g></svg>