<svg xmlns="http://www.w3.org/2000/svg" xmlns:xlink="http://www.w3.org/1999/xlink" viewBox="0 0 500.44 150.19"><defs><style>.cls-1{fill:url(#linear-gradient);}.cls-2{fill:url(#linear-gradient-2);}.cls-3{fill:url(#linear-gradient-3);}.cls-4{fill:url(#linear-gradient-4);}.cls-5{fill:url(#linear-gradient-5);}.cls-6{fill:url(#linear-gradient-6);}.cls-7{fill:url(#linear-gradient-7);}.cls-8{fill:url(#linear-gradient-8);}.cls-9{fill:url(#linear-gradient-9);}.cls-10{fill:url(#linear-gradient-10);}.cls-11{fill:url(#linear-gradient-11);}.cls-12{fill:url(#linear-gradient-12);}.cls-13{fill:url(#linear-gradient-13);}.cls-14{fill:url(#linear-gradient-14);}.cls-15{fill:url(#linear-gradient-15);}.cls-16{fill:#404041;}</style><linearGradient id="linear-gradient" x1="171.85" y1="115.26" x2="96.03" y2="154.07" gradientUnits="userSpaceOnUse"><stop offset="0" stop-color="#68d7e3"/><stop offset="1" stop-color="#007aff"/></linearGradient><linearGradient id="linear-gradient-2" x1="179.56" y1="130.37" x2="103.99" y2="169.05" xlink:href="#linear-gradient"/><linearGradient id="linear-gradient-3" x1="23.35" y1="151.39" x2="44.32" y2="51.89" xlink:href="#linear-gradient"/><linearGradient id="linear-gradient-4" x1="8.86" y1="148.43" x2="29.6" y2="50.02" xlink:href="#linear-gradient"/><linearGradient id="linear-gradient-5" x1="164.13" y1="100.15" x2="88.24" y2="139" xlink:href="#linear-gradient"/><linearGradient id="linear-gradient-6" x1="38.08" y1="154.45" x2="59.12" y2="54.6" xlink:href="#linear-gradient"/><linearGradient id="linear-gradient-7" x1="154.45" y1="81.24" x2="78.55" y2="120.08" xlink:href="#linear-gradient"/><linearGradient id="linear-gradient-8" x1="58.14" y1="158.62" x2="79.18" y2="58.77" xlink:href="#linear-gradient"/><linearGradient id="linear-gradient-9" x1="80.49" y1="163.27" x2="101.53" y2="63.43" xlink:href="#linear-gradient"/><linearGradient id="linear-gradient-10" x1="53.93" y1="17.26" x2="140.53" y2="44.32" xlink:href="#linear-gradient"/><linearGradient id="linear-gradient-11" x1="59.61" y1="-0.91" x2="146.21" y2="26.15" xlink:href="#linear-gradient"/><linearGradient id="linear-gradient-12" x1="48.18" y1="35.67" x2="134.78" y2="62.73" xlink:href="#linear-gradient"/><linearGradient id="linear-gradient-13" x1="41.77" y1="56.2" x2="128.36" y2="83.26" xlink:href="#linear-gradient"/><linearGradient id="linear-gradient-14" x1="34.98" y1="77.92" x2="121.57" y2="104.99" xlink:href="#linear-gradient"/><linearGradient id="linear-gradient-15" x1="143.82" y1="60.5" x2="67.93" y2="99.34" xlink:href="#linear-gradient"/></defs><title>Asset 2</title><g id="Layer_2" data-name="Layer 2"><g id="Layer_1-2" data-name="Layer 1"><path class="cls-1" d="M143.73,147l15.32-26.54a6.33,6.33,0,0,0,0-6.33l-4.84-8.38-25.64,44.42h9.68A6.33,6.33,0,0,0,143.73,147Z"/><path class="cls-2" d="M167.06,147l3.66-6.34a6.33,6.33,0,0,0,0-6.33L165.88,126l-14,24.21h9.68A6.33,6.33,0,0,0,167.06,147Z"/><path class="cls-3" d="M42.8,150.19,17.16,105.77l-4.84,8.38a6.33,6.33,0,0,0,0,6.33L27.65,147a6.33,6.33,0,0,0,5.48,3.16Z"/><path class="cls-4" d="M5.69,125.65.85,134a6.33,6.33,0,0,0,0,6.33L4.7,147a6.33,6.33,0,0,0,5.48,3.16h9.68Z"/><path class="cls-5" d="M112.8,150.19h2.12A6.33,6.33,0,0,0,120.4,147l27-46.75a6.33,6.33,0,0,0,0-6.33l-4.84-8.38L109,143.64Z"/><path class="cls-6" d="M66.13,150.19,32.6,92.11H25L24,94a6.33,6.33,0,0,0,0,6.33L51,147a6.33,6.33,0,0,0,5.48,3.16Z"/><path class="cls-7" d="M104,135l31.7-54.91a6.33,6.33,0,0,0,0-6.33l-4.84-8.38L97.35,123.44Z"/><path class="cls-8" d="M42.6,92.11,74.31,147a6.33,6.33,0,0,0,5.48,3.16h9.68L55.94,92.11Z"/><path class="cls-9" d="M79.27,92.11H65.94L97.64,147a6.33,6.33,0,0,0,5.48,3.16h9.68Z"/><path class="cls-10" d="M101,20H70.36a6.33,6.33,0,0,0-5.48,3.16L60,31.5h51.29l-4.84-8.38A6.33,6.33,0,0,0,101,20Z"/><path class="cls-11" d="M89.49,0H81.88A6.33,6.33,0,0,0,76.4,3.16l-4.84,8.38H99.81L95,3.16A6.33,6.33,0,0,0,89.49,0Z"/><path class="cls-12" d="M119.21,45.16l-1.06-1.83a6.33,6.33,0,0,0-5.48-3.16h-54a6.33,6.33,0,0,0-5.48,3.16L48.38,51.7h67.06Z"/><path class="cls-13" d="M110.43,60.36H47a6.33,6.33,0,0,0-5.48,3.16l-4.84,8.38h67.06Z"/><path class="cls-14" d="M29.89,83.73,25,92.11H92.11l6.67-11.55H35.37A6.33,6.33,0,0,0,29.89,83.73Z"/><path class="cls-15" d="M119.21,45.16,85.69,103.23l6.67,11.55,31.7-54.91a6.33,6.33,0,0,0,0-6.33Z"/><path class="cls-16" d="M248.48,36.4c21.78,0,38,14.38,38,39s-16.47,39-38.25,39h-31v-78Zm-18.86,67.32h18.76c15.11,0,25.74-9.69,25.74-28.35S263.7,47,248.48,47H229.62Z"/><path class="cls-16" d="M314,42.34a7.34,7.34,0,0,1-7.4,7.29,7.29,7.29,0,1,1,0-14.59A7.34,7.34,0,0,1,314,42.34Zm-13.23,72V60.89h11.67v53.46Z"/><path class="cls-16" d="M369.28,68.39v-7.5h11V117c0,15.32-10.42,24.91-26.26,24.91s-24.49-8-26.57-19.59l11.67-.42c1,6.25,6.77,10.11,14.59,10.11,8.86,0,14.91-4.9,14.91-14.17V108c-2.92,4.17-9,7.4-17,7.4-14.9,0-25.74-10.63-25.74-27.72S336.77,60,351.67,60C360,60,366.36,63.5,369.28,68.39ZM337.81,87.67c0,11.36,6.67,17.72,15.74,17.72,8.75,0,15.11-5.73,15.11-16.26V86.32c0-10.63-6.36-16.26-15.11-16.26C344.48,70.06,337.81,76.31,337.81,87.67Z"/><path class="cls-16" d="M410.22,42.34a7.34,7.34,0,0,1-7.4,7.29,7.29,7.29,0,0,1,0-14.59A7.34,7.34,0,0,1,410.22,42.34Zm-13.23,72V60.89h11.67v53.46Z"/><path class="cls-16" d="M438.52,47.34V69.12h30.22V80.07H438.52v34.29h-12.4v-78h49V47.34Z"/><path class="cls-16" d="M500.44,42.34a7.34,7.34,0,0,1-7.4,7.29A7.29,7.29,0,1,1,493,35,7.34,7.34,0,0,1,500.44,42.34Zm-13.23,72V60.89h11.67v53.46Z"/></g></g></svg>