<svg xmlns="http://www.w3.org/2000/svg" viewBox="0 0 494.96 148.32"><defs><style>.cls-1{fill:#fff;}</style></defs><title>Asset 1</title><g id="Layer_2" data-name="Layer 2"><g id="Layer_1-2" data-name="Layer 1"><path class="cls-1" d="M141.94,145.19,157.07,119a6.25,6.25,0,0,0,0-6.25l-4.78-8.28L127,148.32h9.56A6.25,6.25,0,0,0,141.94,145.19Z"/><path class="cls-1" d="M165,145.19l3.61-6.26a6.25,6.25,0,0,0,0-6.25l-4.78-8.28L150,148.32h9.56A6.25,6.25,0,0,0,165,145.19Z"/><path class="cls-1" d="M42.27,148.32,16.95,104.46l-4.78,8.28a6.25,6.25,0,0,0,0,6.25L27.3,145.19a6.25,6.25,0,0,0,5.41,3.12Z"/><path class="cls-1" d="M5.62,124.08.84,132.36a6.25,6.25,0,0,0,0,6.25l3.8,6.59a6.25,6.25,0,0,0,5.41,3.12h9.56Z"/><path class="cls-1" d="M111.39,148.32h2.09a6.25,6.25,0,0,0,5.41-3.12L145.55,99a6.25,6.25,0,0,0,0-6.25l-4.78-8.28-33.11,57.35Z"/><path class="cls-1" d="M65.31,148.32,32.2,91H24.73l-1,1.81a6.25,6.25,0,0,0,0,6.25l26.65,46.16a6.25,6.25,0,0,0,5.41,3.12Z"/><path class="cls-1" d="M102.72,133.3,134,79.08a6.25,6.25,0,0,0,0-6.25l-4.78-8.28L96.14,121.9Z"/><path class="cls-1" d="M42.07,91l31.31,54.23a6.25,6.25,0,0,0,5.41,3.12h9.56L55.24,91Z"/><path class="cls-1" d="M78.28,91H65.11l31.31,54.23a6.25,6.25,0,0,0,5.41,3.12h9.56Z"/><path class="cls-1" d="M99.75,19.7H69.49a6.25,6.25,0,0,0-5.41,3.12L59.3,31.11h50.65l-4.78-8.28A6.25,6.25,0,0,0,99.75,19.7Z"/><path class="cls-1" d="M88.37,0H80.86a6.25,6.25,0,0,0-5.41,3.12L70.67,11.4H98.57L93.79,3.12A6.25,6.25,0,0,0,88.37,0Z"/><path class="cls-1" d="M117.73,44.59l-1-1.81a6.25,6.25,0,0,0-5.41-3.12H58a6.25,6.25,0,0,0-5.41,3.12l-4.78,8.28H114Z"/><path class="cls-1" d="M109.06,59.61H46.44A6.25,6.25,0,0,0,41,62.74L36.25,71h66.22Z"/><path class="cls-1" d="M29.51,82.69,24.73,91H91l6.58-11.4H34.93A6.25,6.25,0,0,0,29.51,82.69Z"/><path class="cls-1" d="M117.73,44.59,84.62,101.95l6.58,11.4,31.31-54.23a6.25,6.25,0,0,0,0-6.25Z"/><path class="cls-1" d="M245.6,36.53c21.56,0,37.65,14.23,37.65,38.57S267,113.68,245.4,113.68H214.77V36.53Zm-18.67,66.63H245.5c15,0,25.47-9.59,25.47-28.05S260.66,47.05,245.6,47.05H226.94Z"/><path class="cls-1" d="M310.44,42.41a7.26,7.26,0,0,1-7.32,7.22,7.22,7.22,0,1,1,0-14.44A7.26,7.26,0,0,1,310.44,42.41Zm-13.1,71.27V60.77h11.55v52.91Z"/><path class="cls-1" d="M365.16,68.2V60.77h10.93v55.49c0,15.16-10.32,24.65-26,24.65s-24.24-7.94-26.3-19.39l11.55-.41c1,6.19,6.7,10,14.44,10,8.77,0,14.75-4.85,14.75-14v-9.7c-2.89,4.13-8.87,7.32-16.81,7.32-14.75,0-25.47-10.52-25.47-27.43S333,59.84,347.73,59.84C356,59.84,362.27,63.35,365.16,68.2ZM334,87.28c0,11.24,6.6,17.53,15.57,17.53,8.66,0,15-5.67,15-16.09V85.94c0-10.52-6.29-16.09-15-16.09C340.61,69.85,334,76,334,87.28Z"/><path class="cls-1" d="M405.68,42.41a7.26,7.26,0,0,1-7.32,7.22,7.22,7.22,0,0,1,0-14.44A7.26,7.26,0,0,1,405.68,42.41Zm-13.1,71.27V60.77h11.55v52.91Z"/><path class="cls-1" d="M433.68,47.37V68.92h29.91V79.75H433.68v33.93H421.41V36.53h48.48V47.37Z"/><path class="cls-1" d="M495,42.41a7.26,7.26,0,0,1-7.32,7.22,7.22,7.22,0,1,1,0-14.44A7.26,7.26,0,0,1,495,42.41Zm-13.1,71.27V60.77h11.55v52.91Z"/></g></g></svg>