<svg xmlns="http://www.w3.org/2000/svg" xmlns:xlink="http://www.w3.org/1999/xlink" viewBox="0 0 789.29 178.95"><defs><style>.cls-1,.cls-16,.cls-2,.cls-22,.cls-3{fill:none;}.cls-2{clip-rule:evenodd;}.cls-15,.cls-23,.cls-3{fill-rule:evenodd;}.cls-4{clip-path:url(#clip-path);}.cls-11,.cls-5{font-size:11.46px;font-family:Arial-BoldMT, Arial;font-weight:700;}.cls-11,.cls-23,.cls-5{fill:#010101;}.cls-14,.cls-5{letter-spacing:0.03em;}.cls-6{letter-spacing:-0.03em;}.cls-7{letter-spacing:-0.01em;}.cls-8{letter-spacing:-0.03em;}.cls-9{letter-spacing:0em;}.cls-10{clip-path:url(#clip-path-2);}.cls-12{letter-spacing:0em;}.cls-13{letter-spacing:-0.05em;}.cls-15{fill:#fff;}.cls-16,.cls-22{stroke:#010101;stroke-miterlimit:8;}.cls-16{stroke-width:0.88px;}.cls-17{letter-spacing:0.06em;}.cls-18{letter-spacing:0.06em;}.cls-19{letter-spacing:-0.09em;}.cls-20{letter-spacing:0.03em;}.cls-21{letter-spacing:-0.03em;}.cls-22{stroke-width:0.88px;}.cls-24{letter-spacing:-0.02em;}.cls-25{letter-spacing:0.06em;}.cls-26{letter-spacing:0.06em;}.cls-27{letter-spacing:0em;}.cls-28{letter-spacing:0.03em;}.cls-29{letter-spacing:0em;}.cls-30{letter-spacing:0.07em;}.cls-31{clip-path:url(#clip-path-35);}.cls-32{letter-spacing:-0.01em;}.cls-33{clip-path:url(#clip-path-36);}.cls-34{letter-spacing:0.03em;}.cls-35{letter-spacing:0.03em;}.cls-36{letter-spacing:0em;}.cls-37{letter-spacing:-0.09em;}.cls-38{letter-spacing:0em;}</style><clipPath id="clip-path" transform="translate(-8.83)"><rect class="cls-1" x="0.63" width="754.86" height="113.76"/></clipPath><clipPath id="clip-path-2" transform="translate(-8.83)"><polygon class="cls-2" points="0.63 113.76 755.49 113.76 755.49 0 0.63 0 0.63 113.76 0.63 113.76"/></clipPath><clipPath id="clip-path-35" transform="translate(-8.83)"><rect class="cls-1" y="112.81" width="798.12" height="66.14"/></clipPath><clipPath id="clip-path-36" transform="translate(-8.83)"><polygon class="cls-2" points="0 178.95 798.12 178.95 798.12 112.81 0 112.81 0 178.95 0 178.95"/></clipPath></defs><title>SVG</title><g id="Layer_2" data-name="Layer 2"><g id="Layer_1-2" data-name="Layer 1"><g class="cls-4"><text class="cls-5" transform="translate(0.63 20.32)">P<tspan class="cls-6" x="7.93" y="0">R</tspan><tspan class="cls-7" x="15.88" y="0">O</tspan><tspan class="cls-8" x="24.71" y="0">DUC</tspan><tspan class="cls-9" x="48.55" y="0">T</tspan></text></g><g class="cls-10"><g class="cls-4"><text class="cls-11" transform="translate(0.63 34.43)"><tspan class="cls-12">T</tspan><tspan class="cls-13" x="7.05" y="0">Y</tspan><tspan class="cls-14" x="14.11" y="0">P</tspan><tspan x="22.04" y="0">E</tspan></text></g><g class="cls-10"><g class="cls-4"><text class="cls-11" transform="translate(0.63 94.31)"><tspan class="cls-14">S</tspan><tspan class="cls-7" x="7.93" y="0">O</tspan><tspan class="cls-6" x="16.76" y="0">URC</tspan><tspan x="40.6" y="0">E</tspan></text></g><g class="cls-10"><polygon class="cls-15" points="93.78 67.47 172.35 67.47 172.35 113.32 93.78 113.32 93.78 67.47 93.78 67.47"/><polygon class="cls-16" points="93.78 67.47 172.35 67.47 172.35 113.32 93.78 113.32 93.78 67.47 93.78 67.47"/><g class="cls-10"><g class="cls-4"><text class="cls-11" transform="translate(109.67 94.31)"><tspan class="cls-17">W</tspan><tspan class="cls-18" x="11.46" y="0">e</tspan><tspan class="cls-12" x="18.52" y="0">b</tspan><tspan class="cls-19" x="25.56" y="0">s</tspan><tspan class="cls-20" x="30.86" y="0">i</tspan><tspan class="cls-21" x="34.38" y="0">t</tspan><tspan x="37.91" y="0">e</tspan></text></g><g class="cls-10"><polyline class="cls-22" points="176.73 46.3 176.73 56.93 132.62 56.93 132.62 61.67"/><polygon class="cls-23" points="136.15 60.5 132.62 67.55 129.09 60.5 136.15 60.5 136.15 60.5"/><g class="cls-10"><polyline class="cls-22" points="437.21 46.3 437.21 56.93 529.51 56.93 529.51 61.67"/><polygon class="cls-23" points="525.97 60.5 529.51 67.55 533.04 60.5 525.97 60.5 525.97 60.5"/><g class="cls-10"><polyline class="cls-22" points="437.47 46.3 437.47 56.93 353.34 56.93 353.34 61.67"/><polygon class="cls-23" points="356.87 60.5 353.34 67.55 349.81 60.5 356.87 60.5 356.87 60.5"/><g class="cls-10"><polygon class="cls-15" points="137.92 0.44 216.5 0.44 216.5 46.3 137.92 46.3 137.92 0.44 137.92 0.44"/><polygon class="cls-16" points="137.92 0.44 216.5 0.44 216.5 46.3 137.92 46.3 137.92 0.44 137.92 0.44"/><g class="cls-10"><g class="cls-4"><text class="cls-11" transform="translate(148.48 27.37)"><tspan class="cls-20">I</tspan><tspan class="cls-12" x="3.52" y="0">nd</tspan><tspan class="cls-20" x="17.62" y="0">i</tspan><tspan class="cls-24" x="21.13" y="0">v</tspan><tspan class="cls-20" x="27.31" y="0">i</tspan><tspan class="cls-12" x="30.83" y="0">du</tspan><tspan class="cls-25" x="44.93" y="0">a</tspan><tspan x="51.98" y="0">l</tspan></text></g><g class="cls-10"><polygon class="cls-15" points="182.06 67.47 260.64 67.47 260.64 113.32 182.06 113.32 182.06 67.47 182.06 67.47"/><polygon class="cls-16" points="182.06 67.47 260.64 67.47 260.64 113.32 182.06 113.32 182.06 67.47 182.06 67.47"/><g class="cls-10"><g class="cls-4"><text class="cls-11" transform="translate(211.13 94.31)"><tspan class="cls-6">A</tspan><tspan class="cls-14" x="7.95" y="0">P</tspan><tspan x="15.88" y="0">I</tspan></text></g><g class="cls-10"><polyline class="cls-22" points="176.76 46.3 176.76 56.93 220.87 56.93 220.87 61.67"/><polygon class="cls-23" points="217.34 60.5 220.87 67.55 224.4 60.5 217.34 60.5 217.34 60.5"/><g class="cls-10"><polygon class="cls-15" points="314.49 67.47 392.19 67.47 392.19 113.32 314.49 113.32 314.49 67.47 314.49 67.47"/><polygon class="cls-16" points="314.49 67.47 392.19 67.47 392.19 113.32 314.49 113.32 314.49 67.47 314.49 67.47"/><g class="cls-10"><g class="cls-4"><text class="cls-11" transform="translate(330.2 94.31)"><tspan class="cls-17">W</tspan><tspan class="cls-18" x="11.46" y="0">e</tspan><tspan class="cls-12" x="18.52" y="0">b</tspan><tspan class="cls-19" x="25.56" y="0">s</tspan><tspan class="cls-20" x="30.86" y="0">i</tspan><tspan class="cls-21" x="34.38" y="0">t</tspan><tspan x="37.91" y="0">e</tspan></text></g><g class="cls-10"><polygon class="cls-15" points="398.37 0.44 476.94 0.44 476.94 46.3 398.37 46.3 398.37 0.44 398.37 0.44"/><polygon class="cls-16" points="398.37 0.44 476.94 0.44 476.94 46.3 398.37 46.3 398.37 0.44 398.37 0.44"/><g class="cls-10"><g class="cls-4"><text class="cls-11" transform="translate(409.03 27.37)"><tspan class="cls-7">G</tspan><tspan class="cls-12" x="8.83" y="0">u</tspan><tspan class="cls-26" x="15.87" y="0">a</tspan><tspan class="cls-27" x="22.93" y="0">r</tspan><tspan class="cls-26" x="27.34" y="0">a</tspan><tspan class="cls-12" x="34.4" y="0">n</tspan><tspan class="cls-21" x="41.44" y="0">t</tspan><tspan class="cls-12" x="44.98" y="0">o</tspan><tspan x="52.02" y="0">r</tspan></text></g><g class="cls-10"><polygon class="cls-15" points="490.19 67.47 568.76 67.47 568.76 113.32 490.19 113.32 490.19 67.47 490.19 67.47"/><polygon class="cls-16" points="490.19 67.47 568.76 67.47 568.76 113.32 490.19 113.32 490.19 67.47 490.19 67.47"/><g class="cls-10"><g class="cls-4"><text class="cls-11" transform="translate(519.86 94.31)"><tspan class="cls-6">A</tspan><tspan class="cls-14" x="7.95" y="0">P</tspan><tspan x="15.88" y="0">I</tspan></text></g><g class="cls-10"><polygon class="cls-15" points="666.76 67.47 745.34 67.47 745.34 113.32 666.76 113.32 666.76 67.47 666.76 67.47"/><polygon class="cls-16" points="666.76 67.47 745.34 67.47 745.34 113.32 666.76 113.32 666.76 67.47 666.76 67.47"/><g class="cls-10"><g class="cls-4"><text class="cls-11" transform="translate(683.05 94.31)"><tspan class="cls-17">W</tspan><tspan class="cls-26" x="11.46" y="0">e</tspan><tspan class="cls-12" x="18.52" y="0">b</tspan><tspan class="cls-19" x="25.56" y="0">s</tspan><tspan class="cls-28" x="30.86" y="0">i</tspan><tspan class="cls-21" x="34.38" y="0">t</tspan><tspan x="37.91" y="0">e</tspan></text></g><g class="cls-10"><polygon class="cls-15" points="666.76 0.44 745.34 0.44 745.34 46.3 666.76 46.3 666.76 0.44 666.76 0.44"/><polygon class="cls-16" points="666.76 0.44 745.34 0.44 745.34 46.3 666.76 46.3 666.76 0.44 666.76 0.44"/><g class="cls-10"><g class="cls-4"><text class="cls-11" transform="translate(672.82 27.37)"><tspan class="cls-6">C</tspan><tspan class="cls-12" x="7.95" y="0">obo</tspan><tspan class="cls-29" x="29.09" y="0">rr</tspan><tspan class="cls-12" x="37.92" y="0">o</tspan><tspan class="cls-30" x="44.97" y="0">w</tspan><tspan class="cls-26" x="54.67" y="0">e</tspan><tspan x="61.72" y="0">r</tspan></text></g><g class="cls-10"><line class="cls-16" x1="706.49" y1="46.3" x2="706.49" y2="61.68"/><polygon class="cls-23" points="710.02 60.5 706.49 67.55 702.96 60.5 710.02 60.5 710.02 60.5"/></g></g></g></g></g></g></g></g></g></g></g></g></g></g></g></g></g></g></g></g></g></g></g><g class="cls-31"><text class="cls-11" transform="translate(0 153.02)"><tspan class="cls-6">B</tspan><tspan class="cls-32" x="7.95" y="0">O</tspan><tspan class="cls-6" x="16.77" y="0">RR</tspan><tspan class="cls-32" x="32.67" y="0">O</tspan><tspan class="cls-17" x="41.49" y="0">W</tspan><tspan class="cls-13" x="52.96" y="0">E</tspan><tspan class="cls-6" x="60.02" y="0">R</tspan><tspan x="67.96" y="0"> </tspan></text></g><g class="cls-33"><g class="cls-31"><text class="cls-11" transform="translate(0 167.13)"><tspan class="cls-12">T</tspan><tspan class="cls-13" x="7.05" y="0">Y</tspan><tspan class="cls-14" x="14.11" y="0">P</tspan><tspan x="22.04" y="0">E</tspan></text></g><g class="cls-33"><polygon class="cls-15" points="93.15 133.54 171.72 133.54 171.72 178.51 93.15 178.51 93.15 133.54 93.15 133.54"/><polygon class="cls-16" points="93.15 133.54 171.72 133.54 171.72 178.51 93.15 178.51 93.15 133.54 93.15 133.54"/><g class="cls-33"><g class="cls-31"><text class="cls-11" transform="translate(109.93 160.07)"><tspan class="cls-14">P</tspan><tspan class="cls-29" x="7.93" y="0">r</tspan><tspan class="cls-20" x="12.35" y="0">i</tspan><tspan class="cls-34" x="15.87" y="0">m</tspan><tspan class="cls-18" x="26.44" y="0">a</tspan><tspan class="cls-29" x="33.49" y="0">r</tspan><tspan x="37.91" y="0">y</tspan></text></g><g class="cls-33"><polygon class="cls-15" points="181.43 133.54 260.01 133.54 260.01 178.51 181.43 178.51 181.43 133.54 181.43 133.54"/><polygon class="cls-16" points="181.43 133.54 260.01 133.54 260.01 178.51 181.43 178.51 181.43 133.54 181.43 133.54"/><g class="cls-33"><g class="cls-31"><text class="cls-11" transform="translate(198.14 160.07)"><tspan class="cls-14">P</tspan><tspan class="cls-29" x="7.93" y="0">r</tspan><tspan class="cls-20" x="12.35" y="0">i</tspan><tspan class="cls-34" x="15.87" y="0">m</tspan><tspan class="cls-18" x="26.44" y="0">a</tspan><tspan class="cls-29" x="33.49" y="0">r</tspan><tspan x="37.91" y="0">y</tspan></text></g><g class="cls-33"><polygon class="cls-15" points="269.72 133.54 347.42 133.54 347.42 178.51 269.72 178.51 269.72 133.54 269.72 133.54"/><polygon class="cls-16" points="269.72 133.54 347.42 133.54 347.42 178.51 269.72 178.51 269.72 133.54 269.72 133.54"/><g class="cls-33"><g class="cls-31"><text class="cls-11" transform="translate(286.35 160.07)"><tspan class="cls-14">P</tspan><tspan class="cls-29" x="7.93" y="0">r</tspan><tspan class="cls-20" x="12.35" y="0">i</tspan><tspan class="cls-34" x="15.87" y="0">m</tspan><tspan class="cls-18" x="26.44" y="0">a</tspan><tspan class="cls-29" x="33.49" y="0">r</tspan><tspan x="37.91" y="0">y</tspan></text></g><g class="cls-33"><polygon class="cls-15" points="445.41 133.54 523.99 133.54 523.99 178.51 445.41 178.51 445.41 133.54 445.41 133.54"/><polygon class="cls-16" points="445.41 133.54 523.99 133.54 523.99 178.51 445.41 178.51 445.41 133.54 445.41 133.54"/><g class="cls-33"><g class="cls-31"><text class="cls-11" transform="translate(462.77 160.07)"><tspan class="cls-14">P</tspan><tspan class="cls-29" x="7.93" y="0">r</tspan><tspan class="cls-35" x="12.35" y="0">i</tspan><tspan class="cls-34" x="15.87" y="0">m</tspan><tspan class="cls-25" x="26.44" y="0">a</tspan><tspan class="cls-29" x="33.49" y="0">r</tspan><tspan x="37.91" y="0">y</tspan></text></g><g class="cls-33"><polygon class="cls-15" points="621.99 133.54 700.56 133.54 700.56 178.51 621.99 178.51 621.99 133.54 621.99 133.54"/><polygon class="cls-16" points="621.99 133.54 700.56 133.54 700.56 178.51 621.99 178.51 621.99 133.54 621.99 133.54"/><g class="cls-33"><g class="cls-31"><text class="cls-11" transform="translate(639.2 160.07)"><tspan class="cls-14">P</tspan><tspan class="cls-29" x="7.93" y="0">r</tspan><tspan class="cls-35" x="12.35" y="0">i</tspan><tspan class="cls-34" x="15.87" y="0">m</tspan><tspan class="cls-25" x="26.44" y="0">a</tspan><tspan class="cls-29" x="33.49" y="0">r</tspan><tspan x="37.91" y="0">y</tspan></text></g><g class="cls-33"><polygon class="cls-15" points="358.01 133.54 435.7 133.54 435.7 178.51 358.01 178.51 358.01 133.54 358.01 133.54"/><polygon class="cls-16" points="358.01 133.54 435.7 133.54 435.7 178.51 358.01 178.51 358.01 133.54 358.01 133.54"/><g class="cls-33"><g class="cls-31"><text class="cls-11" transform="translate(371.91 160.07)"><tspan class="cls-6">C</tspan><tspan class="cls-36" x="7.95" y="0">o</tspan><tspan class="cls-37" x="15" y="0">s</tspan><tspan class="cls-35" x="20.29" y="0">i</tspan><tspan class="cls-38" x="23.81" y="0">gn</tspan><tspan class="cls-25" x="37.91" y="0">e</tspan><tspan x="44.96" y="0">r</tspan></text></g><g class="cls-33"><polygon class="cls-15" points="533.7 133.54 612.28 133.54 612.28 178.51 533.7 178.51 533.7 133.54 533.7 133.54"/><polygon class="cls-16" points="533.7 133.54 612.28 133.54 612.28 178.51 533.7 178.51 533.7 133.54 533.7 133.54"/><g class="cls-33"><g class="cls-31"><text class="cls-11" transform="translate(548.34 160.07)"><tspan class="cls-6">C</tspan><tspan class="cls-12" x="7.95" y="0">o</tspan><tspan class="cls-19" x="15" y="0">s</tspan><tspan class="cls-35" x="20.29" y="0">i</tspan><tspan class="cls-38" x="23.81" y="0">gn</tspan><tspan class="cls-25" x="37.91" y="0">e</tspan><tspan x="44.96" y="0">r</tspan></text></g><g class="cls-33"><polygon class="cls-15" points="710.28 133.54 788.85 133.54 788.85 178.51 710.28 178.51 710.28 133.54 710.28 133.54"/><polygon class="cls-16" points="710.28 133.54 788.85 133.54 788.85 178.51 710.28 178.51 710.28 133.54 710.28 133.54"/><g class="cls-33"><g class="cls-31"><text class="cls-11" transform="translate(724.76 160.07)"><tspan class="cls-6">C</tspan><tspan class="cls-12" x="7.95" y="0">o</tspan><tspan class="cls-19" x="15" y="0">s</tspan><tspan class="cls-35" x="20.29" y="0">i</tspan><tspan class="cls-38" x="23.81" y="0">gn</tspan><tspan class="cls-25" x="37.91" y="0">e</tspan><tspan x="44.96" y="0">r</tspan></text></g><g class="cls-33"><polyline class="cls-22" points="705.86 113.25 705.86 123.32 749.97 123.32 749.97 127.51"/><polygon class="cls-23" points="746.43 126.33 749.97 133.39 753.5 126.33 746.43 126.33 746.43 126.33"/><g class="cls-33"><polyline class="cls-22" points="705.82 113.25 705.82 123.32 661.72 123.32 661.72 127.51"/><polygon class="cls-23" points="665.25 126.33 661.72 133.39 658.19 126.33 665.25 126.33 665.25 126.33"/><g class="cls-33"><polyline class="cls-22" points="529.29 113.25 529.29 123.32 573.39 123.32 573.39 127.51"/><polygon class="cls-23" points="569.86 126.33 573.39 133.39 576.92 126.33 569.86 126.33 569.86 126.33"/><g class="cls-33"><polyline class="cls-22" points="529.25 113.25 529.25 123.32 485.14 123.32 485.14 127.51"/><polygon class="cls-23" points="488.68 126.33 485.14 133.39 481.61 126.33 488.68 126.33 488.68 126.33"/><g class="cls-33"><polyline class="cls-22" points="352.71 113.25 352.71 123.32 396.82 123.32 396.82 127.51"/><polygon class="cls-23" points="393.29 126.33 396.82 133.39 400.35 126.33 393.29 126.33 393.29 126.33"/><g class="cls-33"><polyline class="cls-22" points="352.67 113.25 352.67 123.32 308.57 123.32 308.57 127.51"/><polygon class="cls-23" points="312.1 126.33 308.57 133.39 305.04 126.33 312.1 126.33 312.1 126.33"/><g class="cls-33"><line class="cls-16" x1="131.99" y1="113.25" x2="131.99" y2="127.51"/><polygon class="cls-23" points="135.53 126.33 131.99 133.39 128.46 126.33 135.53 126.33 135.53 126.33"/><g class="cls-33"><line class="cls-16" x1="220.28" y1="113.25" x2="220.28" y2="127.51"/><polygon class="cls-23" points="223.81 126.33 220.28 133.39 216.75 126.33 223.81 126.33 223.81 126.33"/></g></g></g></g></g></g></g></g></g></g></g></g></g></g></g></g></g></g></g></g></g></g></g></g></g></g></g></svg>