<svg id="Layer_1" data-name="Layer 1" xmlns="http://www.w3.org/2000/svg" viewBox="0 0 150 150"><defs><style>.cls-1{fill:#414042;}</style></defs><title>Artboard 2 copy 8</title><path class="cls-1" d="M125.45,76.95a2,2,0,0,1-2.83,0L75,29.33,27.38,76.95a2,2,0,0,1-2.83-2.83l49-49a2,2,0,0,1,2.83,0l49,49A2,2,0,0,1,125.45,76.95Zm-13.2-3.34v51a2,2,0,0,1-2,2H39.75a2,2,0,0,1-2-2v-51a2,2,0,0,1,4,0v49H62.23V86.46a2,2,0,0,1,2-2H85.77a2,2,0,0,1,2,2v36.11h20.49v-49a2,2,0,0,1,4,0Zm-46,49H83.77V88.46H66.23ZM92.81,35.4a2,2,0,0,0,2-2v-6h7.72V45.12a2,2,0,0,0,4,0V25.43a2,2,0,0,0-2-2H92.81a2,2,0,0,0-2,2v8A2,2,0,0,0,92.81,35.4Z"/></svg>