<svg id="Layer_1" data-name="Layer 1" xmlns="http://www.w3.org/2000/svg" viewBox="0 0 70 70"><defs><style>.cls-1{fill:#414042;}</style></defs><title>Artboard 10 copy 8</title><path class="cls-1" d="M54.38,35.53a.75.75,0,0,1-1.06,0L35,17.21,16.68,35.53a.75.75,0,0,1-1.06-1.06L34.47,15.62a.75.75,0,0,1,1.06,0L54.38,34.47A.75.75,0,0,1,54.38,35.53ZM49.3,34.26V53.85a.75.75,0,0,1-.75.75H21.45a.75.75,0,0,1-.75-.75V34.26a.75.75,0,0,1,1.5,0V53.1h7.91V39.2a.75.75,0,0,1,.75-.75h8.28a.75.75,0,0,1,.75.75V53.1H47.8V34.26a.75.75,0,0,1,1.5,0ZM31.61,53.1h6.78V39.95H31.61Zm10.24-34a.75.75,0,0,0,.75-.75V17h3v5.82a.75.75,0,0,0,1.5,0V16.29a.75.75,0,0,0-.75-.75h-4.5a.75.75,0,0,0-.75.75v2.06A.75.75,0,0,0,41.85,19.1Z"/></svg>