<svg id="Layer_1" data-name="Layer 1" xmlns="http://www.w3.org/2000/svg" viewBox="0 0 60 60"><defs><style>.cls-1{fill:#007aff;}</style></defs><title>Artboard 5 copy</title><path class="cls-1" d="M45.33,12H14.66A2.63,2.63,0,0,0,12,14.59V45.4A2.63,2.63,0,0,0,14.66,48H45.33A2.64,2.64,0,0,0,48,45.4V14.59A2.63,2.63,0,0,0,45.33,12ZM22.68,42.68H17.33V25.5h5.34ZM20,23.15a3.1,3.1,0,1,1,3.09-3.1A3.1,3.1,0,0,1,20,23.15ZM42.67,42.68H37.34V34.32c0-2,0-4.56-2.78-4.56s-3.2,2.17-3.2,4.41v8.5H26V25.5h5.12v2.35h.07a5.61,5.61,0,0,1,5.05-2.77c5.4,0,6.4,3.56,6.4,8.18Z"/></svg>