<svg id="Layer_1" data-name="Layer 1" xmlns="http://www.w3.org/2000/svg" viewBox="0 0 70 70"><defs><style>.cls-1{fill:#414042;}</style></defs><title>Artboard 10 copy 9</title><path class="cls-1" d="M53,18.65v3.17a1.37,1.37,0,0,1-1.37,1.37H18.33A1.37,1.37,0,0,1,17,21.82V18.65a1.37,1.37,0,0,1,1.37-1.37H51.67A1.37,1.37,0,0,1,53,18.65ZM51.67,46.81H18.33A1.37,1.37,0,0,0,17,48.18v3.17a1.37,1.37,0,0,0,1.37,1.37H51.67A1.37,1.37,0,0,0,53,51.35V48.18A1.37,1.37,0,0,0,51.67,46.81Zm0-14.77H18.33A1.37,1.37,0,0,0,17,33.41v3.17A1.37,1.37,0,0,0,18.33,38H51.67A1.37,1.37,0,0,0,53,36.59V33.41A1.37,1.37,0,0,0,51.67,32Z"/></svg>