<?xml version="1.0" encoding="utf-8"?>
<!-- Generator: Adobe Illustrator 22.1.0, SVG Export Plug-In . SVG Version: 6.00 Build 0)  -->
<svg version="1.1" id="Layer_1" xmlns="http://www.w3.org/2000/svg" xmlns:xlink="http://www.w3.org/1999/xlink" x="0px" y="0px"
	 viewBox="0 0 60 120" style="enable-background:new 0 0 60 120;" xml:space="preserve">
<style type="text/css">
	.st0{fill:none;stroke:#404041;stroke-width:2;stroke-linecap:square;stroke-miterlimit:10;}
	.st1{fill:none;stroke:#FFFFFF;stroke-width:2;stroke-linecap:square;stroke-miterlimit:10;}
</style>
<g>
	<path class="st0" d="M30,45H11c-1.7,0-3-1.3-3-3V21h40v6"/>
	<g>
		<path class="st0" d="M44,31c5.5,0,10,4.5,10,10s-4.5,10-10,10s-10-4.5-10-10S38.5,31,44,31"/>
		<line class="st0" x1="44" y1="37" x2="44" y2="45"/>
		<line class="st0" x1="40" y1="41" x2="48" y2="41"/>
	</g>
	<line class="st0" x1="33" y1="27" x2="23" y2="27"/>
	<path class="st0" d="M29,9h18c1.7,0,3,1.3,3,3v9H6v-9c0-1.7,1.3-3,3-3H29"/>
</g>
<g>
	<path class="st1" d="M30,105H11c-1.7,0-3-1.3-3-3V81h40v6"/>
	<g>
		<path class="st1" d="M44,91c5.5,0,10,4.5,10,10s-4.5,10-10,10s-10-4.5-10-10S38.5,91,44,91"/>
		<line class="st1" x1="44" y1="97" x2="44" y2="105"/>
		<line class="st1" x1="40" y1="101" x2="48" y2="101"/>
	</g>
	<line class="st1" x1="33" y1="87" x2="23" y2="87"/>
	<path class="st1" d="M29,69h18c1.7,0,3,1.3,3,3v9H6v-9c0-1.7,1.3-3,3-3H29"/>
</g>
</svg>
