<?xml version="1.0" encoding="utf-8"?>
<!-- Generator: Adobe Illustrator 22.1.0, SVG Export Plug-In . SVG Version: 6.00 Build 0)  -->
<svg version="1.1" id="Layer_1" xmlns="http://www.w3.org/2000/svg" xmlns:xlink="http://www.w3.org/1999/xlink" x="0px" y="0px"
	 viewBox="0 0 60 120" style="enable-background:new 0 0 60 120;" xml:space="preserve">
<style type="text/css">
	.st0{fill:#404041;stroke:#404041;stroke-width:2;stroke-linecap:square;stroke-miterlimit:10;}
	.st1{fill:#FFFFFF;stroke:#FFFFFF;stroke-width:2;stroke-linecap:square;stroke-miterlimit:10;}
	.st2{fill:#007AFF;stroke:#007AFF;stroke-width:2;stroke-linecap:square;stroke-miterlimit:10;}
</style>
<g>
	<path class="st0" d="M29.5,9h16.2c1,0,1.8,0.8,1.8,1.8v38.4c0,1-0.8,1.8-1.8,1.8H14.3c-1,0-1.8-0.8-1.8-1.8V10.8
		c0-1,0.8-1.8,1.8-1.8H29.5"/>
	<polyline class="st1" points="30,12.5 43.8,12.5 43.8,23.6 16.2,23.6 16.2,12.5 30,12.5 	"/>
	<rect x="16.2" y="29.1" class="st1" width="3.7" height="3.7"/>
	<rect x="23.6" y="29.1" class="st1" width="3.7" height="3.7"/>
	<rect x="30.9" y="29.1" class="st1" width="3.7" height="3.7"/>
	<rect x="40.1" y="29.1" class="st1" width="3.7" height="3.7"/>
	<g>
		<rect x="16.2" y="36.5" class="st1" width="3.7" height="3.7"/>
		<rect x="23.6" y="36.5" class="st1" width="3.7" height="3.7"/>
		<rect x="30.9" y="36.5" class="st1" width="3.7" height="3.7"/>
		<rect x="16.2" y="43.8" class="st1" width="3.7" height="3.7"/>
		<rect x="23.6" y="43.8" class="st1" width="3.7" height="3.7"/>
		<rect x="30.9" y="43.8" class="st1" width="3.7" height="3.7"/>
		<rect x="40.1" y="36.5" class="st1" width="3.7" height="11.1"/>
	</g>
</g>
<g>
	<path class="st1" d="M30,68.8h15.7c1,0,1.8,0.8,1.8,1.8v38.7c0,1-0.8,1.8-1.8,1.8H14.3c-1,0-1.8-0.8-1.8-1.8V70.7
		c0-1,0.8-1.8,1.8-1.8L30,68.8"/>
	<g>
		<polyline class="st2" points="30,72.5 43.8,72.5 43.8,83.6 16.2,83.6 16.2,72.5 30,72.5 		"/>
		<rect x="16.2" y="89.1" class="st2" width="3.7" height="3.7"/>
		<rect x="23.6" y="89.1" class="st2" width="3.7" height="3.7"/>
		<rect x="30.9" y="89.1" class="st2" width="3.7" height="3.7"/>
		<rect x="40.1" y="89.1" class="st2" width="3.7" height="3.7"/>
		<g>
			<rect x="16.2" y="96.4" class="st2" width="3.7" height="3.7"/>
			<rect x="23.6" y="96.4" class="st2" width="3.7" height="3.7"/>
			<rect x="30.9" y="96.4" class="st2" width="3.7" height="3.7"/>
			<rect x="16.2" y="103.8" class="st2" width="3.7" height="3.7"/>
			<rect x="23.6" y="103.8" class="st2" width="3.7" height="3.7"/>
			<rect x="30.9" y="103.8" class="st2" width="3.7" height="3.7"/>
			<rect x="40.1" y="96.4" class="st2" width="3.7" height="11.1"/>
		</g>
	</g>
</g>
</svg>
