<?xml version="1.0" encoding="utf-8"?>
<!-- Generator: Adobe Illustrator 22.1.0, SVG Export Plug-In . SVG Version: 6.00 Build 0)  -->
<svg version="1.1" id="Layer_1" xmlns="http://www.w3.org/2000/svg" xmlns:xlink="http://www.w3.org/1999/xlink" x="0px" y="0px"
	 viewBox="0 0 200 100" style="enable-background:new 0 0 200 100;" xml:space="preserve">
<style type="text/css">
	.st0{fill:#E33D55;}
	.st1{fill:#404041;}
</style>
<g>
	<path class="st0" d="M38.5,52.3c-0.9-0.8-2.2-0.8-3,0.1l-9,9.6c-0.8,0.8-0.8,2.1,0,2.9l8.9,9.7c0.4,0.5,1,0.7,1.6,0.7
		c0.5,0,1.1-0.2,1.5-0.6c0.9-0.8,0.9-2.2,0.1-3.1L31,63.4l7.6-8.2C39.5,54.5,39.4,53.1,38.5,52.3z"/>
	<path class="st0" d="M64.5,52.4c-0.8-0.9-2.2-0.9-3-0.1c-0.9,0.8-0.9,2.2-0.1,3.1l7.6,8.2l-7.6,8.2c-0.8,0.9-0.8,2.2,0.1,3.1
		c0.4,0.4,0.9,0.6,1.5,0.6s1.2-0.2,1.6-0.7l8.9-9.7c0.8-0.8,0.8-2.1,0-2.9L64.5,52.4z"/>
	<path class="st0" d="M53,48.4c-1.2-0.2-2.3,0.5-2.5,1.7l-5.2,27.2c-0.2,1.2,0.5,2.3,1.7,2.5c0.1,0,0.3,0,0.4,0c1,0,1.9-0.7,2.1-1.8
		l5.2-27.2C54.9,49.8,54.2,48.6,53,48.4z"/>
	<path class="st0" d="M85.8,26.6L63.9,4.7c-1.4-1.4-3.3-2.2-5.2-2.2H19.4l0,0c-2,0-3.8,0.8-5.2,2.2S12,7.9,12,9.9v80.2
		c0,4.1,3.3,7.4,7.4,7.4h61.2c4.1,0,7.4-3.3,7.4-7.4V31.8C88,29.9,87.2,28,85.8,26.6z M81.6,28.4H65.4c-1.8,0-3.3-1.5-3.3-3.3V9
		L81.6,28.4z M80.6,93.2H19.4c-1.7,0-3.1-1.4-3.1-3.1V9.9c0-0.8,0.3-1.6,0.9-2.2c0.6-0.6,1.4-0.9,2.2-0.9l0,0h38.4v18.3
		c0,4.2,3.4,7.6,7.6,7.6h18.3v57.4C83.7,91.8,82.3,93.2,80.6,93.2z"/>
</g>
<g>
	<path class="st1" d="M138.5,52.3c-0.9-0.8-2.2-0.8-3,0.1l-9,9.6c-0.8,0.8-0.8,2.1,0,2.9l8.9,9.7c0.4,0.5,1,0.7,1.6,0.7
		c0.5,0,1.1-0.2,1.5-0.6c0.9-0.8,0.9-2.2,0.1-3.1l-7.6-8.2l7.6-8.2C139.5,54.5,139.4,53.1,138.5,52.3z"/>
	<path class="st1" d="M164.5,52.4c-0.8-0.9-2.2-0.9-3-0.1c-0.9,0.8-0.9,2.2-0.1,3.1l7.6,8.2l-7.6,8.2c-0.8,0.9-0.8,2.2,0.1,3.1
		c0.4,0.4,0.9,0.6,1.5,0.6s1.2-0.2,1.6-0.7l8.9-9.7c0.8-0.8,0.8-2.1,0-2.9L164.5,52.4z"/>
	<path class="st1" d="M153,48.4c-1.2-0.2-2.3,0.5-2.5,1.7l-5.2,27.2c-0.2,1.2,0.5,2.3,1.7,2.5c0.1,0,0.3,0,0.4,0
		c1,0,1.9-0.7,2.1-1.8l5.2-27.2C154.9,49.8,154.2,48.6,153,48.4z"/>
	<path class="st1" d="M185.8,26.6L163.9,4.7c-1.4-1.4-3.3-2.2-5.2-2.2h-39.3l0,0c-2,0-3.8,0.8-5.2,2.2c-1.4,1.4-2.2,3.2-2.2,5.2
		v80.2c0,4.1,3.3,7.4,7.4,7.4h61.2c4.1,0,7.4-3.3,7.4-7.4V31.8C188,29.9,187.2,28,185.8,26.6z M181.6,28.4h-16.2
		c-1.8,0-3.3-1.5-3.3-3.3V9L181.6,28.4z M180.6,93.2h-61.2c-1.7,0-3.1-1.4-3.1-3.1V9.9c0-0.8,0.3-1.6,0.9-2.2
		c0.6-0.6,1.4-0.9,2.2-0.9l0,0h38.4v18.3c0,4.2,3.4,7.6,7.6,7.6h18.3v57.4C183.7,91.8,182.3,93.2,180.6,93.2z"/>
</g>
</svg>
