<?xml version="1.0" encoding="utf-8"?>
<!-- Generator: Adobe Illustrator 22.1.0, SVG Export Plug-In . SVG Version: 6.00 Build 0)  -->
<svg version="1.1" id="Layer_1" xmlns="http://www.w3.org/2000/svg" xmlns:xlink="http://www.w3.org/1999/xlink" x="0px" y="0px"
	 viewBox="0 0 60 120" style="enable-background:new 0 0 60 120;" xml:space="preserve">
<style type="text/css">
	.st0{fill:none;stroke:#404041;stroke-width:2;stroke-miterlimit:10;}
	.st1{fill:none;stroke:#FFFFFF;stroke-width:2;stroke-miterlimit:10;}
</style>
<g>
	<g>
		<path class="st0" d="M30,10h21c1.1,0,2,0.9,2,2v26c0,1.1-0.9,2-2,2H27L17,50V40H9c-1.1,0-2-0.9-2-2V12c0-1.1,0.9-2,2-2H30"/>
		<g>
			<line class="st0" x1="13" y1="16" x2="47" y2="16"/>
			<line class="st0" x1="13" y1="22" x2="47" y2="22"/>
			<line class="st0" x1="13" y1="28" x2="47" y2="28"/>
			<line class="st0" x1="13" y1="34" x2="47" y2="34"/>
		</g>
	</g>
</g>
<g>
	<g>
		<path class="st1" d="M30,70h21c1.1,0,2,0.9,2,2v26c0,1.1-0.9,2-2,2H27l-10,10v-10H9c-1.1,0-2-0.9-2-2V72c0-1.1,0.9-2,2-2H30"/>
		<g>
			<line class="st1" x1="13" y1="76" x2="47" y2="76"/>
			<line class="st1" x1="13" y1="82" x2="47" y2="82"/>
			<line class="st1" x1="13" y1="88" x2="47" y2="88"/>
			<line class="st1" x1="13" y1="94" x2="47" y2="94"/>
		</g>
	</g>
</g>
</svg>
