<?xml version="1.0" encoding="utf-8"?>
<!-- Generator: Adobe Illustrator 22.1.0, SVG Export Plug-In . SVG Version: 6.00 Build 0)  -->
<svg version="1.1" id="Layer_1" xmlns="http://www.w3.org/2000/svg" xmlns:xlink="http://www.w3.org/1999/xlink" x="0px" y="0px"
	 viewBox="0 0 150 450" style="enable-background:new 0 0 150 450;" xml:space="preserve">
<style type="text/css">
	.st0{fill:#5C198E;}
	.st1{fill:#FFFFFF;}
	.st2{fill:#656464;}
</style>
<title>Artboard 2 copy 20</title>
<path class="st0" d="M133.3,19.6H16.8c-1.3,0-2.4,1.1-2.4,2.4v81.5c0,1.2,1.1,2.4,2.4,2.4h40V128c0,1.2,1.1,2.4,2.4,2.4h33.9
	c1.2,0,2.4-1.1,2.4-2.4v-22.2h37.6c1.2,0,2.4-1.1,2.4-2.4V22C135.7,20.6,134.6,19.6,133.3,19.6L133.3,19.6z M90.8,125.7H61.7v-19.9
	h29.2L90.8,125.7L90.8,125.7z M130.9,101H19.2V24.3h111.7V101z M30.3,75.7c0-1.2,1.1-2.4,2.4-2.4h33c1.2,0,2.4,1.1,2.4,2.4
	S66.9,78,65.7,78h-33C31.4,78,30.3,77,30.3,75.7L30.3,75.7z M30.3,88.1c0-1.3,1.1-2.4,2.4-2.4h22.5c1.2,0,2.4,1.1,2.4,2.4
	s-1.1,2.4-2.4,2.4H32.7C31.4,90.5,30.3,89.4,30.3,88.1L30.3,88.1z M119,75.7c0,1.2-1.1,2.4-2.4,2.4H83.7c-1.2,0-2.4-1.1-2.4-2.4
	s1.1-2.4,2.4-2.4h33C118,73.3,119.1,74.3,119,75.7C119.1,75.7,119.1,75.7,119,75.7L119,75.7z M109.2,88.1c0,1.2-1.1,2.4-2.4,2.4
	H83.7c-1.2,0-2.4-1.1-2.4-2.4c0-1.3,1.1-2.4,2.4-2.4h23C108.2,85.6,109.2,86.7,109.2,88.1L109.2,88.1L109.2,88.1z M30.5,61.6
	c-0.6-1.2-0.1-2.7,1.1-3.2l0,0l26.8-13.2c0.5-0.3,1-0.4,1.5-0.2l28.2,5.8l27.3-15c1.2-0.6,2.7-0.1,3.2,1c0.6,1.1,0.2,2.5-1,3.1
	l-28,15.5c-0.5,0.3-1.1,0.4-1.6,0.3l-28.3-5.9l-26,12.8C32.6,63.3,31.2,62.7,30.5,61.6L30.5,61.6z"/>
<path class="st1" d="M133.3,169.6H16.8c-1.3,0-2.4,1.1-2.4,2.4v81.5c0,1.3,1.1,2.4,2.4,2.4h40V278c0,1.3,1.1,2.4,2.4,2.4h33.9
	c1.2,0,2.4-1.1,2.4-2.4v-22.2h37.6c1.3,0,2.4-1.1,2.4-2.4V172C135.7,170.6,134.6,169.6,133.3,169.6L133.3,169.6z M90.8,275.7H61.6
	v-19.9h29.2C90.8,255.8,90.8,275.7,90.8,275.7z M130.9,251H19.2v-76.6h111.7V251z M30.3,225.7c0-1.3,1.1-2.4,2.4-2.4h32.9
	c1.3,0,2.4,1.1,2.4,2.4c0,1.2-1.1,2.4-2.4,2.4H32.8C31.4,228,30.3,227,30.3,225.7L30.3,225.7z M30.3,238.1c0-1.3,1.1-2.4,2.4-2.4
	h22.5c1.3,0,2.4,1.1,2.4,2.4c0,1.2-1.1,2.4-2.4,2.4H32.8C31.4,240.5,30.3,239.4,30.3,238.1L30.3,238.1z M119,225.7
	c0,1.3-1.1,2.4-2.4,2.4H83.7c-1.3,0-2.4-1.1-2.4-2.4c0-1.2,1.1-2.4,2.4-2.4h32.9C118,223.3,119.1,224.3,119,225.7
	C119.1,225.7,119.1,225.7,119,225.7L119,225.7z M109.2,238.1c0,1.2-1.1,2.4-2.4,2.4H83.7c-1.3,0-2.4-1.1-2.4-2.4
	c0-1.3,1.1-2.4,2.4-2.4h23C108.2,235.6,109.2,236.7,109.2,238.1L109.2,238.1L109.2,238.1z M30.5,211.6c-0.6-1.2-0.1-2.7,1.1-3.2l0,0
	l26.8-13.2c0.5-0.3,1-0.4,1.5-0.2l28.2,5.8l27.3-15c1.2-0.6,2.7-0.1,3.2,1c0.6,1.1,0.2,2.5-1,3.1l-28,15.5c-0.5,0.3-1.1,0.4-1.6,0.3
	l-28.3-5.9l-26,12.8C32.6,213.3,31.2,212.7,30.5,211.6L30.5,211.6z"/>
<path class="st2" d="M133.3,319.6H16.8c-1.3,0-2.4,1.1-2.4,2.4v81.5c0,1.3,1.1,2.4,2.4,2.4h40V428c0,1.3,1.1,2.4,2.4,2.4h33.9
	c1.2,0,2.4-1.1,2.4-2.4v-22.2h37.6c1.3,0,2.4-1.1,2.4-2.4V322C135.7,320.6,134.6,319.6,133.3,319.6L133.3,319.6z M90.8,425.7H61.6
	v-19.9h29.2C90.8,405.8,90.8,425.7,90.8,425.7z M130.9,401H19.2v-76.6h111.7V401z M30.3,375.7c0-1.3,1.1-2.4,2.4-2.4h32.9
	c1.3,0,2.4,1.1,2.4,2.4c0,1.2-1.1,2.4-2.4,2.4H32.8C31.4,378,30.3,377,30.3,375.7L30.3,375.7z M30.3,388.1c0-1.2,1.1-2.4,2.4-2.4
	h22.5c1.3,0,2.4,1.1,2.4,2.4c0,1.3-1.1,2.4-2.4,2.4H32.8C31.4,390.5,30.3,389.4,30.3,388.1L30.3,388.1z M119,375.7
	c0,1.3-1.1,2.4-2.4,2.4H83.7c-1.3,0-2.4-1.1-2.4-2.4c0-1.2,1.1-2.4,2.4-2.4h32.9C118,373.3,119.1,374.3,119,375.7
	C119.1,375.7,119.1,375.7,119,375.7L119,375.7z M109.2,388.1c0,1.3-1.1,2.4-2.4,2.4H83.7c-1.3,0-2.4-1.1-2.4-2.4s1.1-2.4,2.4-2.4h23
	C108.2,385.6,109.2,386.7,109.2,388.1L109.2,388.1L109.2,388.1z M30.5,361.6c-0.6-1.2-0.1-2.7,1.1-3.2l0,0l26.8-13.2
	c0.5-0.3,1-0.4,1.5-0.2l28.2,5.8l27.3-15c1.2-0.6,2.7-0.1,3.2,1c0.6,1.1,0.2,2.5-1,3.1l-28,15.5c-0.5,0.3-1.1,0.4-1.6,0.3l-28.3-5.9
	l-26,12.8C32.6,363.3,31.2,362.7,30.5,361.6L30.5,361.6z"/>
</svg>
