<?xml version="1.0" encoding="utf-8"?>
<!-- Generator: Adobe Illustrator 22.1.0, SVG Export Plug-In . SVG Version: 6.00 Build 0)  -->
<svg version="1.1" id="Layer_1" xmlns="http://www.w3.org/2000/svg" xmlns:xlink="http://www.w3.org/1999/xlink" x="0px" y="0px"
	 viewBox="0 0 150 450" style="enable-background:new 0 0 150 450;" xml:space="preserve">
<style type="text/css">
	.st0{fill:#FFA13B;}
	.st1{fill:#FFFFFF;}
	.st2{fill:#656464;}
</style>
<g>
	<path class="st0" d="M122.2,34.5c0-0.1,0-0.3-0.1-0.4v-0.1c0-0.1-0.1-0.3-0.1-0.4v-0.1c-0.1-0.1-0.3-0.3-0.3-0.4L102,13.8
		c-0.1-0.1-0.3-0.3-0.4-0.3h-0.1c-0.1-0.1-0.3-0.1-0.4-0.1h-0.1c-0.1,0-0.3-0.1-0.4-0.1s-0.4,0-0.5,0H30.4c-1.4,0-2.5,1.2-2.5,2.5
		v118.2c0,1.3,1.2,2.5,2.5,2.5h89.2c1.3,0,2.5-1.2,2.5-2.5v-99C122.2,34.9,122.2,34.6,122.2,34.5z M102.7,21.7l10.8,10.8h-10.8V21.7
		z M32.9,131.3V18.2h64.8v16.9c0,1.4,1.2,2.5,2.5,2.5h16.9v93.8L32.9,131.3L32.9,131.3z"/>
	<path class="st0" d="M104.7,83.1H45.3c-1.3,0-2.5,1.2-2.5,2.5s1.2,2.5,2.5,2.5h59.4c1.4,0,2.5-1.2,2.5-2.5
		C107.2,84.3,106.1,83.1,104.7,83.1z"/>
	<path class="st0" d="M104.7,98.3H45.3c-1.3,0-2.5,1.2-2.5,2.5s1.2,2.5,2.5,2.5h59.4c1.4,0,2.5-1.2,2.5-2.5S106.1,98.3,104.7,98.3z"
		/>
	<path class="st0" d="M76,113.4H45.4c-1.4,0-2.5,1.2-2.5,2.5s1.2,2.5,2.5,2.5H76c1.3,0,2.5-1.2,2.5-2.5
		C78.5,114.6,77.4,113.4,76,113.4z"/>
	<path class="st0" d="M51.6,67.3c1-1,1-2.5,0-3.5c-2.4-2.4-3.8-5.7-3.8-9.1c0-7,5.8-12.9,12.9-12.9c7.1,0,12.9,5.8,12.9,12.9
		c0,3.4-1.4,6.7-3.8,9.1c-1,1-1,2.5,0,3.5c0.5,0.5,1.2,0.7,1.8,0.7s1.3-0.3,1.8-0.7c3.4-3.4,5.3-7.8,5.3-12.6
		c0-9.8-8.1-17.9-17.9-17.9s-17.9,8.1-17.9,17.9c0,4.8,1.9,9.4,5.3,12.6C48.9,68.3,50.5,68.3,51.6,67.3z"/>
	<path class="st0" d="M92,61.2c0.5,0.5,1.2,0.7,1.8,0.7s1.3-0.3,1.8-0.7l9.7-9.7c1-1,1-2.5,0-3.5s-2.5-1-3.5,0l-7.9,7.9l-3.1-3.1
		c-1-1-2.5-1-3.5,0c-1,1-1,2.5,0,3.5L92,61.2z"/>
</g>
<g>
	<path class="st1" d="M122,184.5c0-0.1,0-0.3-0.1-0.4v-0.1c0-0.1-0.1-0.3-0.1-0.4v-0.1c-0.1-0.1-0.3-0.3-0.3-0.4l-19.7-19.4
		c-0.1-0.1-0.3-0.3-0.4-0.3h-0.1c-0.1-0.1-0.3-0.1-0.4-0.1H101c-0.1,0-0.3-0.1-0.4-0.1c-0.1,0-0.4,0-0.5,0H30.4
		c-1.4,0-2.5,1.2-2.5,2.5v118.2c0,1.4,1.2,2.5,2.5,2.5h89.2c1.3,0,2.5-1.2,2.5-2.5v-99C122,184.9,122,184.6,122,184.5z M102.6,171.7
		l10.8,10.8h-10.8L102.6,171.7L102.6,171.7z M32.7,281.3V168.2h64.8v16.9c0,1.4,1.2,2.5,2.5,2.5H117v93.8L32.7,281.3L32.7,281.3z"/>
	<path class="st1" d="M104.6,233.1H45.2c-1.3,0-2.5,1.2-2.5,2.5c0,1.3,1.2,2.5,2.5,2.5h59.4c1.3,0,2.5-1.2,2.5-2.5
		C107.1,234.3,106,233.1,104.6,233.1z"/>
	<path class="st1" d="M104.6,248.3H45.2c-1.3,0-2.5,1.2-2.5,2.5s1.2,2.5,2.5,2.5h59.4c1.3,0,2.5-1.2,2.5-2.5S106,248.3,104.6,248.3z
		"/>
	<path class="st1" d="M75.9,263.4H45.3c-1.4,0-2.5,1.2-2.5,2.5s1.2,2.5,2.5,2.5h30.6c1.3,0,2.5-1.2,2.5-2.5S77.3,263.4,75.9,263.4z"
		/>
	<path class="st1" d="M51.5,217.3c1-1,1-2.5,0-3.5c-2.4-2.4-3.8-5.7-3.8-9.1c0-7,5.8-12.9,12.9-12.9c7,0,12.9,5.8,12.9,12.9
		c0,3.4-1.4,6.7-3.8,9.1c-1,1-1,2.5,0,3.5c0.5,0.5,1.2,0.7,1.8,0.7s1.3-0.3,1.8-0.7c3.4-3.4,5.3-7.8,5.3-12.6
		c0-9.8-8.1-17.9-17.9-17.9s-17.9,8.1-17.9,17.9c0,4.8,1.9,9.4,5.3,12.6C48.8,218.3,50.4,218.3,51.5,217.3z"/>
	<path class="st1" d="M91.9,211.2c0.5,0.5,1.2,0.7,1.8,0.7s1.3-0.3,1.8-0.7l9.6-9.6c1-1,1-2.5,0-3.5s-2.5-1-3.5,0l-7.9,7.9l-3.1-3.1
		c-1-1-2.5-1-3.5,0c-1,1-1,2.5,0,3.5L91.9,211.2z"/>
</g>
<g>
	<path class="st2" d="M122,334.5c0-0.1,0-0.3-0.1-0.4v-0.1c0-0.1-0.1-0.3-0.1-0.4v-0.1c-0.1-0.1-0.3-0.3-0.3-0.4l-19.7-19.4
		c-0.1-0.1-0.3-0.3-0.4-0.3h-0.1c-0.1-0.1-0.3-0.1-0.4-0.1H101c-0.1,0-0.3-0.1-0.4-0.1c-0.1,0-0.4,0-0.5,0H30.4
		c-1.4,0-2.5,1.2-2.5,2.5v118.2c0,1.4,1.2,2.5,2.5,2.5h89.2c1.3,0,2.5-1.2,2.5-2.5v-99C122,334.9,122,334.6,122,334.5z M102.6,321.7
		l10.8,10.8h-10.8L102.6,321.7L102.6,321.7z M32.7,431.3V318.2h64.8v16.9c0,1.4,1.2,2.5,2.5,2.5H117v93.8L32.7,431.3L32.7,431.3z"/>
	<path class="st2" d="M104.6,383.1H45.2c-1.3,0-2.5,1.2-2.5,2.5s1.2,2.5,2.5,2.5h59.4c1.3,0,2.5-1.2,2.5-2.5S106,383.1,104.6,383.1z
		"/>
	<path class="st2" d="M104.6,398.3H45.2c-1.3,0-2.5,1.2-2.5,2.5s1.2,2.5,2.5,2.5h59.4c1.3,0,2.5-1.2,2.5-2.5S106,398.3,104.6,398.3z
		"/>
	<path class="st2" d="M75.9,413.4H45.3c-1.4,0-2.5,1.2-2.5,2.5s1.2,2.5,2.5,2.5h30.6c1.3,0,2.5-1.2,2.5-2.5S77.3,413.4,75.9,413.4z"
		/>
	<path class="st2" d="M51.5,367.3c1-1,1-2.5,0-3.5c-2.4-2.4-3.8-5.7-3.8-9.1c0-7,5.8-12.9,12.9-12.9c7,0,12.9,5.8,12.9,12.9
		c0,3.4-1.4,6.7-3.8,9.1c-1,1-1,2.5,0,3.5c0.5,0.5,1.2,0.7,1.8,0.7s1.3-0.3,1.8-0.7c3.4-3.4,5.3-7.8,5.3-12.6
		c0-9.8-8.1-17.9-17.9-17.9s-17.9,8.1-17.9,17.9c0,4.8,1.9,9.4,5.3,12.6C48.8,368.3,50.4,368.3,51.5,367.3z"/>
	<path class="st2" d="M91.9,361.2c0.5,0.5,1.2,0.7,1.8,0.7s1.3-0.3,1.8-0.7l9.6-9.6c1-1,1-2.5,0-3.5c-1-1-2.5-1-3.5,0l-7.9,7.9
		l-3.1-3.1c-1-1-2.5-1-3.5,0c-1,1-1,2.5,0,3.5L91.9,361.2z"/>
</g>
</svg>
