<?xml version="1.0" encoding="utf-8"?>
<!-- Generator: Adobe Illustrator 22.1.0, SVG Export Plug-In . SVG Version: 6.00 Build 0)  -->
<svg version="1.1" id="Layer_1" xmlns="http://www.w3.org/2000/svg" xmlns:xlink="http://www.w3.org/1999/xlink" x="0px" y="0px"
	 viewBox="0 0 60 180" style="enable-background:new 0 0 60 180;" xml:space="preserve">
<style type="text/css">
	.st0{fill:#A74CD2;fill-opacity:0;}
	.st1{fill:#A74CD2;stroke:#5C198E;stroke-width:2;stroke-linecap:square;stroke-miterlimit:10;}
	.st2{fill:none;stroke:#5C198E;stroke-width:2;stroke-linecap:square;stroke-miterlimit:10;}
	.st3{fill:none;stroke:#5C198E;stroke-width:2;stroke-linecap:round;stroke-linejoin:round;stroke-miterlimit:10;}
	.st4{fill:none;stroke:#FFFFFF;stroke-width:2;stroke-linecap:square;stroke-miterlimit:10;}
	.st5{fill:none;stroke:#FFFFFF;stroke-width:2;stroke-linecap:round;stroke-linejoin:round;stroke-miterlimit:10;}
	.st6{fill:none;stroke:#656464;stroke-width:2;stroke-linecap:square;stroke-miterlimit:10;}
	.st7{fill:none;stroke:#656464;stroke-width:2;stroke-linecap:round;stroke-linejoin:round;stroke-miterlimit:10;}
</style>
<g>
	<g>
		<polyline class="st0" points="31,9 47,9 47,51 15,51 15,9 31,9 		"/>
		<g>
			<polyline class="st1" points="31,9 47,9 47,51 15,51 15,9 31,9 			"/>
			<g>
				<line class="st2" x1="23" y1="17" x2="41" y2="17"/>
				<line class="st2" x1="23" y1="23" x2="41" y2="23"/>
				<line class="st2" x1="23" y1="29" x2="41" y2="29"/>
				<line class="st2" x1="23" y1="35" x2="41" y2="35"/>
				<line class="st2" x1="23" y1="41" x2="35" y2="41"/>
			</g>
		</g>
		<g>
			<line class="st3" x1="13" y1="15" x2="17" y2="15"/>
			<line class="st3" x1="13" y1="21" x2="17" y2="21"/>
			<line class="st3" x1="13" y1="27" x2="17" y2="27"/>
			<line class="st3" x1="13" y1="33" x2="17" y2="33"/>
			<line class="st3" x1="13" y1="39" x2="17" y2="39"/>
			<line class="st3" x1="13" y1="45" x2="17" y2="45"/>
		</g>
	</g>
</g>
<g>
	<g>
		<polyline class="st0" points="31,69 47,69 47,111 15,111 15,69 31,69 		"/>
		<g>
			<polyline class="st4" points="31,69 47,69 47,111 15,111 15,69 31,69 			"/>
			<g>
				<line class="st4" x1="23" y1="77" x2="41" y2="77"/>
				<line class="st4" x1="23" y1="83" x2="41" y2="83"/>
				<line class="st4" x1="23" y1="89" x2="41" y2="89"/>
				<line class="st4" x1="23" y1="95" x2="41" y2="95"/>
				<line class="st4" x1="23" y1="101" x2="35" y2="101"/>
			</g>
		</g>
		<g>
			<line class="st5" x1="13" y1="75" x2="17" y2="75"/>
			<line class="st5" x1="13" y1="81" x2="17" y2="81"/>
			<line class="st5" x1="13" y1="87" x2="17" y2="87"/>
			<line class="st5" x1="13" y1="93" x2="17" y2="93"/>
			<line class="st5" x1="13" y1="99" x2="17" y2="99"/>
			<line class="st5" x1="13" y1="105" x2="17" y2="105"/>
		</g>
	</g>
</g>
<g>
	<g>
		<polyline class="st0" points="31,129 47,129 47,171 15,171 15,129 31,129 		"/>
		<g>
			<polyline class="st6" points="31,129 47,129 47,171 15,171 15,129 31,129 			"/>
			<g>
				<line class="st6" x1="23" y1="137" x2="41" y2="137"/>
				<line class="st6" x1="23" y1="143" x2="41" y2="143"/>
				<line class="st6" x1="23" y1="149" x2="41" y2="149"/>
				<line class="st6" x1="23" y1="155" x2="41" y2="155"/>
				<line class="st6" x1="23" y1="161" x2="35" y2="161"/>
			</g>
		</g>
		<g>
			<line class="st7" x1="13" y1="135" x2="17" y2="135"/>
			<line class="st7" x1="13" y1="141" x2="17" y2="141"/>
			<line class="st7" x1="13" y1="147" x2="17" y2="147"/>
			<line class="st7" x1="13" y1="153" x2="17" y2="153"/>
			<line class="st7" x1="13" y1="159" x2="17" y2="159"/>
			<line class="st7" x1="13" y1="165" x2="17" y2="165"/>
		</g>
	</g>
</g>
</svg>
