<?xml version="1.0" encoding="utf-8"?>
<!-- Generator: Adobe Illustrator 22.1.0, SVG Export Plug-In . SVG Version: 6.00 Build 0)  -->
<svg version="1.1" id="Layer_1" xmlns="http://www.w3.org/2000/svg" xmlns:xlink="http://www.w3.org/1999/xlink" x="0px" y="0px"
	 viewBox="0 0 150 450" style="enable-background:new 0 0 150 450;" xml:space="preserve">
<style type="text/css">
	.st0{fill:#007AFF;}
	.st1{fill:#FFFFFF;}
	.st2{fill:#656464;}
</style>
<g>
	<g>
		<path class="st0" d="M120.8,126.3H19c-1.2,0-2.1-0.9-2.1-2.1V25.8c0-1.2,0.9-2.1,2.1-2.1h83.6c1.2,0,2.1,0.9,2.1,2.1v14.6h16.1
			c1.2,0,2.1,0.9,2.1,2.1V59c0,1.2-0.9,2.1-2.1,2.1c-1.2,0-2.1-0.9-2.1-2.1V44.4h-16.1c-1.2,0-2.1-0.9-2.1-2.1V27.9H21v94.2h97.6
			V92.6c0-1.2,0.9-2.1,2.1-2.1c1.2,0,2.1,0.9,2.1,2.1v31.5C122.9,125.3,121.9,126.3,120.8,126.3z"/>
		<path class="st0" d="M120.8,43c-0.5,0-1.1-0.2-1.3-0.5l-16.6-15.1c-0.8-0.7-0.9-2.1-0.1-2.9c0.7-0.8,2.1-0.9,2.9-0.1l16.6,15.1
			c0.8,0.7,0.9,2.1,0.1,2.9C121.9,42.7,121.5,43,120.8,43z"/>
		<g>
			<g>
				<path class="st0" d="M132.6,94.8c-0.3,0-0.7-0.1-1.1-0.3c-7.1-4.2-18-10.8-28.6-17.2c-10.6-6.4-21.5-12.9-28.5-17.1
					C74,60,73.7,59.6,73.5,59l-4-12c-0.2-0.6-0.1-1.3,0.2-1.8s0.8-0.8,1.4-0.9l12.4-2.1c0.5-0.1,0.9,0,1.3,0.2
					c7.1,4.1,18,10.7,28.6,17c10.6,6.4,21.5,12.9,28.6,17c0.5,0.3,0.8,0.7,0.9,1.3c0.1,0.5,0.1,1.2-0.2,1.5l-8.4,14.3
					C134,94.3,133.4,94.8,132.6,94.8z M77.1,57c7.1,4.2,17.7,10.6,27.9,16.7c9.8,5.8,19.8,12,26.8,16l6.4-10.7
					c-7.1-4.1-17.1-10.2-26.8-15.9c-10.3-6.1-21-12.5-27.9-16.6L74.3,48L77.1,57z"/>
				<path class="st0" d="M75.4,60.1c-0.4,0-0.7-0.1-1.1-0.3c-0.9-0.6-1.4-1.9-0.7-2.8l8.2-13.8c0.6-0.9,1.9-1.3,2.8-0.7
					c0.9,0.6,1.3,1.9,0.7,2.8L77.1,59C76.9,59.7,76.2,60.1,75.4,60.1z"/>
				<path class="st0" d="M126.6,90.5c-0.3,0-0.7-0.1-1.1-0.3c-0.9-0.6-1.4-1.9-0.7-2.8l8.1-13.6c0.6-0.9,1.9-1.4,2.8-0.7
					c0.9,0.6,1.4,1.9,0.7,2.8l-8.1,13.8C128.1,90.2,127.4,90.5,126.6,90.5z"/>
			</g>
		</g>
	</g>
	<path class="st0" d="M57.9,66.8H35.3c-1.2,0-2.1-0.9-2.1-2.1V41.9c0-1.2,0.9-2.1,2.1-2.1h22.7c1.2,0,2.1,0.9,2.1,2.1
		c0,1.2-0.9,2.1-2.1,2.1H37.4v18.5h18.5v-3.4c0-1.2,0.9-2.1,2.1-2.1c1.2,0,2.1,0.9,2.1,2.1v5.5C60,65.8,59.1,66.8,57.9,66.8z"/>
	<path class="st0" d="M51.2,59.1c-0.5,0-1.1-0.2-1.4-0.6l-7.9-7.9c-0.8-0.8-0.8-2.1,0-2.9c0.8-0.8,2.1-0.8,2.9,0l6.4,6.4l18.3-18.3
		c0.8-0.8,2.1-0.8,2.9,0c0.8,0.8,0.8,2.1,0,2.9L52.7,58.5C52.2,58.9,51.8,59.1,51.2,59.1z"/>
	<path class="st0" d="M57.9,104.2H35.5c-1.2,0-2.1-0.9-2.1-2.1V79.7c0-1.2,0.9-2.1,2.1-2.1h22.5c1.2,0,2.1,0.9,2.1,2.1v22.5
		C60,103.3,59.1,104.2,57.9,104.2z M37.5,100.1h18.3V81.7H37.5V100.1z"/>
	<path class="st0" d="M51.2,98.1c-0.5,0-1.1-0.2-1.4-0.6L41,88.7c-0.8-0.8-0.8-2.1,0-2.9s2.1-0.8,2.9,0l8.8,8.8
		c0.8,0.8,0.8,2.1,0,2.9C52.4,97.8,51.8,98.1,51.2,98.1z"/>
	<path class="st0" d="M42.4,98.1c-0.5,0-1.1-0.2-1.4-0.6c-0.8-0.8-0.8-2.1,0-2.9l8.8-8.8c0.8-0.8,2.1-0.8,2.9,0
		c0.8,0.8,0.8,2.1,0,2.9l-8.8,8.8C43.4,97.8,42.9,98.1,42.4,98.1z"/>
	<g>
		<path class="st0" d="M77.2,100.1c-0.5,0-1.1-0.2-1.4-0.6l-8.1-8.1c-0.5-0.4-0.6-0.9-0.6-1.4s0.2-1.1,0.6-1.4l8.1-8.1
			c0.8-0.8,2.1-0.8,2.9,0c0.8,0.8,0.8,2.1,0,2.9L72,89.8l6.7,6.7c0.8,0.8,0.8,2.1,0,2.9C78.3,100,77.8,100.1,77.2,100.1z"/>
		<path class="st0" d="M85.7,103.1c-0.2,0-0.4,0-0.6-0.1c-1.2-0.3-1.6-1.5-1.3-2.6l7.1-22.3c0.3-1.2,1.5-1.6,2.6-1.3
			c1.2,0.3,1.6,1.5,1.3,2.6l-7.1,22.3C87.2,102.6,86.5,103.1,85.7,103.1z"/>
		<path class="st0" d="M101.1,100.1c-0.5,0-1.1-0.2-1.4-0.6c-0.8-0.8-0.8-2.1,0-2.9l6.7-6.7l-6.7-6.7c-0.9-0.8-0.9-2.1,0-2.9
			c0.9-0.8,2.1-0.8,2.9,0l8.1,8.1c0.4,0.5,0.6,0.9,0.6,1.4s-0.2,1.1-0.6,1.4l-8.1,8.1C102,100,101.6,100.1,101.1,100.1z"/>
	</g>
</g>
<g>
	<g>
		<path class="st1" d="M120.9,276.3H19c-1.2,0-2.1-0.9-2.1-2.1v-98.4c0-1.2,0.9-2.1,2.1-2.1h83.6c1.2,0,2.1,0.9,2.1,2.1v14.6h16.1
			c1.2,0,2.1,0.9,2.1,2.1V209c0,1.2-0.9,2.1-2.1,2.1c-1.2,0-2.1-0.9-2.1-2.1v-14.6h-16.1c-1.2,0-2.1-0.9-2.1-2.1v-14.6H21.1V272
			h97.6v-29.5c0-1.2,0.9-2.1,2.1-2.1c1.2,0,2.1,0.9,2.1,2.1V274C123,275.4,122,276.3,120.9,276.3z"/>
		<path class="st1" d="M120.9,193c-0.5,0-1.1-0.2-1.4-0.5l-16.6-15.1c-0.8-0.7-0.9-2.1-0.1-2.9c0.7-0.8,2.1-0.9,2.9-0.1l16.6,15.1
			c0.8,0.7,0.9,2.1,0.1,2.9C122,192.7,121.5,193,120.9,193z"/>
		<g>
			<g>
				<path class="st1" d="M132.7,244.8c-0.3,0-0.7-0.1-1.1-0.3c-7.1-4.2-18-10.8-28.6-17.2s-21.5-12.9-28.6-17.1
					c-0.5-0.2-0.7-0.6-0.9-1.2l-4-12c-0.2-0.6-0.1-1.3,0.2-1.8c0.3-0.5,0.8-0.8,1.4-0.9l12.4-2.1c0.5-0.1,0.9,0,1.4,0.2
					c7.1,4.1,18,10.7,28.6,17c10.6,6.4,21.5,12.9,28.6,17c0.5,0.3,0.8,0.7,0.9,1.3c0.1,0.5,0.1,1.2-0.2,1.5l-8.4,14.3
					C134,244.3,133.5,244.8,132.7,244.8z M77.2,207c7.1,4.2,17.7,10.6,27.9,16.7c9.8,5.8,19.8,12,26.8,16l6.4-10.7
					c-7.1-4.1-17.1-10.2-26.8-15.9c-10.2-6.1-20.9-12.5-27.9-16.6l-9.3,1.5L77.2,207z"/>
				<path class="st1" d="M75.5,210.1c-0.5,0-0.7-0.1-1.1-0.3c-0.9-0.6-1.3-1.9-0.7-2.8l8.1-13.6c0.6-0.9,1.9-1.3,2.8-0.7
					c0.9,0.6,1.3,1.9,0.7,2.8l-8.1,13.6C76.9,209.7,76.2,210.1,75.5,210.1z"/>
				<path class="st1" d="M126.6,240.5c-0.3,0-0.7-0.1-1.1-0.3c-0.9-0.6-1.4-1.9-0.7-2.8l8.1-13.6c0.6-0.9,1.9-1.3,2.8-0.7
					c0.9,0.6,1.4,1.9,0.7,2.8l-8.1,13.8C128.2,240.2,127.4,240.5,126.6,240.5z"/>
			</g>
		</g>
	</g>
	<path class="st1" d="M57.9,216.8H35.4c-1.2,0-2.1-0.9-2.1-2.1v-22.8c0-1.2,0.9-2.1,2.1-2.1H58c1.2,0,2.1,0.9,2.1,2.1
		S59.2,194,58,194H37.4v18.5H56v-3.4c0-1.2,0.9-2.1,2.1-2.1s2.1,0.9,2.1,2.1v5.5C60,215.8,59.1,216.8,57.9,216.8z"/>
	<path class="st1" d="M51.3,209.1c-0.5,0-1.1-0.2-1.4-0.6l-7.9-7.9c-0.8-0.8-0.8-2.1,0-2.9c0.8-0.8,2.1-0.8,2.9,0l6.4,6.4l18.3-18.3
		c0.8-0.8,2.1-0.8,2.9,0c0.8,0.8,0.8,2.1,0,2.9l-19.7,19.9C52.3,208.9,51.8,209.1,51.3,209.1z"/>
	<path class="st1" d="M57.9,254.2H35.6c-1.2,0-2.1-0.9-2.1-2.1v-22.6c0-1.2,0.9-2.1,2.1-2.1H58c1.2,0,2.1,0.9,2.1,2.1V252
		C60,253.3,59.1,254.2,57.9,254.2z M37.5,250.1h18.3v-18.4H37.5V250.1z"/>
	<path class="st1" d="M51.3,248.1c-0.5,0-1.1-0.2-1.4-0.6l-8.8-8.8c-0.8-0.8-0.8-2.1,0-2.9c0.8-0.8,2.1-0.8,2.9,0l8.8,8.8
		c0.8,0.8,0.8,2.1,0,2.9C52.5,247.8,51.8,248.1,51.3,248.1z"/>
	<path class="st1" d="M42.5,248.1c-0.5,0-1.1-0.2-1.4-0.6c-0.8-0.8-0.8-2.1,0-2.9l8.8-8.8c0.8-0.8,2.1-0.8,2.9,0
		c0.8,0.8,0.8,2.1,0,2.9l-8.8,8.8C43.5,247.8,42.9,248.1,42.5,248.1z"/>
	<g>
		<path class="st1" d="M77.3,250.1c-0.5,0-1.1-0.2-1.4-0.6l-8.1-8.1c-0.5-0.4-0.6-0.9-0.6-1.4c0-0.5,0.2-1.1,0.6-1.4l8.1-8.1
			c0.8-0.8,2.1-0.8,2.9,0s0.8,2.1,0,2.9l-6.7,6.7l6.7,6.7c0.8,0.8,0.8,2.1,0,2.9C78.4,250,77.8,250.1,77.3,250.1z"/>
		<path class="st1" d="M85.7,253.1c-0.2,0-0.5,0-0.6-0.1c-1.2-0.3-1.6-1.5-1.3-2.6l7.2-22.4c0.3-1.2,1.5-1.6,2.6-1.3
			c1.2,0.3,1.6,1.5,1.4,2.6l-7.3,22.4C87.3,252.6,86.5,253.1,85.7,253.1z"/>
		<path class="st1" d="M101.1,250.1c-0.5,0-1.1-0.2-1.4-0.6c-0.8-0.8-0.8-2.1,0-2.9l6.7-6.7l-6.7-6.7c-0.8-0.8-0.8-2.1,0-2.9
			c0.8-0.8,2.1-0.8,2.9,0l8.1,8.1c0.5,0.4,0.6,0.9,0.6,1.4c0,0.5-0.2,1.1-0.6,1.4l-8.1,8.1C102.1,250,101.6,250.1,101.1,250.1z"/>
	</g>
</g>
<g>
	<g>
		<path class="st2" d="M120.9,426.3H19c-1.2,0-2.1-0.9-2.1-2.1v-98.4c0-1.2,0.9-2.1,2.1-2.1h83.6c1.2,0,2.1,0.9,2.1,2.1v14.6h16.1
			c1.2,0,2.1,0.9,2.1,2.1V359c0,1.2-0.9,2.1-2.1,2.1c-1.2,0-2.1-0.9-2.1-2.1v-14.6h-16.1c-1.2,0-2.1-0.9-2.1-2.1v-14.6H21.1V422
			h97.6v-29.5c0-1.2,0.9-2.1,2.1-2.1c1.2,0,2.1,0.9,2.1,2.1V424C123,425.4,122,426.3,120.9,426.3z"/>
		<path class="st2" d="M120.9,343c-0.5,0-1.1-0.2-1.4-0.5l-16.6-15.1c-0.8-0.7-0.9-2.1-0.1-2.9c0.7-0.8,2.1-0.9,2.9-0.1l16.6,15.1
			c0.8,0.7,0.9,2.1,0.1,2.9C122,342.7,121.5,343,120.9,343z"/>
		<g>
			<g>
				<path class="st2" d="M132.7,394.8c-0.3,0-0.7-0.1-1.1-0.3c-7.1-4.2-18-10.8-28.6-17.2s-21.5-12.9-28.6-17.1
					c-0.5-0.2-0.7-0.6-0.9-1.2l-4-12c-0.2-0.6-0.1-1.3,0.2-1.8c0.3-0.5,0.8-0.8,1.4-0.9l12.4-2.1c0.5-0.1,0.9,0,1.4,0.2
					c7.1,4.1,18,10.7,28.6,17c10.6,6.4,21.5,12.9,28.6,17c0.5,0.3,0.8,0.7,0.9,1.3c0.1,0.5,0.1,1.2-0.2,1.5l-8.4,14.3
					C134,394.3,133.5,394.8,132.7,394.8z M77.2,357c7.1,4.2,17.7,10.6,27.9,16.7c9.8,5.8,19.8,12,26.8,16l6.4-10.7
					c-7.1-4.1-17.1-10.2-26.8-15.9c-10.2-6.1-20.9-12.5-27.9-16.6l-9.3,1.5L77.2,357z"/>
				<path class="st2" d="M75.5,360.2c-0.5,0-0.7-0.1-1.1-0.3c-0.9-0.6-1.3-1.9-0.7-2.8l8.1-13.6c0.6-0.9,1.9-1.4,2.8-0.7
					c0.9,0.7,1.3,1.9,0.7,2.8l-8.1,13.6C76.9,359.7,76.2,360.2,75.5,360.2z"/>
				<path class="st2" d="M126.6,390.5c-0.3,0-0.7-0.1-1.1-0.3c-0.9-0.6-1.4-1.9-0.7-2.8l8.1-13.6c0.6-0.9,1.9-1.4,2.8-0.7
					c0.9,0.6,1.4,1.9,0.7,2.8l-8.1,13.8C128.2,390.2,127.4,390.5,126.6,390.5z"/>
			</g>
		</g>
	</g>
	<path class="st2" d="M57.9,366.8H35.4c-1.2,0-2.1-0.9-2.1-2.1V342c0-1.2,0.9-2.1,2.1-2.1H58c1.2,0,2.1,0.9,2.1,2.1
		s-0.9,2.1-2.1,2.1H37.4v18.5H56v-3.5c0-1.2,0.9-2.1,2.1-2.1s2.1,0.9,2.1,2.1v5.5C60,365.8,59.1,366.8,57.9,366.8z"/>
	<path class="st2" d="M51.3,359.1c-0.5,0-1.1-0.2-1.4-0.6l-7.9-7.9c-0.8-0.8-0.8-2.1,0-2.9c0.8-0.8,2.1-0.8,2.9,0l6.4,6.4l18.3-18.3
		c0.8-0.8,2.1-0.8,2.9,0c0.8,0.8,0.8,2.1,0,2.9l-19.7,19.9C52.3,358.9,51.8,359.1,51.3,359.1z"/>
	<path class="st2" d="M57.9,404.2H35.6c-1.2,0-2.1-0.9-2.1-2.1v-22.6c0-1.2,0.9-2.1,2.1-2.1H58c1.2,0,2.1,0.9,2.1,2.1V402
		C60,403.3,59.1,404.2,57.9,404.2z M37.5,400.1h18.3v-18.4H37.5V400.1z"/>
	<path class="st2" d="M51.3,398.1c-0.5,0-1.1-0.2-1.4-0.6l-8.8-8.8c-0.8-0.8-0.8-2.1,0-2.9s2.1-0.8,2.9,0l8.8,8.8
		c0.8,0.8,0.8,2.1,0,2.9C52.5,397.8,51.8,398.1,51.3,398.1z"/>
	<path class="st2" d="M42.5,398.1c-0.5,0-1.1-0.2-1.4-0.6c-0.8-0.8-0.8-2.1,0-2.9l8.8-8.8c0.8-0.8,2.1-0.8,2.9,0s0.8,2.1,0,2.9
		l-8.8,8.8C43.5,397.8,42.9,398.1,42.5,398.1z"/>
	<g>
		<path class="st2" d="M77.3,400.1c-0.5,0-1.1-0.2-1.4-0.6l-8.1-8.1c-0.5-0.4-0.6-0.9-0.6-1.4s0.2-1.1,0.6-1.4l8.1-8.1
			c0.8-0.8,2.1-0.8,2.9,0c0.8,0.8,0.8,2.1,0,2.9l-6.7,6.7l6.7,6.7c0.8,0.8,0.8,2.1,0,2.9C78.4,400,77.8,400.1,77.3,400.1z"/>
		<path class="st2" d="M85.7,403.1c-0.2,0-0.5,0-0.6-0.1c-1.2-0.3-1.6-1.5-1.3-2.6l7.2-22.4c0.3-1.2,1.5-1.6,2.6-1.4
			c1.2,0.3,1.6,1.5,1.4,2.6l-7.3,22.5C87.3,402.6,86.5,403.1,85.7,403.1z"/>
		<path class="st2" d="M101.1,400.1c-0.5,0-1.1-0.2-1.4-0.6c-0.8-0.8-0.8-2.1,0-2.9l6.7-6.7l-6.7-6.7c-0.8-0.8-0.8-2.1,0-2.9
			c0.8-0.8,2.1-0.8,2.9,0l8.1,8.1c0.5,0.5,0.6,0.9,0.6,1.4s-0.2,1.1-0.6,1.4l-8.1,8.1C102.1,400,101.6,400.1,101.1,400.1z"/>
	</g>
</g>
</svg>
