<?xml version="1.0" encoding="utf-8"?>
<!-- Generator: Adobe Illustrator 22.1.0, SVG Export Plug-In . SVG Version: 6.00 Build 0)  -->
<svg version="1.1" id="Layer_1" xmlns="http://www.w3.org/2000/svg" xmlns:xlink="http://www.w3.org/1999/xlink" x="0px" y="0px"
	 viewBox="0 0 60 180" style="enable-background:new 0 0 60 180;" xml:space="preserve">
<style type="text/css">
	.st0{clip-path:url(#SVGID_2_);}
	.st1{fill:#97E2AE;stroke:#00B050;stroke-width:2;}
	.st2{fill:none;stroke:#00B050;stroke-width:2;stroke-miterlimit:10;}
	.st3{clip-path:url(#SVGID_4_);}
	.st4{fill:#FFFFFF;stroke:#FFFFFF;stroke-width:2;}
	.st5{fill:none;stroke:#FFFFFF;stroke-width:2;stroke-miterlimit:10;}
	.st6{clip-path:url(#SVGID_6_);}
	.st7{fill:#656464;stroke:#656464;stroke-width:2;}
	.st8{fill:none;stroke:#656464;stroke-width:2;stroke-miterlimit:10;}
</style>
<g>
	<g>
		<g>
			<g>
				<g>
					<defs>
						<path id="SVGID_1_" d="M42.8,51H17.2c-1.7,0-2.6-1.3-2.1-2.9L23,19V9h14v10l7.9,29.1C45.4,49.7,44.4,51,42.8,51z"/>
					</defs>
					<clipPath id="SVGID_2_">
						<use xlink:href="#SVGID_1_"  style="overflow:visible;"/>
					</clipPath>
					<g class="st0">
						<path class="st1" d="M20,29c11,0,9-2,19-2h10v30H11V29H20z"/>
					</g>
				</g>
			</g>
		</g>
	</g>
	<g>
		<path class="st2" d="M37,9v10l7.9,29.1c0.5,1.6-0.5,2.9-2.1,2.9H17.2c-1.7,0-2.6-1.3-2.1-2.9L23,19V9"/>
		<line class="st2" x1="22" y1="9" x2="38" y2="9"/>
	</g>
</g>
<g>
	<g>
		<g>
			<defs>
				<path id="SVGID_3_" d="M42.8,111H17.2c-1.7,0-2.6-1.3-2.1-2.9L23,79V69h14v10l7.9,29.1C45.4,109.7,44.4,111,42.8,111z"/>
			</defs>
			<clipPath id="SVGID_4_">
				<use xlink:href="#SVGID_3_"  style="overflow:visible;"/>
			</clipPath>
			<g class="st3">
				<path class="st4" d="M20,89c11,0,9-2,19-2h10v30H11V89H20z"/>
			</g>
		</g>
	</g>
	<path class="st5" d="M37,69v10l7.9,29.1c0.5,1.6-0.5,2.9-2.1,2.9H17.2c-1.7,0-2.6-1.3-2.1-2.9L23,79V69"/>
	<line class="st5" x1="22" y1="69" x2="38" y2="69"/>
</g>
<g>
	<g>
		<g>
			<g>
				<defs>
					<path id="SVGID_5_" d="M42.8,171H17.2c-1.7,0-2.6-1.3-2.1-2.9L23,139v-10h14v10l7.9,29.1C45.4,169.7,44.4,171,42.8,171z"/>
				</defs>
				<clipPath id="SVGID_6_">
					<use xlink:href="#SVGID_5_"  style="overflow:visible;"/>
				</clipPath>
				<g class="st6">
					<path class="st7" d="M20,149c11,0,9-2,19-2h10v30H11v-28H20z"/>
				</g>
			</g>
		</g>
	</g>
	<path class="st8" d="M37,129v10l7.9,29.1c0.5,1.6-0.5,2.9-2.1,2.9H17.2c-1.7,0-2.6-1.3-2.1-2.9L23,139v-10"/>
	<line class="st8" x1="22" y1="129" x2="38" y2="129"/>
</g>
</svg>
