<?xml version="1.0" encoding="utf-8"?>
<!-- Generator: Adobe Illustrator 22.1.0, SVG Export Plug-In . SVG Version: 6.00 Build 0)  -->
<svg version="1.1" id="Layer_1" xmlns="http://www.w3.org/2000/svg" xmlns:xlink="http://www.w3.org/1999/xlink" x="0px" y="0px"
	 viewBox="0 0 150 450" style="enable-background:new 0 0 150 450;" xml:space="preserve">
<style type="text/css">
	.st0{fill:#FF6F72;}
	.st1{fill:#FFFFFF;}
</style>
<title>Artboard 2 copy 6</title>
<path class="st0" d="M54.8,82.8c-6.9,0-12.5,5.6-12.5,12.5s5.6,12.5,12.5,12.5s12.5-5.6,12.5-12.5l0,0
	C67.3,88.4,61.7,82.8,54.8,82.8z M54.8,103.8c-4.7,0-8.5-3.8-8.5-8.5s3.8-8.5,8.5-8.5s8.5,3.8,8.5,8.5l0,0
	C63.3,100,59.5,103.8,54.8,103.8L54.8,103.8z M87.4,86.4h-0.3h-4.8c-0.4-0.1-0.7-0.2-1-0.3L81.1,86c-0.7-0.5-1.1-1.3-1.1-2.1
	c0-0.3,0.1-0.5,0.1-0.8c0.1-0.3,0.2-0.5,0.4-0.8l3.4-3.4l0.2-0.2c2.1-2.7,2-6.5-0.1-9.1l-0.1-0.3l-3.1-3.1L80.6,66
	c-2.7-2.1-6.4-2.2-9.1-0.1l-0.1,0.3l-3.5,3.4c-0.8,0.6-1.8,0.7-2.6,0.3c-0.3-0.1-0.5-0.3-0.8-0.5c-0.4-0.4-0.6-0.9-0.7-1.4v-4.9
	c0-0.1,0-0.2,0-0.3c-0.5-3.4-3.2-6-6.5-6.4h-4.8c-3.4,0.3-6.1,3-6.5,6.4c0,0.1,0,0.2,0,0.3V68v0.1v0.1v0.2v0.1l0,0
	c-0.1,0.1-0.1,0.2-0.1,0.3v0.1c-0.2,0.3-0.4,0.5-0.6,0.8c-1.1,0.5-2.4,0.6-3.4-0.1l-3.4-3.4L38.3,66c-2.7-2.1-6.5-2-9.1,0.1L29,66.2
	l-3,3.1l-0.1,0.2c-2.1,2.7-2.2,6.4-0.1,9.1c0.1,0.1,0.1,0.2,0.2,0.2l3.4,3.3v0.1l0,0c0,0.1,0.1,0.2,0.2,0.2l0,0l0,0l0.1,0.2
	c0,0.1,0.1,0.2,0.1,0.2v0.1l0,0V83c0,0.1,0,0.2,0,0.3c0.1,0.8-0.1,1.7-0.8,2.3c-0.4,0.4-0.9,0.6-1.4,0.7h-4.9h-0.2
	c-3.4,0.4-6,3.1-6.4,6.5c0,0.1,0,0.2,0,0.2v4.3c0,0.1,0,0.2,0,0.2c0.4,3.4,3,6.1,6.4,6.6h0.3h4.9h0.2H28h0.1
	c1.4,0.4,2.1,1.8,1.7,3.2c-0.1,0.3-0.2,0.6-0.4,0.8l-2.4,2.4l-1.1,1c-0.1,0.1-0.1,0.2-0.2,0.2c-2.1,2.7-2,6.5,0.1,9.1l0.1,0.1l3,3.1
	l0.2,0.2c2.7,2.1,6.4,2.1,9.1,0.1l0.2-0.2l3.4-3.4l0.2-0.1l0.2-0.1l0,0c0.1,0,0.2-0.1,0.4-0.2l0.3-0.1h0h0.4c0.7,0,1.4,0.2,1.9,0.7
	c0.4,0.4,0.6,0.9,0.7,1.5v4.9c0,0.1,0,0.2,0,0.3c0.4,3.4,3.1,6,6.5,6.4h4.8c3.4-0.4,6.1-3,6.5-6.4c0-0.1,0-0.2,0-0.3v-4.9
	c0.1-0.4,0.2-0.8,0.5-1.2c0.1-0.1,0.2-0.2,0.3-0.3c0.1-0.1,0.2-0.2,0.3-0.3h0.1l0.3-0.2h0.1h0.1l0.3-0.1l0,0
	c0.2-0.1,0.5-0.1,0.7-0.1h0.3c0.4,0,0.7,0.2,1,0.3l0.2,0.1l3.4,3.4l0.2,0.2c2.7,2,6.4,2,9.1-0.1l0.2-0.2l3.1-2.7l0.1-0.1
	c2.1-2.6,2.2-6.4,0.1-9.1c-0.1-0.1-0.1-0.2-0.2-0.2l-3.4-3.4c-0.8-1-0.7-2.5,0.2-3.4c0.2-0.2,0.5-0.4,0.8-0.5l0.2-0.1
	c0.1-0.1,0.3-0.1,0.4-0.1H87h0.3c3.4-0.5,6-3.1,6.4-6.5c0-0.1,0-0.2,0-0.2v-4.3c0-0.1,0-0.2,0-0.2C93.4,89.5,90.7,86.8,87.4,86.4z
	 M89.7,97.3c-0.2,1.5-1.4,2.7-2.8,2.9h-4.8h-0.3c-0.6,0.1-1.2,0.2-1.7,0.5c-0.8,0.3-1.6,0.8-2.2,1.4c-2.4,2.4-2.6,6.2-0.4,8.8
	l0.1,0.1l3.4,3.4c0.8,1.2,0.8,2.8-0.1,4l-2.9,2.9c-1.2,0.8-2.8,0.8-4,0l-3.4-3.4l-0.2-0.2l-0.5-0.4l-0.1-0.1
	c-0.9-0.5-1.9-0.9-2.9-0.9h-0.6c-0.6,0-1.2,0.1-1.8,0.2l-0.2,0.1l-0.5,0.2l-0.2,0.1c-0.1,0-0.2,0.1-0.3,0.2l-0.1,0.1l-0.1,0.1l0,0
	l-0.2,0.1c-0.5,0.3-1,0.7-1.4,1.1l-0.2,0.2c-0.1,0.1-0.2,0.2-0.2,0.2c-0.7,1-1.2,2.1-1.3,3.4c0,0.1,0,0.1,0,0.2v4.8
	c-0.2,1.5-1.4,2.6-2.9,2.9h-4.1c-1.5-0.2-2.6-1.4-2.9-2.8v-4.9c0-0.1,0-0.2,0-0.3c-0.2-1.5-0.8-2.8-1.9-3.9c-1.4-1.4-3.2-2-5.1-1.9
	h-0.2l0,0c-0.1,0-0.3,0-0.4,0l-0.3,0.1h-0.1c-0.2,0-0.3,0.1-0.5,0.1l-0.2,0.1h-0.1l-0.3,0.1c-0.1,0-0.2,0.1-0.3,0.1l-0.2,0.1
	c-0.1,0.1-0.3,0.1-0.4,0.2l-0.2,0.1l-0.2,0.2h-0.1c-0.1,0.1-0.2,0.1-0.3,0.2l-0.1,0.1l-3.4,3.4c-1.2,0.9-2.8,0.9-4,0l-2.9-2.9
	c-0.9-1.2-0.9-2.8-0.1-4l3.5-3.5l0.2-0.2c2.3-2.9,1.8-7-1.1-9.2c-0.6-0.5-1.3-0.9-2.1-1.1c-0.2-0.1-0.4-0.1-0.6-0.2h-0.3
	c-0.2-0.1-0.5-0.1-0.7-0.1h-4.9c-1.4-0.3-2.6-1.4-2.8-2.8v-4c0.2-1.5,1.3-2.6,2.8-2.9h5.1c3.6-0.4,6.2-3.7,5.8-7.3
	c0-0.1,0-0.2,0-0.3v-0.1c0-0.2-0.1-0.4-0.1-0.6v0.1c0-0.1-0.1-0.2-0.1-0.3c0-0.1-0.1-0.2-0.1-0.3l0,0c0,0,0-0.1-0.1-0.2
	c0-0.1,0-0.1-0.1-0.2c0-0.1,0-0.1-0.1-0.2c0-0.1-0.1-0.1-0.1-0.2s-0.1-0.2-0.2-0.3c-0.1-0.1-0.1-0.2-0.2-0.3l-0.1-0.2v-0.1
	c-0.1-0.1-0.2-0.3-0.3-0.4L28.6,76c-0.8-1.2-0.8-2.8,0.1-4l2.9-2.9c1.2-0.9,2.8-0.9,4,0l3.5,3.4l0.1,0.1c1.2,0.9,2.6,1.4,4.1,1.4
	c1.6,0,3.1-0.5,4.2-1.6c0.6-0.5,1.1-1.1,1.5-1.8c0.1-0.1,0.1-0.2,0.1-0.2c0.1-0.2,0.2-0.4,0.2-0.5s0.1-0.2,0.2-0.4
	c0-0.1,0.1-0.2,0.1-0.3c0.1-0.2,0.1-0.4,0.1-0.6s0-0.3,0.1-0.5s0-0.1,0-0.2v-4.7c0.3-1.5,1.4-2.6,2.9-2.8h4.2
	c1.5,0.2,2.6,1.4,2.9,2.8v4.9c0,0.1,0,0.1,0,0.2c0.2,1.5,0.8,2.9,1.9,3.9c0.6,0.6,1.3,1,2,1.4c2.3,1,4.8,0.6,6.8-0.9l0.2-0.1
	l3.4-3.4c1.2-0.9,2.8-0.9,4,0l2.9,2.9c0.9,1.2,0.9,2.8,0.1,4l-3.5,3.4l-0.2,0.2c-0.5,0.6-0.8,1.3-1.1,2c-0.2,0.7-0.3,1.4-0.3,2.1
	c0,2.2,1.1,4.3,2.9,5.5l0.3,0.2c0.8,0.5,1.7,0.9,2.7,1h0.3h4.7c1.5,0.2,2.6,1.4,2.8,2.8V97.3z M130.9,46.2l-0.3-0.1l-3.2-1.3
	c-0.1-0.1-0.3-0.2-0.3-0.3l-0.1-0.2c-0.2-0.4-0.2-0.8-0.1-1.2c0-0.1,0.1-0.2,0.2-0.3l0.1-0.1c0.1-0.1,0.2-0.2,0.3-0.3l3.2-1.3
	l0.2-0.1c2.4-1.4,3.5-4.2,2.7-6.8l-0.1-0.2l-1.2-2.9c0-0.1-0.1-0.2-0.1-0.2c-1.4-2.3-4.1-3.5-6.7-2.8l-0.2,0.1l-3.3,1.4
	c-0.4,0.1-0.9,0-1.2-0.4c-0.1-0.1-0.2-0.2-0.3-0.4c-0.1-0.3-0.1-0.5-0.1-0.8l1.3-3.3c0-0.1,0.1-0.2,0.1-0.3c0.7-2.6-0.5-5.4-2.9-6.7
	l-0.2-0.1l-2.9-1.2l-0.2-0.1c-2.6-0.7-5.4,0.4-6.8,2.7c0,0.1-0.1,0.2-0.1,0.2l-1.3,3.3l0,0l0,0v0.1l-0.1,0.1l-0.1,0.1
	c-0.1,0.1-0.2,0.1-0.4,0.2c-0.3,0.1-0.7,0.1-1,0s-0.5-0.3-0.6-0.5l-1.3-3.2c0-0.1-0.1-0.2-0.1-0.2c-1.4-2.3-4.2-3.4-6.8-2.7
	l-0.2,0.1l-2.9,1.2l-0.2,0.1c-2.4,1.3-3.5,4.1-2.8,6.7c0,0.1,0,0.2,0.1,0.2l1.4,3.4v0.1c0,0,0,0.1,0,0.2s0,0.1,0,0.2v0.1l0,0v0.1
	c-0.1,0.4-0.4,0.7-0.8,0.9c-0.2,0.1-0.5,0.1-0.7,0.1l-3.2-1.3l-0.3-0.1c-2.6-0.7-5.4,0.5-6.7,2.9l-0.1,0.2l-1.2,2.9
	c0,0.1-0.1,0.1-0.1,0.2c-0.7,2.6,0.4,5.4,2.7,6.8l0.2,0.1l3.2,1.3l0,0h0.1l0,0c0.4,0.3,0.6,0.9,0.5,1.5l-0.1,0.1
	c-0.1,0.2-0.3,0.4-0.5,0.6l-3.5,1.4l-0.2,0.1c-2.3,1.4-3.4,4.2-2.7,6.8c0,0.1,0,0.1,0.1,0.2l1.2,2.9c0,0.1,0.1,0.1,0.1,0.2
	c1.4,2.3,4.1,3.5,6.7,2.8l0.3-0.1l3.1-1.3h0.2l0,0h0.2H91h0.2h0.1l0,0c0.7,0.2,1,0.9,0.9,1.6l-1.3,3.3c0,0.1-0.1,0.1-0.1,0.2
	c-0.7,2.6,0.5,5.4,2.9,6.7l0.2,0.1l2.9,1.2l0.2,0.1c2.6,0.7,5.4-0.4,6.8-2.8c0-0.1,0.1-0.2,0.1-0.3l1.3-3.2c0.1-0.2,0.3-0.3,0.5-0.4
	l0,0h0.1h0.1l0,0h0.3h0.3c0.1,0,0.2,0,0.3,0.1l0.2,0.1c0.1,0.1,0.3,0.2,0.4,0.4l0.1,0.1l1.4,3c0,0.1,0.1,0.2,0.1,0.2
	c1.4,2.3,4.2,3.4,6.8,2.7L116,71l2.9-1.3l0.2-0.1c2.4-1.3,3.6-4.1,2.9-6.7c0-0.1-0.1-0.2-0.1-0.3l-1.1-2.6l-0.2-0.6
	c-0.2-0.6,0.2-1.3,0.8-1.6c0.2-0.1,0.3-0.1,0.5-0.1h0.2l2.3,0.9l1,0.4l0.3,0.1c2.6,0.7,5.4-0.5,6.7-2.9c0-0.1,0.1-0.1,0.1-0.2l1.2-3
	c0-0.1,0.1-0.1,0.1-0.2C134.4,50.4,133.3,47.6,130.9,46.2z M105.9,64.4L105.9,64.4z M129.9,51.9l-1.1,2.7c-0.4,0.7-1.2,1-2,0.9
	l-3.3-1.3c-0.5-0.2-1-0.3-1.6-0.3c-0.7,0-1.4,0.1-2.1,0.4c-2.5,1.1-3.8,3.9-3,6.5l0.1,0.2l1.4,3.2c0.2,0.8-0.2,1.6-0.9,2l-2.8,1.1
	c-0.8,0.2-1.6-0.1-2.1-0.8l-1.4-3.2c0-0.1-0.1-0.2-0.1-0.3c-0.1-0.2-0.2-0.3-0.3-0.5c-0.5-0.7-1.1-1.2-1.8-1.6l-0.2-0.1l-0.2-0.1
	h-0.1c-0.4-0.2-0.9-0.3-1.3-0.3c-0.3,0-0.6,0-0.9,0h-0.3l0,0c-0.1,0-0.3,0-0.4,0c-0.4,0.1-0.9,0.2-1.3,0.4c-0.1,0.1-0.3,0.1-0.4,0.2
	l0,0h-0.1c-0.8,0.5-1.5,1.2-2,2c-0.1,0.1-0.1,0.2-0.2,0.3l-1.3,3.1c-0.5,0.7-1.3,1-2.1,0.8l-2.5-1c-0.7-0.4-1-1.2-0.9-2l1.3-3.3
	c0-0.1,0.1-0.1,0.1-0.2c0.7-2.7-0.7-5.5-3.3-6.4h-0.5h-0.2c-0.1,0-0.3-0.1-0.4-0.1h-0.1c-0.2,0-0.3,0-0.5,0h-0.4c-0.2,0-0.3,0-0.5,0
	H90h-0.1c-0.1,0-0.3,0-0.4,0.1l-0.2,0.1h-0.1L86,55.7c-0.8,0.1-1.6-0.2-2-0.9l-1.1-2.7c-0.2-0.8,0.1-1.6,0.8-2.1l3.2-1.4l0.1-0.1
	c1-0.5,1.8-1.4,2.2-2.4c0-0.1,0.1-0.2,0.1-0.2c0.9-2.1,0.3-4.6-1.5-6.1c-0.1-0.1-0.2-0.2-0.3-0.2l0,0c-0.1-0.1-0.2-0.1-0.3-0.2
	l-0.1-0.1c-0.1-0.1-0.3-0.2-0.4-0.2l-2.3-0.9l-0.9-0.4c-0.7-0.5-1-1.3-0.8-2.1l1.1-2.7c0.4-0.7,1.2-1,2-0.9l3.3,1.3l0.2,0.1
	c1.2,0.3,2.4,0.3,3.5-0.2c1.6-0.6,2.7-2,3.1-3.6v-0.1C96,29.4,96,29.2,96,29c0,0,0-0.1,0-0.2s0-0.3,0-0.4s0-0.2,0-0.4
	c0-0.1,0-0.1,0-0.2c0-0.2,0-0.3-0.1-0.5v-0.1c0-0.2-0.1-0.4-0.2-0.6l-1.3-3.1c-0.1-0.8,0.2-1.6,0.9-2l2.7-1.1
	c0.8-0.2,1.6,0.1,2.1,0.8l1.4,3.3c0,0.1,0.1,0.1,0.1,0.2c1.3,2.2,3.9,3.2,6.3,2.4c0.7-0.2,1.3-0.5,1.8-1l0.1-0.1l0.2-0.2l0.1-0.1
	l0.1-0.1l0.1-0.1l0.2-0.2c0.1-0.1,0.2-0.2,0.2-0.3c0.1-0.1,0.2-0.3,0.2-0.5l1.3-3.3c0.4-0.7,1.2-1,2-0.8l2.7,1.1
	c0.7,0.4,1,1.2,0.9,2l-1.3,3.2l-0.1,0.2c-0.3,1.2-0.3,2.5,0.2,3.6c0.2,0.6,0.6,1.1,1,1.6l0.1,0.1c1.4,1.4,3.5,1.9,5.4,1.3h0.1
	l3.2-1.3c0.8-0.1,1.6,0.2,2,0.9l1.1,2.7c0.2,0.8-0.1,1.6-0.8,2l-3.2,1.3c-0.1,0-0.2,0.1-0.3,0.2c-0.5,0.3-0.9,0.7-1.3,1.1
	c-0.4,0.4-0.7,0.9-0.9,1.5c-0.7,1.7-0.5,3.5,0.5,5l0.1,0.1l0.1,0.1c0.5,0.6,1.1,1.1,1.8,1.5l0.2,0.1l3.2,1.3
	C129.6,50.2,130,51,129.9,51.9z M109.9,35L109.9,35c-4.9-2-10.5,0.4-12.4,5.3s0.4,10.5,5.3,12.4c1.1,0.5,2.4,0.7,3.6,0.7
	c5.3,0,9.5-4.3,9.5-9.6C115.8,39.9,113.5,36.4,109.9,35z M111.4,45.9c-1.2,2.8-4.5,4.1-7.3,2.9c-2.7-1.2-4-4.3-3-7.1
	c0.8-2.1,2.9-3.5,5.2-3.5c0.7,0,1.4,0.1,2.1,0.4C111.2,39.8,112.6,43,111.4,45.9L111.4,45.9L111.4,45.9z"/>
<path class="st1" d="M53.8,232.8c-6.9,0-12.5,5.6-12.5,12.5c0,6.9,5.6,12.5,12.5,12.5s12.5-5.6,12.5-12.5l0,0
	C66.3,238.4,60.7,232.8,53.8,232.8z M53.8,253.8c-4.7,0-8.5-3.8-8.5-8.5s3.8-8.5,8.5-8.5s8.5,3.8,8.5,8.5l0,0
	C62.3,250,58.5,253.8,53.8,253.8L53.8,253.8z M86.4,236.4h-0.3h-4.8c-0.4-0.1-0.7-0.2-1-0.3l-0.2-0.1c-0.7-0.5-1.1-1.3-1.1-2.1
	c0-0.3,0.1-0.5,0.1-0.8c0.1-0.3,0.2-0.5,0.4-0.8l3.4-3.4l0.2-0.2c2.1-2.7,2-6.5-0.1-9.1l-0.1-0.2l-3.1-3.1l-0.2-0.2
	c-2.7-2.1-6.4-2.2-9.1-0.1l-0.2,0.1l-3.5,3.5c-0.8,0.6-1.8,0.7-2.6,0.3c-0.3-0.1-0.5-0.3-0.8-0.5c-0.4-0.4-0.6-0.9-0.7-1.4v-4.9
	c0-0.1,0-0.2,0-0.3c-0.5-3.4-3.2-6-6.6-6.4h-4.8c-3.4,0.3-6.1,3-6.6,6.4c0,0.1,0,0.2,0,0.3v4.9v0.1v0.1v0.2v0.1l0,0
	c-0.1,0.1-0.1,0.2-0.1,0.3v0.1c-0.2,0.3-0.4,0.5-0.6,0.8c-0.9,0.8-2.2,0.8-3.2,0.1l-3.5-3.4l-0.2-0.2c-2.7-2.1-6.5-2-9.1,0.1
	l-0.2,0.2l-3,3.1l-0.1,0.2c-2.1,2.7-2.2,6.4-0.1,9.1c0.1,0.1,0.1,0.2,0.2,0.2l3.4,3.3v-0.2l0,0c0,0.1,0.1,0.2,0.2,0.2l0,0l0,0
	l0.1,0.2c0,0.1,0.1,0.2,0.1,0.2l0.1,0.1l0,0v0.1c0,0.1,0,0.2,0,0.3c0.1,0.8-0.1,1.7-0.8,2.3c-0.4,0.4-0.9,0.6-1.4,0.7h-4.9h-0.2
	c-3.4,0.4-6,3.1-6.4,6.5c0,0.1,0,0.2,0,0.2v4.3c0,0.1,0,0.2,0,0.2c0.4,3.4,3,6.1,6.4,6.6h0.3h4.9h0.2h0.1H27
	c1.4,0.4,2.1,1.8,1.7,3.2c-0.1,0.3-0.2,0.6-0.4,0.8l-2.4,2.4l-1.1,1c-0.1,0.1-0.1,0.2-0.2,0.2c-2.1,2.7-2,6.5,0.1,9.1l0.1,0.1l3,3.1
	l0.2,0.2c2.7,2.1,6.4,2.1,9.1,0.1l0.2-0.2l3.4-3.4l0.2-0.1l0.2-0.1l0,0c0.1,0,0.2-0.1,0.4-0.2l0.3-0.1H42h0.4c0.7,0,1.4,0.2,1.9,0.7
	c0.4,0.4,0.6,0.9,0.7,1.5v4.9c0,0.1,0,0.2,0,0.3c0.4,3.4,3.1,6,6.5,6.4h4.8c3.4-0.4,6.1-3,6.5-6.4c0-0.1,0-0.2,0-0.3v-4.9
	c0.1-0.4,0.2-0.8,0.5-1.2c0.1-0.1,0.2-0.2,0.3-0.3s0.2-0.2,0.3-0.3H64l0.3-0.2h0.1h0.1l0.3-0.1l0,0c0.2-0.1,0.5-0.1,0.7-0.1h0.3
	c0.4,0,0.7,0.2,1,0.3l0.2,0.1l3.4,3.4l0.2,0.2c2.7,2,6.4,2,9.1-0.1l0.2-0.2l3.2-3.2l0.1-0.1c2.1-2.6,2.2-6.4,0.1-9.1
	c-0.1-0.1-0.1-0.2-0.2-0.2l-3.4-3.4c-0.8-1-0.7-2.5,0.2-3.4c0.2-0.2,0.5-0.4,0.8-0.5l0.2-0.1c0.1-0.1,0.3-0.1,0.4-0.1h4.9h0.3
	c3.4-0.5,6-3.1,6.4-6.5c0-0.1,0-0.2,0-0.2v-4.3c0-0.1,0-0.2,0-0.2C92.4,239.5,89.7,236.8,86.4,236.4z M88.7,247.3
	c-0.2,1.5-1.4,2.7-2.8,2.9H81h-0.3c-0.6,0.1-1.2,0.2-1.7,0.5c-0.8,0.3-1.6,0.8-2.2,1.4c-2.4,2.4-2.6,6.2-0.4,8.8l0.1,0.1l3.4,3.4
	c0.8,1.2,0.8,2.8-0.1,4l-2.9,2.9c-1.2,0.8-2.8,0.8-4,0l-3.4-3.4l-0.2-0.2l-0.5-0.4l-0.1-0.1c-0.9-0.5-1.9-0.9-2.9-0.9h-0.6
	c-0.6,0-1.2,0.1-1.8,0.2l-0.2,0.1l-0.5,0.2l-0.2,0.1c-0.1,0-0.2,0.1-0.3,0.2l-0.1,0.1l-0.1,0.1l0,0l-0.2,0.1c-0.5,0.3-1,0.7-1.4,1.1
	l-0.2,0.2c-0.1,0.1-0.2,0.2-0.2,0.2c-0.7,1-1.2,2.1-1.3,3.4c0,0.1,0,0.1,0,0.2v4.8c-0.2,1.5-1.4,2.6-2.9,2.9h-4.1
	c-1.5-0.2-2.6-1.4-2.9-2.8v-4.9c0-0.1,0-0.2,0-0.3c-0.2-1.5-0.8-2.8-1.9-3.9c-1.4-1.4-3.2-2-5.1-1.9h-0.2l0,0c-0.1,0-0.3,0-0.4,0
	l-0.3,0.1h0c-0.2,0-0.3,0.1-0.5,0.1l-0.2,0.1h-0.1l-0.3,0.1c-0.1,0-0.2,0.1-0.3,0.1l-0.2,0.1c-0.1,0.1-0.3,0.1-0.4,0.2l-0.2,0.1
	l-0.2,0.2h-0.1c-0.1,0.1-0.2,0.1-0.3,0.2l-0.1,0.1l-3.4,3.4c-1.2,0.9-2.8,0.9-4,0l-2.9-2.9c-0.9-1.2-0.9-2.8-0.1-4l3.5-3.5l0.2-0.2
	c2.3-2.9,1.8-7-1.1-9.2c-0.6-0.5-1.3-0.9-2.1-1.1c-0.2-0.1-0.4-0.1-0.6-0.2h-0.3c-0.2-0.1-0.5-0.1-0.7-0.1h-4.9
	c-1.4-0.3-2.6-1.4-2.8-2.8v-4c0.2-1.5,1.3-2.6,2.8-2.9h5.1c3.6-0.4,6.2-3.7,5.8-7.3c0-0.1,0-0.2,0-0.3v-0.1c0-0.2-0.1-0.4-0.1-0.6
	v0.1c0-0.1-0.1-0.2-0.1-0.3c0-0.1-0.1-0.2-0.1-0.3l0,0c0,0,0-0.1-0.1-0.2c0-0.1,0-0.1-0.1-0.2c0-0.1,0-0.1-0.1-0.2
	c0-0.1-0.1-0.1-0.1-0.2c0-0.1-0.1-0.2-0.2-0.3c-0.1-0.1-0.1-0.2-0.2-0.3l-0.1-0.2l-0.1-0.1c-0.1-0.1-0.2-0.3-0.3-0.4l-3.4-3.4
	c-0.8-1.2-0.8-2.8,0.1-4l2.9-2.9c1.2-0.9,2.8-0.9,4,0l3.5,3.4l0.1,0.1c1.2,0.9,2.6,1.4,4.1,1.4c1.6,0,3.1-0.5,4.2-1.6
	c0.6-0.5,1.1-1.1,1.5-1.8c0.1-0.1,0.1-0.2,0.1-0.2c0.1-0.2,0.2-0.4,0.2-0.5c0-0.1,0.1-0.2,0.2-0.4c0-0.1,0.1-0.2,0.1-0.3
	c0.1-0.2,0.1-0.4,0.1-0.6s0.1-0.3,0.1-0.5s0-0.1,0-0.2v-4.7c0.3-1.5,1.4-2.6,2.9-2.8h4.1c1.5,0.2,2.6,1.4,2.9,2.8v4.9
	c0,0.1,0,0.1,0,0.2c0.2,1.5,0.8,2.9,1.9,3.9c0.6,0.6,1.3,1,2,1.4c2.3,1,4.8,0.6,6.8-0.9l0.2-0.1l3.4-3.4c1.2-0.9,2.8-0.9,4,0
	l2.9,2.9c0.9,1.2,0.9,2.8,0.1,4l-3.5,3.4l-0.2,0.2c-0.5,0.6-0.8,1.3-1.1,2c-0.2,0.7-0.3,1.4-0.4,2.1c0,2.2,1.1,4.3,2.9,5.5l0.3,0.2
	c0.8,0.5,1.7,0.9,2.7,1h0.3h4.8c1.5,0.2,2.6,1.4,2.8,2.8v4H88.7z M129.9,196.2l-0.3-0.1l-3.2-1.3c-0.1-0.1-0.3-0.2-0.3-0.3l-0.1-0.2
	c-0.2-0.4-0.2-0.8-0.1-1.2c0-0.1,0.1-0.2,0.2-0.3l0.1-0.1c0.1-0.1,0.2-0.2,0.3-0.3l3.2-1.3l0.2-0.1c2.4-1.4,3.5-4.2,2.7-6.8
	l-0.1-0.2l-1.2-2.9c0-0.1-0.1-0.2-0.1-0.2c-1.4-2.3-4.1-3.5-6.7-2.8l-0.2,0.1l-3.3,1.4c-0.4,0.1-0.9,0-1.2-0.4
	c-0.1-0.1-0.2-0.2-0.3-0.4c-0.1-0.3-0.1-0.5-0.1-0.8l1.3-3.3c0-0.1,0.1-0.2,0.1-0.3c0.7-2.6-0.5-5.4-2.9-6.7l-0.2-0.1l-2.9-1.2
	l-0.2-0.1c-2.6-0.7-5.4,0.4-6.8,2.7c0,0.1-0.1,0.2-0.1,0.2l-1.3,3.3l0,0l0,0v0.1l-0.1,0.1l-0.1,0.1c-0.1,0.1-0.2,0.1-0.4,0.2
	c-0.3,0.1-0.7,0.1-1,0c-0.3-0.1-0.5-0.3-0.6-0.5l-1.3-3.2c0-0.1-0.1-0.2-0.1-0.2c-1.4-2.3-4.2-3.4-6.8-2.7l-0.2,0.1l-2.9,1.2
	l-0.2,0.1c-2.4,1.3-3.5,4.1-2.8,6.7c0,0.1,0,0.2,0.1,0.2l1.4,3.4v0.1c0,0,0,0.1,0,0.2s0,0.1,0,0.2v0.1l0,0v0.1
	c-0.1,0.4-0.4,0.7-0.8,0.9c-0.2,0.1-0.5,0.1-0.7,0.1l-3.2-1.3l-0.3-0.1c-2.6-0.7-5.4,0.5-6.7,2.9l-0.1,0.2l-1.2,2.9
	c0,0.1-0.1,0.1-0.1,0.2c-0.7,2.6,0.4,5.4,2.7,6.8l0.2,0.1l3.2,1.3l0,0h0.1l0,0c0.4,0.3,0.6,0.9,0.5,1.5l-0.1,0.1
	c-0.1,0.2-0.3,0.4-0.5,0.6l-3.2,1.5l-0.2,0.1c-2.3,1.4-3.4,4.2-2.7,6.8c0,0.1,0,0.1,0.1,0.2l1.2,2.9c0,0.1,0.1,0.1,0.1,0.2
	c1.4,2.3,4.1,3.5,6.7,2.8l0.3-0.1l3.1-1.3H90l0,0h0.2h0.1h0.2h0.1l0,0c0.7,0.2,1,0.9,0.9,1.6l-1.3,3.3c0,0.1-0.1,0.1-0.1,0.2
	c-0.7,2.6,0.5,5.4,2.9,6.7l0.2,0.1l2.9,1.2l0.2,0.1c2.6,0.7,5.4-0.4,6.8-2.8c0-0.1,0.1-0.2,0.1-0.3l1.3-3.2c0.1-0.2,0.3-0.3,0.5-0.4
	l0,0h0.1h0.1l0,0h0.3h0.3c0.1,0,0.2,0,0.3,0.1l0.2,0.1c0.1,0.1,0.3,0.2,0.4,0.4l0.1,0.1l1.1,2.9c0,0.1,0.1,0.2,0.1,0.2
	c1.4,2.3,4.2,3.4,6.8,2.7l0.2-0.1l2.9-1.3l0.2-0.1c2.4-1.3,3.6-4.1,2.9-6.7c0-0.1-0.1-0.2-0.1-0.3l-1.1-2.6l-0.2-0.6
	c-0.2-0.6,0.2-1.3,0.8-1.6c0.2-0.1,0.3-0.1,0.5-0.1h0.2l2.3,0.9l1,0.4l0.3,0.1c2.6,0.7,5.4-0.5,6.7-2.9c0-0.1,0.1-0.1,0.1-0.2l1.2-3
	c0-0.1,0-0.1,0.1-0.2C133.4,200.4,132.3,197.6,129.9,196.2z M104.9,214.4L104.9,214.4z M128.9,201.9l-1.1,2.7c-0.4,0.7-1.2,1-2,0.9
	l-3.3-1.3c-0.5-0.2-1-0.3-1.6-0.3c-0.7,0-1.4,0.1-2.1,0.4c-2.5,1.1-3.8,3.9-3,6.5l0.1,0.2l1.4,3.2c0.2,0.8-0.2,1.6-0.9,2l-2.8,1.1
	c-0.8,0.2-1.6-0.1-2.1-0.8l-1.4-3.2c0-0.1-0.1-0.2-0.1-0.3c-0.1-0.2-0.2-0.3-0.4-0.5c-0.5-0.7-1.1-1.2-1.8-1.6l-0.2-0.1l-0.2-0.1
	h-0.1c-0.4-0.2-0.9-0.3-1.3-0.3c-0.3,0-0.6,0-0.9,0h-0.2l0,0c-0.1,0-0.3,0-0.4,0c-0.4,0.1-0.9,0.2-1.3,0.4c-0.1,0.1-0.3,0.1-0.4,0.2
	l0,0h-0.1c-0.8,0.5-1.5,1.2-2,2c-0.1,0.1-0.1,0.2-0.1,0.3l-1.3,3.1c-0.5,0.7-1.3,1-2.1,0.8l-2.7-1.1c-0.7-0.4-1-1.2-0.9-2l1.3-3.3
	c0-0.1,0.1-0.1,0.1-0.2c0.7-2.7-0.7-5.5-3.3-6.4h-0.5H91c-0.1,0-0.3-0.1-0.4-0.1h-0.1c-0.2,0-0.3,0-0.5,0h-0.4c-0.2,0-0.3,0-0.5,0
	h-0.2h0c-0.1,0-0.3,0-0.4,0.1l-0.2,0.1h-0.1l-3.2,1.3c-0.8,0.1-1.6-0.2-2-0.9l-1.1-2.7c-0.2-0.8,0.1-1.6,0.8-2.1l3.2-1.4l0.1-0.1
	c1-0.5,1.8-1.4,2.2-2.4c0-0.1,0.1-0.2,0.1-0.2c0.9-2.1,0.3-4.6-1.5-6.1c-0.1-0.1-0.2-0.2-0.3-0.2l0,0c-0.1-0.1-0.2-0.1-0.3-0.2
	l-0.1-0.1c-0.1-0.1-0.3-0.2-0.4-0.2l-2.4-0.9l-0.9-0.4c-0.7-0.5-1-1.3-0.8-2.1l1.1-2.7c0.4-0.7,1.2-1,2-0.9l3.3,1.3l0.2,0.1
	c1.2,0.3,2.4,0.3,3.5-0.2c1.6-0.6,2.7-2,3.1-3.6v-0.1c0.1-0.2,0.1-0.4,0.1-0.6c0,0,0-0.1,0-0.2c0-0.1,0-0.3,0-0.4s0-0.2,0-0.4
	c0-0.1,0-0.1,0-0.2c0-0.2,0-0.3-0.1-0.5l0,0c0-0.2-0.1-0.4-0.2-0.6l-1.3-3.1c-0.1-0.8,0.2-1.6,0.9-2l2.7-1.1
	c0.8-0.2,1.6,0.1,2.1,0.8l1.4,3.3c0,0.1,0.1,0.1,0.1,0.2c1.3,2.2,3.9,3.2,6.3,2.4c0.7-0.2,1.3-0.5,1.8-1l0.1-0.1l0.2-0.2l0.1-0.1
	l0.1-0.1l0.1-0.1l0.2-0.2c0.1-0.1,0.2-0.2,0.2-0.3c0.1-0.1,0.2-0.3,0.2-0.5l1.3-3.3c0.4-0.7,1.2-1,2-0.8l2.7,1.1
	c0.7,0.4,1,1.2,0.9,2l-1.3,3.2l-0.1,0.2c-0.3,1.2-0.3,2.5,0.2,3.6c0.2,0.6,0.6,1.1,1,1.6l0.1,0.1c1.4,1.4,3.5,1.9,5.4,1.3h0.1
	l3.2-1.3c0.8-0.1,1.6,0.2,2,0.9l1.1,2.7c0.2,0.8-0.1,1.6-0.8,2l-3.2,1.3c-0.1,0-0.2,0.1-0.3,0.2c-0.5,0.3-0.9,0.7-1.3,1.1
	c-0.4,0.4-0.7,0.9-0.9,1.5c-0.7,1.7-0.5,3.5,0.5,5l0.1,0.1l0.1,0.1c0.5,0.6,1.1,1.1,1.8,1.5l0.1,0.1l3.2,1.3
	C128.6,200.2,129,201,128.9,201.9z M108.9,185L108.9,185c-4.9-2-10.5,0.4-12.4,5.3c-1.9,4.9,0.4,10.5,5.3,12.4
	c1.1,0.5,2.4,0.7,3.6,0.7c5.3,0,9.5-4.3,9.5-9.6C114.8,189.9,112.5,186.4,108.9,185z M110.4,195.9c-1.2,2.8-4.5,4.1-7.3,2.9
	c-2.7-1.2-4-4.3-3-7.1c0.8-2.1,2.9-3.5,5.2-3.5c0.7,0,1.4,0.1,2.1,0.4C110.2,189.8,111.6,193,110.4,195.9L110.4,195.9L110.4,195.9z"
	/>
<path class="st1" d="M54.8,382.8c-6.9,0-12.5,5.6-12.5,12.5c0,6.9,5.6,12.5,12.5,12.5s12.5-5.6,12.5-12.5l0,0
	C67.3,388.4,61.7,382.8,54.8,382.8z M54.8,403.8c-4.7,0-8.5-3.8-8.5-8.5c0-4.7,3.8-8.5,8.5-8.5s8.5,3.8,8.5,8.5l0,0
	C63.3,400,59.5,403.8,54.8,403.8L54.8,403.8z M87.4,386.4h-0.3h-4.8c-0.4-0.1-0.7-0.2-1-0.3l-0.2-0.1c-0.7-0.5-1.1-1.3-1.1-2.1
	c0-0.3,0.1-0.5,0.1-0.8c0.1-0.3,0.2-0.5,0.4-0.8l3.4-3.4l0.2-0.2c2.1-2.7,2-6.5-0.1-9.1l-0.1-0.2l-3.1-3.1l-0.2-0.2
	c-2.7-2.1-6.4-2.2-9.1-0.1l-0.2,0.1l-3.5,3.5c-0.8,0.6-1.8,0.7-2.6,0.3c-0.3-0.1-0.5-0.3-0.8-0.5c-0.4-0.4-0.6-0.9-0.7-1.4v-4.9
	c0-0.1,0-0.2,0-0.3c-0.5-3.4-3.2-6-6.6-6.4h-4.8c-3.4,0.3-6.1,3-6.6,6.4c0,0.1,0,0.2,0,0.3v4.9v0.1v0.1v0.2v0.1l0,0
	c-0.1,0.1-0.1,0.2-0.1,0.3v0.1c-0.2,0.3-0.4,0.5-0.6,0.8c-0.9,0.8-2.2,0.8-3.2,0.1l-3.5-3.4l-0.2-0.2c-2.7-2.1-6.5-2-9.1,0.1
	l-0.2,0.2l-3,3.1l-0.1,0.2c-2.1,2.7-2.2,6.4-0.1,9.1c0.1,0.1,0.1,0.2,0.2,0.2l3.4,3.3v-0.2l0,0c0,0.1,0.1,0.2,0.2,0.2l0,0l0,0
	l0.1,0.2c0,0.1,0.1,0.2,0.1,0.2l0.1,0.1l0,0v0.1c0,0.1,0,0.2,0,0.3c0.1,0.8-0.1,1.7-0.8,2.3c-0.4,0.4-0.9,0.6-1.4,0.7h-4.9h-0.2
	c-3.4,0.4-6,3.1-6.4,6.5c0,0.1,0,0.2,0,0.2v4.3c0,0.1,0,0.2,0,0.2c0.4,3.4,3,6.1,6.4,6.6h0.3h4.9h0.2h0.1H28
	c1.4,0.4,2.1,1.8,1.7,3.2c-0.1,0.3-0.2,0.6-0.4,0.8l-2.4,2.4l-1.1,1c-0.1,0.1-0.1,0.2-0.2,0.2c-2.1,2.7-2,6.5,0.1,9.1l0.1,0.1l3,3.1
	l0.2,0.2c2.7,2.1,6.4,2.1,9.1,0.1l0.2-0.2l3.4-3.4l0.2-0.1l0.2-0.1l0,0c0.1,0,0.2-0.1,0.4-0.2l0.3-0.1H43h0.4c0.7,0,1.4,0.2,1.9,0.7
	c0.4,0.4,0.6,0.9,0.7,1.5v4.9c0,0.1,0,0.2,0,0.3c0.4,3.4,3.1,6,6.5,6.4h4.8c3.4-0.4,6.1-3,6.5-6.4c0-0.1,0-0.2,0-0.3v-4.9
	c0.1-0.4,0.2-0.8,0.5-1.2c0.1-0.1,0.2-0.2,0.3-0.3s0.2-0.2,0.3-0.3H65l0.3-0.2h0.1h0.1l0.3-0.1l0,0c0.2-0.1,0.5-0.1,0.7-0.1h0.3
	c0.4,0,0.7,0.2,1,0.3l0.2,0.1l3.4,3.4l0.2,0.2c2.7,2,6.4,2,9.1-0.1l0.2-0.2l3.2-3.2l0.1-0.1c2.1-2.6,2.2-6.4,0.1-9.1
	c-0.1-0.1-0.1-0.2-0.2-0.2l-3.4-3.4c-0.8-1-0.7-2.5,0.2-3.4c0.2-0.2,0.5-0.4,0.8-0.5l0.2-0.1c0.1-0.1,0.3-0.1,0.4-0.1h4.9h0.3
	c3.4-0.5,6-3.1,6.4-6.5c0-0.1,0-0.2,0-0.2v-4.3c0-0.1,0-0.2,0-0.2C93.4,389.5,90.7,386.8,87.4,386.4z M89.7,397.3
	c-0.2,1.5-1.4,2.7-2.8,2.9H82h-0.3c-0.6,0.1-1.2,0.2-1.7,0.5c-0.8,0.3-1.6,0.8-2.2,1.4c-2.4,2.4-2.6,6.2-0.4,8.8l0.1,0.1l3.4,3.4
	c0.8,1.2,0.8,2.8-0.1,4l-2.9,2.9c-1.2,0.8-2.8,0.8-4,0l-3.4-3.4l-0.2-0.2l-0.5-0.4l-0.1-0.1c-0.9-0.5-1.9-0.9-2.9-0.9h-0.6
	c-0.6,0-1.2,0.1-1.8,0.2l-0.2,0.1l-0.5,0.2l-0.2,0.1c-0.1,0-0.2,0.1-0.3,0.2l-0.1,0.1l-0.1,0.1l0,0l-0.2,0.1c-0.5,0.3-1,0.7-1.4,1.1
	l-0.2,0.2c-0.1,0.1-0.2,0.2-0.2,0.2c-0.7,1-1.2,2.1-1.3,3.4c0,0.1,0,0.1,0,0.2v4.8c-0.2,1.5-1.4,2.6-2.9,2.9h-4.1
	c-1.5-0.2-2.6-1.4-2.9-2.8v-4.9c0-0.1,0-0.2,0-0.3c-0.2-1.5-0.8-2.8-1.9-3.9c-1.4-1.4-3.2-2-5.1-1.9h-0.2l0,0c-0.1,0-0.3,0-0.4,0
	l-0.3,0.1h0c-0.2,0-0.3,0.1-0.5,0.1l-0.2,0.1h-0.1l-0.3,0.1c-0.1,0-0.2,0.1-0.3,0.1l-0.2,0.1c-0.1,0.1-0.3,0.1-0.4,0.2l-0.2,0.1
	l-0.2,0.2h-0.1c-0.1,0.1-0.2,0.1-0.3,0.2l-0.1,0.1l-3.4,3.4c-1.2,0.9-2.8,0.9-4,0l-2.9-2.9c-0.9-1.2-0.9-2.8-0.1-4l3.5-3.5l0.2-0.2
	c2.3-2.9,1.8-7-1.1-9.2c-0.6-0.5-1.3-0.9-2.1-1.1c-0.2-0.1-0.4-0.1-0.6-0.2h-0.3c-0.2-0.1-0.5-0.1-0.7-0.1h-4.9
	c-1.4-0.3-2.6-1.4-2.8-2.8v-4c0.2-1.5,1.3-2.6,2.8-2.9h5.1c3.6-0.4,6.2-3.7,5.8-7.3c0-0.1,0-0.2,0-0.3v-0.1c0-0.2-0.1-0.4-0.1-0.6
	v0.1c0-0.1-0.1-0.2-0.1-0.3s-0.1-0.2-0.1-0.3l0,0c0,0,0-0.1-0.1-0.2c0-0.1,0-0.1-0.1-0.2c0-0.1,0-0.1-0.1-0.2c0-0.1-0.1-0.1-0.1-0.2
	c0-0.1-0.1-0.2-0.2-0.3c-0.1-0.1-0.1-0.2-0.2-0.3l-0.1-0.2l-0.1-0.1c-0.1-0.1-0.2-0.3-0.3-0.4l-3.4-3.4c-0.8-1.2-0.8-2.8,0.1-4
	l2.9-2.9c1.2-0.9,2.8-0.9,4,0l3.5,3.4l0.1,0.1c1.2,0.9,2.6,1.4,4.1,1.4c1.6,0,3.1-0.5,4.2-1.6c0.6-0.5,1.1-1.1,1.5-1.8
	c0.1-0.1,0.1-0.2,0.1-0.2c0.1-0.2,0.2-0.4,0.2-0.5s0.1-0.2,0.2-0.4c0-0.1,0.1-0.2,0.1-0.3c0.1-0.2,0.1-0.4,0.1-0.6
	c0-0.2,0.1-0.3,0.1-0.5c0-0.2,0-0.1,0-0.2v-4.7c0.3-1.5,1.4-2.6,2.9-2.8h4.1c1.5,0.2,2.6,1.4,2.9,2.8v4.9c0,0.1,0,0.1,0,0.2
	c0.2,1.5,0.8,2.9,1.9,3.9c0.6,0.6,1.3,1,2,1.4c2.3,1,4.8,0.6,6.8-0.9l0.2-0.1l3.4-3.4c1.2-0.9,2.8-0.9,4,0l2.9,2.9
	c0.9,1.2,0.9,2.8,0.1,4l-3.5,3.4l-0.2,0.2c-0.5,0.6-0.8,1.3-1.1,2c-0.2,0.7-0.3,1.4-0.4,2.1c0,2.2,1.1,4.3,2.9,5.5l0.3,0.2
	c0.8,0.5,1.7,0.9,2.7,1h0.3h4.8c1.5,0.2,2.6,1.4,2.8,2.8v4H89.7z M130.9,346.2l-0.3-0.1l-3.2-1.3c-0.1-0.1-0.3-0.2-0.3-0.3l-0.1-0.2
	c-0.2-0.4-0.2-0.8-0.1-1.2c0-0.1,0.1-0.2,0.2-0.3l0.1-0.1c0.1-0.1,0.2-0.2,0.3-0.3l3.2-1.3l0.2-0.1c2.4-1.4,3.5-4.2,2.7-6.8
	l-0.1-0.2l-1.2-2.9c0-0.1-0.1-0.2-0.1-0.2c-1.4-2.3-4.1-3.5-6.7-2.8l-0.2,0.1l-3.3,1.4c-0.4,0.1-0.9,0-1.2-0.4
	c-0.1-0.1-0.2-0.2-0.3-0.4c-0.1-0.3-0.1-0.5-0.1-0.8l1.3-3.3c0-0.1,0.1-0.2,0.1-0.3c0.7-2.6-0.5-5.4-2.9-6.7l-0.2-0.1l-2.9-1.2
	l-0.2-0.1c-2.6-0.7-5.4,0.4-6.8,2.7c0,0.1-0.1,0.2-0.1,0.2l-1.3,3.3l0,0l0,0v0.1l-0.1,0.1l-0.1,0.1c-0.1,0.1-0.2,0.1-0.4,0.2
	c-0.3,0.1-0.7,0.1-1,0c-0.3-0.1-0.5-0.3-0.6-0.5l-1.3-3.2c0-0.1-0.1-0.2-0.1-0.2c-1.4-2.3-4.2-3.4-6.8-2.7l-0.2,0.1l-2.9,1.2
	l-0.2,0.1c-2.4,1.3-3.5,4.1-2.8,6.7c0,0.1,0,0.2,0.1,0.2l1.4,3.4v0.1c0,0,0,0.1,0,0.2c0,0.1,0,0.1,0,0.2v0.1l0,0v0.1
	c-0.1,0.4-0.4,0.7-0.8,0.9c-0.2,0.1-0.5,0.1-0.7,0.1l-3.2-1.3l-0.3-0.1c-2.6-0.7-5.4,0.5-6.7,2.9l-0.1,0.2l-1.2,2.9
	c0,0.1-0.1,0.1-0.1,0.2c-0.7,2.6,0.4,5.4,2.7,6.8l0.2,0.1l3.2,1.3l0,0h0.1l0,0c0.4,0.3,0.6,0.9,0.5,1.5l-0.1,0.1
	c-0.1,0.2-0.3,0.4-0.5,0.6l-3.2,1.5l-0.2,0.1c-2.3,1.4-3.4,4.2-2.7,6.8c0,0.1,0,0.1,0.1,0.2l1.2,2.9c0,0.1,0.1,0.1,0.1,0.2
	c1.4,2.3,4.1,3.5,6.7,2.8l0.3-0.1l3.1-1.3H91l0,0h0.2h0.1h0.2h0.1l0,0c0.7,0.2,1,0.9,0.9,1.6l-1.3,3.3c0,0.1-0.1,0.1-0.1,0.2
	c-0.7,2.6,0.5,5.4,2.9,6.7l0.2,0.1l2.9,1.2l0.2,0.1c2.6,0.7,5.4-0.4,6.8-2.8c0-0.1,0.1-0.2,0.1-0.3l1.3-3.2c0.1-0.2,0.3-0.3,0.5-0.4
	l0,0h0.1h0.1l0,0h0.3h0.3c0.1,0,0.2,0,0.3,0.1l0.2,0.1c0.1,0.1,0.3,0.2,0.4,0.4l0.1,0.1l1.1,2.9c0,0.1,0.1,0.2,0.1,0.2
	c1.4,2.3,4.2,3.4,6.8,2.7l0.2-0.1l2.9-1.3l0.2-0.1c2.4-1.3,3.6-4.1,2.9-6.7c0-0.1-0.1-0.2-0.1-0.3l-1.1-2.6l-0.2-0.6
	c-0.2-0.6,0.2-1.3,0.8-1.6c0.2-0.1,0.3-0.1,0.5-0.1h0.2l2.3,0.9l1,0.4l0.3,0.1c2.6,0.7,5.4-0.5,6.7-2.9c0-0.1,0.1-0.1,0.1-0.2l1.2-3
	c0-0.1,0-0.1,0.1-0.2C134.4,350.4,133.3,347.6,130.9,346.2z M105.9,364.4L105.9,364.4z M129.9,351.9l-1.1,2.7c-0.4,0.7-1.2,1-2,0.9
	l-3.3-1.3c-0.5-0.2-1-0.3-1.6-0.3c-0.7,0-1.4,0.1-2.1,0.4c-2.5,1.1-3.8,3.9-3,6.5l0.1,0.2l1.4,3.2c0.2,0.8-0.2,1.6-0.9,2l-2.8,1.1
	c-0.8,0.2-1.6-0.1-2.1-0.8l-1.4-3.2c0-0.1-0.1-0.2-0.1-0.3c-0.1-0.2-0.2-0.3-0.4-0.5c-0.5-0.7-1.1-1.2-1.8-1.6l-0.2-0.1l-0.2-0.1
	h-0.1c-0.4-0.2-0.9-0.3-1.3-0.3c-0.3,0-0.6,0-0.9,0h-0.2l0,0c-0.1,0-0.3,0-0.4,0c-0.4,0.1-0.9,0.2-1.3,0.4c-0.1,0.1-0.3,0.1-0.4,0.2
	l0,0h-0.1c-0.8,0.5-1.5,1.2-2,2c-0.1,0.1-0.1,0.2-0.1,0.3l-1.3,3.1c-0.5,0.7-1.3,1-2.1,0.8l-2.7-1.1c-0.7-0.4-1-1.2-0.9-2l1.3-3.3
	c0-0.1,0.1-0.1,0.1-0.2c0.7-2.7-0.7-5.5-3.3-6.4h-0.5H92c-0.1,0-0.3-0.1-0.4-0.1h-0.1c-0.2,0-0.3,0-0.5,0h-0.4c-0.2,0-0.3,0-0.5,0
	h-0.2h0c-0.1,0-0.3,0-0.4,0.1l-0.2,0.1h-0.1l-3.2,1.3c-0.8,0.1-1.6-0.2-2-0.9l-1.1-2.7c-0.2-0.8,0.1-1.6,0.8-2.1l3.2-1.4l0.1-0.1
	c1-0.5,1.8-1.4,2.2-2.4c0-0.1,0.1-0.2,0.1-0.2c0.9-2.1,0.3-4.6-1.5-6.1c-0.1-0.1-0.2-0.2-0.3-0.2l0,0c-0.1-0.1-0.2-0.1-0.3-0.2
	l-0.1-0.1c-0.1-0.1-0.3-0.2-0.4-0.2l-2.4-0.9l-0.9-0.4c-0.7-0.5-1-1.3-0.8-2.1l1.1-2.7c0.4-0.7,1.2-1,2-0.9l3.3,1.3l0.2,0.1
	c1.2,0.3,2.4,0.3,3.5-0.2c1.6-0.6,2.7-2,3.1-3.6v-0.1c0.1-0.2,0.1-0.4,0.1-0.6c0,0,0-0.1,0-0.2s0-0.3,0-0.4c0-0.1,0-0.2,0-0.4
	c0-0.1,0-0.1,0-0.2c0-0.2,0-0.3-0.1-0.5l0,0c0-0.2-0.1-0.4-0.2-0.6l-1.3-3.1c-0.1-0.8,0.2-1.6,0.9-2l2.7-1.1
	c0.8-0.2,1.6,0.1,2.1,0.8l1.4,3.3c0,0.1,0.1,0.1,0.1,0.2c1.3,2.2,3.9,3.2,6.3,2.4c0.7-0.2,1.3-0.5,1.8-1l0.1-0.1l0.2-0.2l0.1-0.1
	l0.1-0.1l0.1-0.1l0.2-0.2c0.1-0.1,0.2-0.2,0.2-0.3c0.1-0.1,0.2-0.3,0.2-0.5l1.3-3.3c0.4-0.7,1.2-1,2-0.8l2.7,1.1
	c0.7,0.4,1,1.2,0.9,2l-1.3,3.2l-0.1,0.2c-0.3,1.2-0.3,2.5,0.2,3.6c0.2,0.6,0.6,1.1,1,1.6l0.1,0.1c1.4,1.4,3.5,1.9,5.4,1.3h0.1
	l3.2-1.3c0.8-0.1,1.6,0.2,2,0.9l1.1,2.7c0.2,0.8-0.1,1.6-0.8,2l-3.2,1.3c-0.1,0-0.2,0.1-0.3,0.2c-0.5,0.3-0.9,0.7-1.3,1.1
	s-0.7,0.9-0.9,1.5c-0.7,1.7-0.5,3.5,0.5,5l0.1,0.1l0.1,0.1c0.5,0.6,1.1,1.1,1.8,1.5l0.1,0.1l3.2,1.3
	C129.6,350.2,130,351,129.9,351.9z M109.9,335L109.9,335c-4.9-2-10.5,0.4-12.4,5.3s0.4,10.5,5.3,12.4c1.1,0.5,2.4,0.7,3.6,0.7
	c5.3,0,9.5-4.3,9.5-9.6C115.8,339.9,113.5,336.4,109.9,335z M111.4,345.9c-1.2,2.8-4.5,4.1-7.3,2.9c-2.7-1.2-4-4.3-3-7.1
	c0.8-2.1,2.9-3.5,5.2-3.5c0.7,0,1.4,0.1,2.1,0.4C111.2,339.8,112.6,343,111.4,345.9L111.4,345.9L111.4,345.9z"/>
</svg>
