<?xml version="1.0" encoding="utf-8"?>
<!-- Generator: Adobe Illustrator 22.1.0, SVG Export Plug-In . SVG Version: 6.00 Build 0)  -->
<svg version="1.1" id="Layer_1" xmlns="http://www.w3.org/2000/svg" xmlns:xlink="http://www.w3.org/1999/xlink" x="0px" y="0px"
	 viewBox="0 0 60 180" style="enable-background:new 0 0 60 180;" xml:space="preserve">
<style type="text/css">
	.st0{fill:#F39FA1;stroke:#FF6F72;stroke-width:2;stroke-miterlimit:10;}
	.st1{fill:#F39FA1;stroke:#FF6F72;stroke-width:2;stroke-linecap:square;stroke-miterlimit:10;}
	.st2{fill:none;stroke:#FFFFFF;stroke-width:2;stroke-miterlimit:10;}
	.st3{fill:none;stroke:#FFFFFF;stroke-width:2;stroke-linecap:square;stroke-miterlimit:10;}
	.st4{fill:none;stroke:#656464;stroke-width:2;stroke-miterlimit:10;}
	.st5{fill:none;stroke:#656464;stroke-width:2;stroke-linecap:square;stroke-miterlimit:10;}
</style>
<g>
	<path class="st0" d="M38.4,25.8L16.5,50.4c-0.7,0.8-2,0.9-2.7,0.1l-4.2-4.2c-0.8-0.8-0.8-2,0.1-2.7l24.5-21.9"/>
	<path class="st1" d="M40,20l6.9,2.1l4.7-4.7c0.8-0.8,1.5-0.5,1.4,0.6c-0.2,2.2-1.2,4.3-2.9,6c-3.9,3.9-10.2,3.9-14.1,0
		s-3.9-10.2,0-14.1c1.7-1.7,3.8-2.6,6-2.8c1.1-0.1,1.4,0.6,0.6,1.4l-4.7,4.7L40,20z"/>
</g>
<g>
	<path class="st2" d="M38.4,85.8l-21.9,24.6c-0.7,0.8-2,0.9-2.7,0.1l-4.2-4.2c-0.8-0.8-0.8-2,0.1-2.7l24.5-21.9"/>
	<path class="st3" d="M40,80l6.9,2.1l4.7-4.7c0.8-0.8,1.5-0.5,1.4,0.6c-0.2,2.2-1.2,4.3-2.9,6c-3.9,3.9-10.2,3.9-14.1,0
		s-3.9-10.2,0-14.1c1.7-1.7,3.8-2.6,6-2.8c1.1-0.1,1.4,0.6,0.6,1.4l-4.7,4.7L40,80z"/>
</g>
<g>
	<path class="st4" d="M37.4,145.8l-21.9,24.6c-0.7,0.8-2,0.9-2.7,0.1l-4.2-4.2c-0.8-0.8-0.8-2,0.1-2.7l24.5-21.9"/>
	<path class="st5" d="M39,140l6.9,2.1l4.7-4.7c0.8-0.8,1.5-0.5,1.4,0.6c-0.2,2.2-1.2,4.3-2.9,6c-3.9,3.9-10.2,3.9-14.1,0
		c-3.9-3.9-3.9-10.2,0-14.1c1.7-1.7,3.8-2.6,6-2.8c1.1-0.1,1.4,0.6,0.6,1.4l-4.7,4.7L39,140z"/>
</g>
</svg>
