<svg xmlns="http://www.w3.org/2000/svg" viewBox="0 0 200 56.11"><defs><style>.cls-1{fill:#fff;}</style></defs><title>Asset 1</title><g id="Layer_2" data-name="Layer 2"><g id="Layer_1-2" data-name="Layer 1"><path class="cls-1" d="M9.47,10.52H0V39.15H10.3c8.53,0,16.13-4.95,16.13-14.26,0-10.41-7.71-14.37-17-14.37Zm.11,22.85H6.28v-17H10c5.34,0,9.86,2.65,9.86,8.26,0,6.5-4.41,8.76-10.3,8.76ZM38.77,19.05c-6.06,0-10.91,4.08-10.91,10.3S32.71,39.7,38.77,39.7s10.95-4.07,10.95-10.35-4.9-10.3-10.95-10.3Zm0,15.31c-3,0-4.85-2-4.85-5s1.82-5,4.85-5a4.59,4.59,0,0,1,4.84,5c0,3-1.81,5-4.84,5Zm23.56-10a3.75,3.75,0,0,1,3,1.49l4-4.18a10,10,0,0,0-7-2.65c-6,0-10.9,4.08-10.9,10.3S56.28,39.7,62.33,39.7a9.86,9.86,0,0,0,7-2.64l-4-4.24a3.74,3.74,0,0,1-3,1.49c-3,0-4.84-2-4.84-5a4.56,4.56,0,0,1,4.84-4.91ZM84,29.3c0,2.53-.5,5-3.64,5s-3.14-2.92-3.14-5.18V19.49h-6V30.34c0,5.29,1.1,9.31,7.26,9.31a6.26,6.26,0,0,0,5.73-3.14h.06v2.7H90V19.49H84V29.3Z"/><path class="cls-1" d="M157.71,37.94c1.43-1.87,5.45-11.67,5.45-13.11,0-2.36-2.15-3.63-4.46-3.63-7.65,0-20,13.05-22.58,13.05-2.92,0,1.6-6.22,1.6-8.7,0-1.6-1.43-3.3-2.59-3.3-2.26,0-9.36,6.77-14,8.31a10.34,10.34,0,0,0,1.54-4.68C122.63,17.57,99,20.65,99,16c0-4.19,14.76-11.45,23.46-11.45,1.21,0,9.19.49,9.19,3.3,0,1-1.7,1.38-1.7,2.42s.88,1.21,1.92,1.21c1.54,0,2.59-1.37,2.59-3.14,0-6.88-6.17-8.31-11.12-8.31-12.78,0-28,11.12-28,16.13,0,6.61,21.54,5.4,21.54,11.29,0,4.41-8.87,8.59-15.64,11.51V37.5H91.63v2H100c-3.14,1.38-6.17,2.7-6.17,3.2,0,1.76,1.21,1.59,2.59,1.54,2.64,0,8.76-2.42,14-4.74h5v-2h-.55c8.54-4.52,16.58-9.8,17.73-11,.17,3.64-1.37,7.11-1.37,8.65s1.1,3.52,2.75,3.63v.66h9.64v-2h-6.45a57.6,57.6,0,0,1,5.13-3.3c-.17,1.21.88,3.14,2.25,3.14,3,0,12-7.32,13.71-8.54a19.67,19.67,0,0,1-3.74,8.59,10.59,10.59,0,0,0-2.92-.38,4.08,4.08,0,0,0-1.6.44h-2V38.6c-4.29,3.14-10,10-10,13.71,0,1.93,1,3.8,3,3.8,2.64,0,12.22-7.93,15.69-15.91,1.54.16,4.08,1.32,4.08.11S159.09,38.27,157.71,37.94Zm-56.44,1h0l1.26-.16Zm44.1-4.4c-1-1.05,9.53-9.48,12.67-9C156.88,29.19,146.42,35.57,145.37,34.53Zm-3.52,17.62c-.61,0-1-.28-1-1.65,0-4.46,9.31-10.8,12.55-10.8C151.49,43.78,143.56,52.15,141.85,52.15Zm-22-14.65h9.64v2h-9.64Zm70.54,0H200v2h-9.64ZM141,15.09a2.25,2.25,0,0,0,2.15-2.37,2.18,2.18,0,1,0-4.35,0,2.32,2.32,0,0,0,2.2,2.37ZM195.1,30.62c0-.5-.55-1.43-1.27-1.43-.44,0-5.72,6.44-8,6.44-1.93,0,0-4,0-6.61s-.44-5-3.14-5c-3.64,0-8.87,4.68-10.08,5.4a4.43,4.43,0,0,0,.72-2.26,3.57,3.57,0,0,0-3.14-3c-1.21,0-7.6,3.31-7.6,7.49,0,1.05,3.8-2.64,5.4-2.14-1.21,1.54-4.35,5.23-4.35,6.6A2.56,2.56,0,0,0,164,37.5h-1.77v2h9.59v-2h-4.52c3.58-2.48,9.91-9.36,13.22-9.36,2.31,0-.22,6.61,1.76,9.36h-6v2h9.63v-.93c2.92-.88,9.2-5.29,9.2-7.93Zm.94,13.1a3.58,3.58,0,1,0,3.57,3.58A3.57,3.57,0,0,0,196,43.72Zm0,6.5a2.92,2.92,0,1,1,0-5.84A2.9,2.9,0,0,1,199,47.3,2.86,2.86,0,0,1,196,50.22Zm1.65-3.8c0-.77-.44-1.21-1.43-1.21h-1.6v4.07h.77V47.63H196l1,1.65h.77l-1-1.7a1,1,0,0,0,1-1.16Zm-2.26.55V45.81H196c.44,0,1,0,1,.56s-.49.55-1,.55l-.55,0Z"/></g></g></svg>