<?xml version="1.0" encoding="utf-8"?>
<!-- Generator: Adobe Illustrator 22.1.0, SVG Export Plug-In . SVG Version: 6.00 Build 0)  -->
<svg version="1.1" id="Layer_1" xmlns="http://www.w3.org/2000/svg" xmlns:xlink="http://www.w3.org/1999/xlink" x="0px" y="0px"
	 viewBox="0 0 60 120" style="enable-background:new 0 0 60 120;" xml:space="preserve">
<style type="text/css">
	.st0{fill:none;}
	.st1{fill:none;stroke:#404041;stroke-width:2;stroke-linecap:round;stroke-linejoin:round;stroke-miterlimit:10;}
	.st2{opacity:0;}
	.st3{fill:none;stroke:#404041;stroke-width:2;stroke-linecap:round;stroke-linejoin:round;stroke-miterlimit:10;stroke-opacity:0;}
	.st4{fill:none;stroke:#404041;stroke-width:2;}
	.st5{fill:none;stroke:#FFFFFF;stroke-miterlimit:10;}
	.st6{fill:none;stroke:#FFFFFF;stroke-width:2;stroke-linecap:round;stroke-linejoin:round;stroke-miterlimit:10;}
	.st7{fill:none;stroke:#FFFFFF;stroke-width:2;stroke-linecap:round;stroke-linejoin:round;stroke-miterlimit:10;stroke-opacity:0;}
	.st8{fill:none;stroke:#FFFFFF;stroke-width:2;}
</style>
<g>
	<path class="st0" d="M53,43c0,1.1-0.9,2-2,2H9c-1.1,0-2-0.9-2-2V17c0-1.1,0.9-2,2-2h42c1.1,0,2,0.9,2,2V43z"/>
	<g>
		<line class="st1" x1="22" y1="30" x2="7.6" y2="44.4"/>
		<line class="st1" x1="52.4" y1="44.4" x2="38" y2="30"/>
	</g>
	<g class="st2">
		<line class="st1" x1="22" y1="30" x2="7.6" y2="15.6"/>
		<line class="st1" x1="38" y1="30" x2="52.4" y2="15.6"/>
	</g>
	<line class="st3" x1="22" y1="30" x2="38" y2="30"/>
	<path class="st1" d="M30,15h21c0.8,0,1.4,0.6,1.4,0.6L33.5,34.5c-2,2-5.1,2-7.1,0L7.6,15.6c0,0,0.6-0.6,1.4-0.6H30z"/>
	<path class="st4" d="M30,15h21c1.1,0,2,0.9,2,2v26c0,1.1-0.9,2-2,2H9c-1.1,0-2-0.9-2-2V17c0-1.1,0.9-2,2-2H30z"/>
</g>
<g>
	<path class="st5" d="M53,103c0,1.1-0.9,2-2,2H9c-1.1,0-2-0.9-2-2V77c0-1.1,0.9-2,2-2h42c1.1,0,2,0.9,2,2V103z"/>
	<g>
		<line class="st6" x1="22" y1="90" x2="7.6" y2="104.4"/>
		<line class="st6" x1="52.4" y1="104.4" x2="38" y2="90"/>
	</g>
	<g class="st2">
		<line class="st6" x1="22" y1="90" x2="7.6" y2="75.6"/>
		<line class="st6" x1="38" y1="90" x2="52.4" y2="75.6"/>
	</g>
	<line class="st7" x1="22" y1="90" x2="38" y2="90"/>
	<path class="st6" d="M30,75h21c0.8,0,1.4,0.6,1.4,0.6L33.5,94.5c-2,2-5.1,2-7.1,0L7.6,75.6c0,0,0.6-0.6,1.4-0.6H30z"/>
	<path class="st8" d="M30,75h21c1.1,0,2,0.9,2,2v26c0,1.1-0.9,2-2,2H9c-1.1,0-2-0.9-2-2V77c0-1.1,0.9-2,2-2H30z"/>
</g>
</svg>
