<?xml version="1.0" encoding="utf-8"?>
<!-- Generator: Adobe Illustrator 22.1.0, SVG Export Plug-In . SVG Version: 6.00 Build 0)  -->
<svg version="1.1" id="Layer_1" xmlns="http://www.w3.org/2000/svg" xmlns:xlink="http://www.w3.org/1999/xlink" x="0px" y="0px"
	 viewBox="0 0 200 100" style="enable-background:new 0 0 200 100;" xml:space="preserve">
<style type="text/css">
	.st0{fill:#E9CA75;}
	.st1{fill:#FCECB4;}
</style>
<path d="M189.7,22.8h-42.6v-7.3c0-2.4-2-4.4-4.4-4.4h-32.3c-2.4,0-4.4,2-4.4,4.4V36v3v45.5c0,2.4,2,4.4,4.4,4.4h79.3
	c2.4,0,4.4-2,4.4-4.4V39v-3v-8.8C194.1,24.8,192.1,22.8,189.7,22.8z M191.2,84.5c0,0.8-0.7,1.5-1.5,1.5h-79.3
	c-0.8,0-1.5-0.7-1.5-1.5V39h82.3V84.5z M108.8,36V15.5c0-0.8,0.7-1.5,1.5-1.5h32.3c0.8,0,1.5,0.7,1.5,1.5v10.3h45.5
	c0.8,0,1.5,0.7,1.5,1.5V36H108.8z"/>
<path class="st0" d="M89.7,22.8H47.1v-7.3c0-2.4-2-4.4-4.4-4.4H10.3c-2.4,0-4.4,2-4.4,4.4V36v3v45.5c0,2.4,2,4.4,4.4,4.4h79.3
	c2.4,0,4.4-2,4.4-4.4V39v-3v-8.8C94.1,24.8,92.1,22.8,89.7,22.8z"/>
<path class="st1" d="M90.4,83.4c0,0.8-0.7,1.4-1.5,1.4H11c-0.8,0-1.5-0.7-1.5-1.4V40.2h80.8L90.4,83.4L90.4,83.4z"/>
<g>
	<path class="st0" d="M8.8,36V15.5c0-0.8,0.7-1.5,1.5-1.5h32.3c0.8,0,1.5,0.7,1.5,1.5v10.3h45.5c0.8,0,1.5,0.7,1.5,1.5V36H8.8z"/>
</g>
</svg>
