<?xml version="1.0" encoding="utf-8"?>
<!-- Generator: Adobe Illustrator 22.1.0, SVG Export Plug-In . SVG Version: 6.00 Build 0)  -->
<svg version="1.1" id="Layer_1" xmlns="http://www.w3.org/2000/svg" xmlns:xlink="http://www.w3.org/1999/xlink" x="0px" y="0px"
	 viewBox="0 0 200 100" style="enable-background:new 0 0 200 100;" xml:space="preserve">
<style type="text/css">
	.st0{fill:#3FB87F;}
</style>
<g>
	<path class="st0" d="M72.4,77.1l-8.9-14.9c-0.9-1.4-2.4-2.3-4-2.3l0,0c-1.7,0-3.2,0.9-4,2.3L53,66.4l-5.5-9.1
		c-0.9-1.4-2.4-2.3-4-2.3l0,0c-1.7,0-3.2,0.9-4,2.3l-12,19.8c-0.9,1.5-0.9,3.2-0.1,4.7s2.4,2.4,4.1,2.4h36.8c1.7,0,3.2-0.9,4.1-2.4
		C73.4,80.4,73.3,78.6,72.4,77.1L72.4,77.1z M31.3,79.3l11.8-19.8c0.2-0.3,0.5-0.3,0.7,0l7.3,12.2c0.8,1.4,2.9,1.4,3.7,0l4.3-7.2
		c0.2-0.3,0.5-0.3,0.7,0l8.9,14.8c0.2,0.3,0,0.6-0.4,0.6H31.6C31.3,79.9,31.1,79.6,31.3,79.3z"/>
	<path class="st0" d="M56.3,55.4c4.5,0,8.2-3.7,8.2-8.2S60.8,39,56.3,39S48,42.7,48,47.2S51.7,55.4,56.3,55.4z M56.3,43.3
		c2.2,0,3.9,1.8,3.9,3.9c0,2.2-1.8,3.9-3.9,3.9c-2.2,0-3.9-1.8-3.9-3.9C52.3,45,54.1,43.3,56.3,43.3z"/>
	<path class="st0" d="M85.8,26.6L63.9,4.7c-1.4-1.4-3.3-2.2-5.2-2.2H19.4l0,0c-2,0-3.8,0.8-5.2,2.2S12,7.9,12,9.9v80.2
		c0,4.1,3.3,7.4,7.4,7.4h61.2c4.1,0,7.4-3.3,7.4-7.4V31.8C88,29.9,87.2,28,85.8,26.6z M81.6,28.4H65.4c-1.8,0-3.3-1.5-3.3-3.3V9
		L81.6,28.4z M80.6,93.2H19.4c-1.7,0-3.1-1.4-3.1-3.1V9.9c0-0.8,0.3-1.6,0.9-2.2c0.6-0.6,1.4-0.9,2.2-0.9l0,0h38.4v18.3
		c0,4.2,3.4,7.6,7.6,7.6h18.3v57.4C83.7,91.8,82.3,93.2,80.6,93.2z"/>
</g>
<g>
	<path class="st0" d="M172.4,77.1l-8.9-14.9c-0.9-1.4-2.4-2.3-4-2.3l0,0c-1.7,0-3.2,0.9-4,2.3l-2.5,4.2l-5.5-9.1
		c-0.9-1.4-2.4-2.3-4-2.3l0,0c-1.7,0-3.2,0.9-4,2.3l-12,19.8c-0.9,1.5-0.9,3.2-0.1,4.7c0.8,1.5,2.4,2.4,4.1,2.4h36.8
		c1.7,0,3.2-0.9,4.1-2.4C173.4,80.4,173.3,78.6,172.4,77.1L172.4,77.1z M131.3,79.3l11.8-19.8c0.2-0.3,0.5-0.3,0.7,0l7.3,12.2
		c0.8,1.4,2.9,1.4,3.7,0l4.3-7.2c0.2-0.3,0.5-0.3,0.7,0l8.9,14.8c0.2,0.3,0,0.6-0.4,0.6h-36.7C131.3,79.9,131.1,79.6,131.3,79.3z"/>
	<path class="st0" d="M156.3,55.4c4.5,0,8.2-3.7,8.2-8.2s-3.7-8.2-8.2-8.2s-8.3,3.7-8.3,8.2S151.7,55.4,156.3,55.4z M156.3,43.3
		c2.2,0,3.9,1.8,3.9,3.9c0,2.2-1.8,3.9-3.9,3.9c-2.2,0-3.9-1.8-3.9-3.9C152.3,45,154.1,43.3,156.3,43.3z"/>
	<path class="st0" d="M185.8,26.6L163.9,4.7c-1.4-1.4-3.3-2.2-5.2-2.2h-39.3l0,0c-2,0-3.8,0.8-5.2,2.2c-1.4,1.4-2.2,3.2-2.2,5.2
		v80.2c0,4.1,3.3,7.4,7.4,7.4h61.2c4.1,0,7.4-3.3,7.4-7.4V31.8C188,29.9,187.2,28,185.8,26.6z M181.6,28.4h-16.2
		c-1.8,0-3.3-1.5-3.3-3.3V9L181.6,28.4z M180.6,93.2h-61.2c-1.7,0-3.1-1.4-3.1-3.1V9.9c0-0.8,0.3-1.6,0.9-2.2
		c0.6-0.6,1.4-0.9,2.2-0.9l0,0h38.4v18.3c0,4.2,3.4,7.6,7.6,7.6h18.3v57.4C183.7,91.8,182.3,93.2,180.6,93.2z"/>
</g>
</svg>
