<?xml version="1.0" encoding="utf-8"?>
<!-- Generator: Adobe Illustrator 22.0.1, SVG Export Plug-In . SVG Version: 6.00 Build 0)  -->
<svg version="1.1" id="Layer_1" xmlns="http://www.w3.org/2000/svg" xmlns:xlink="http://www.w3.org/1999/xlink" x="0px" y="0px"
	 viewBox="0 0 575.6 325.9" style="enable-background:new 0 0 575.6 325.9;" xml:space="preserve">
<style type="text/css">
	.st0{fill:none;stroke:#D1D3D4;stroke-width:0.75;stroke-miterlimit:10;}
	.st1{clip-path:url(#SVGID_2_);fill:url(#SVGID_3_);stroke:url(#SVGID_4_);stroke-width:1.75;stroke-miterlimit:10;}
	.st2{clip-path:url(#SVGID_6_);fill:#404041;}
	.st3{clip-path:url(#SVGID_8_);fill:url(#SVGID_9_);stroke:url(#SVGID_10_);stroke-miterlimit:10;}
	.st4{clip-path:url(#SVGID_12_);fill:#404041;}
	.st5{clip-path:url(#SVGID_14_);fill:url(#SVGID_15_);stroke:url(#SVGID_16_);stroke-miterlimit:10;}
	.st6{clip-path:url(#SVGID_18_);fill:#404041;}
	.st7{clip-path:url(#SVGID_20_);fill:url(#SVGID_21_);stroke:url(#SVGID_22_);stroke-miterlimit:10;}
	.st8{clip-path:url(#SVGID_24_);fill:#404041;}
	.st9{clip-path:url(#SVGID_26_);fill:url(#SVGID_27_);stroke:url(#SVGID_28_);stroke-miterlimit:10;}
	.st10{clip-path:url(#SVGID_30_);fill:#404041;}
	.st11{clip-path:url(#SVGID_32_);fill:url(#SVGID_33_);stroke:url(#SVGID_34_);stroke-miterlimit:10;}
	.st12{clip-path:url(#SVGID_36_);fill:#404041;}
	.st13{clip-path:url(#SVGID_38_);fill:none;stroke:#D1D3D4;stroke-width:0.75;stroke-miterlimit:10;}
	.st14{clip-path:url(#SVGID_40_);fill:#404041;}
	.st15{clip-path:url(#SVGID_42_);fill:none;stroke:#D1D3D4;stroke-width:0.75;stroke-miterlimit:10;}
	.st16{clip-path:url(#SVGID_44_);fill:#404041;}
	.st17{clip-path:url(#SVGID_46_);fill:none;stroke:#D1D3D4;stroke-width:0.75;stroke-miterlimit:10;}
	.st18{clip-path:url(#SVGID_48_);fill:#404041;}
	.st19{clip-path:url(#SVGID_50_);fill:none;stroke:#D1D3D4;stroke-width:0.75;stroke-miterlimit:10;}
	.st20{clip-path:url(#SVGID_52_);fill:#404041;}
	.st21{clip-path:url(#SVGID_54_);fill:none;stroke:#D1D3D4;stroke-width:0.75;stroke-miterlimit:10;}
	.st22{clip-path:url(#SVGID_56_);fill:#404041;}
	.st23{clip-path:url(#SVGID_58_);fill:none;stroke:#D1D3D4;stroke-width:0.75;stroke-miterlimit:10;}
	.st24{clip-path:url(#SVGID_60_);fill:#404041;}
	.st25{clip-path:url(#SVGID_62_);fill:none;stroke:#D1D3D4;stroke-width:0.75;stroke-miterlimit:10;}
	.st26{clip-path:url(#SVGID_64_);fill:#404041;}
	.st27{clip-path:url(#SVGID_66_);fill:none;stroke:#D1D3D4;stroke-width:0.75;stroke-miterlimit:10;}
	.st28{clip-path:url(#SVGID_68_);fill:#404041;}
	.st29{clip-path:url(#SVGID_70_);fill:none;stroke:#D1D3D4;stroke-width:0.75;stroke-miterlimit:10;}
	.st30{clip-path:url(#SVGID_72_);fill:#404041;}
	.st31{clip-path:url(#SVGID_74_);fill:none;stroke:#D1D3D4;stroke-width:0.75;stroke-miterlimit:10;}
	.st32{clip-path:url(#SVGID_76_);fill:#404041;}
	.st33{clip-path:url(#SVGID_78_);fill:none;stroke:#D1D3D4;stroke-width:0.75;stroke-miterlimit:10;}
</style>
<polyline class="st0" points="2,273.9 165.2,320.8 337,276.1 575.6,315.3 "/>
<polyline class="st0" points="2,63.4 124.5,48.1 219.8,66.8 289,57.4 436.4,104.6 575.6,104.6 "/>
<polyline class="st0" points="2,211.3 197.1,179.9 342.9,210.8 575.6,199.2 "/>
<polyline class="st0" points="2,135.7 92.1,145.5 218.3,123.8 466.6,229.2 575.6,229.2 "/>
<g>
	<g>
		<g>
			<g>
				<defs>
					<rect id="SVGID_1_" width="575.6" height="325.9"/>
				</defs>
				<clipPath id="SVGID_2_">
					<use xlink:href="#SVGID_1_"  style="overflow:visible;"/>
				</clipPath>
				<linearGradient id="SVGID_3_" gradientUnits="userSpaceOnUse" x1="0.2" y1="163.754" x2="568.3" y2="163.754">
					<stop  offset="0" style="stop-color:#FF6F72"/>
					<stop  offset="1" style="stop-color:#FFF25A"/>
				</linearGradient>
				<linearGradient id="SVGID_4_" gradientUnits="userSpaceOnUse" x1="-0.9896" y1="163.9118" x2="569.632" y2="163.9118">
					<stop  offset="0" style="stop-color:#FF6F72"/>
					<stop  offset="1" style="stop-color:#FFF25A"/>
				</linearGradient>
				<path class="st1" d="M0.2,316.7l167.7-93.3l94.3,16.9l120.3-78.6l61.5,6.7l-0.1,1l-0.6-0.8c0,0,126-160.9,123.4-159.6l1.6,1.2
					c-0.1,0.1-119.3,156.9-123.9,160l-0.3,0.2l-61.1-6.7l-120.4,78.7l-94.4-16.9l-167,93L0.2,316.7L0.2,316.7z"/>
			</g>
		</g>
	</g>
	<g>
		<g>
			<g>
				<defs>
					<rect id="SVGID_5_" width="575.6" height="325.9"/>
				</defs>
				<clipPath id="SVGID_6_">
					<use xlink:href="#SVGID_5_"  style="overflow:visible;"/>
				</clipPath>
				<path class="st2" d="M175.2,222.6c0,3.7-3,6.7-6.7,6.7s-6.7-3-6.7-6.7s3-6.7,6.7-6.7C172.2,215.9,175.2,218.9,175.2,222.6"/>
			</g>
		</g>
	</g>
	<g>
		<g>
			<g>
				<defs>
					<rect id="SVGID_7_" width="575.6" height="325.9"/>
				</defs>
				<clipPath id="SVGID_8_">
					<use xlink:href="#SVGID_7_"  style="overflow:visible;"/>
				</clipPath>
				
					<linearGradient id="SVGID_9_" gradientUnits="userSpaceOnUse" x1="437.2242" y1="151.6803" x2="438.2242" y2="151.6803" gradientTransform="matrix(8.1715 14.1535 -14.1535 8.1715 -1261.551 -7212.1738)">
					<stop  offset="0" style="stop-color:#FF6F72"/>
					<stop  offset="1" style="stop-color:#FFF25A"/>
				</linearGradient>
				<linearGradient id="SVGID_10_" gradientUnits="userSpaceOnUse" x1="160.3" y1="222.6" x2="176.7" y2="222.6">
					<stop  offset="0" style="stop-color:#FF6F72"/>
					<stop  offset="1" style="stop-color:#FFF25A"/>
				</linearGradient>
				<path class="st3" d="M175.2,222.6h1c0,4.2-3.4,7.7-7.7,7.7c-4.2,0-7.7-3.4-7.7-7.7c0-4.2,3.4-7.7,7.7-7.7c4.2,0,7.7,3.4,7.7,7.7
					H175.2h-1c0-3.1-2.5-5.7-5.7-5.7c-3.1,0-5.7,2.5-5.7,5.7c0,3.1,2.5,5.7,5.7,5.7c3.1,0,5.7-2.5,5.7-5.7H175.2z"/>
			</g>
		</g>
	</g>
	<g>
		<g>
			<g>
				<defs>
					<rect id="SVGID_11_" width="575.6" height="325.9"/>
				</defs>
				<clipPath id="SVGID_12_">
					<use xlink:href="#SVGID_11_"  style="overflow:visible;"/>
				</clipPath>
				<path class="st4" d="M269.4,240.5c0,3.7-3,6.7-6.7,6.7s-6.7-3-6.7-6.7s3-6.7,6.7-6.7C266.4,233.8,269.4,236.8,269.4,240.5"/>
			</g>
		</g>
	</g>
	<g>
		<g>
			<g>
				<defs>
					<rect id="SVGID_13_" width="575.6" height="325.9"/>
				</defs>
				<clipPath id="SVGID_14_">
					<use xlink:href="#SVGID_13_"  style="overflow:visible;"/>
				</clipPath>
				
					<linearGradient id="SVGID_15_" gradientUnits="userSpaceOnUse" x1="437.2242" y1="151.6795" x2="438.2242" y2="151.6795" gradientTransform="matrix(8.1715 14.1535 -14.1535 8.1715 -1167.3459 -7194.2412)">
					<stop  offset="0" style="stop-color:#FF6F72"/>
					<stop  offset="1" style="stop-color:#FFF25A"/>
				</linearGradient>
				<linearGradient id="SVGID_16_" gradientUnits="userSpaceOnUse" x1="254.5" y1="240.5" x2="270.9" y2="240.5">
					<stop  offset="0" style="stop-color:#FF6F72"/>
					<stop  offset="1" style="stop-color:#FFF25A"/>
				</linearGradient>
				<path class="st5" d="M269.4,240.5h1c0,4.2-3.4,7.7-7.7,7.7c-4.2,0-7.7-3.4-7.7-7.7c0-4.2,3.4-7.7,7.7-7.7c4.2,0,7.7,3.4,7.7,7.7
					H269.4h-1c0-3.1-2.5-5.7-5.7-5.7c-3.1,0-5.7,2.5-5.7,5.7c0,3.1,2.5,5.7,5.7,5.7c3.1,0,5.7-2.5,5.7-5.7H269.4z"/>
			</g>
		</g>
	</g>
	<g>
		<g>
			<g>
				<defs>
					<rect id="SVGID_17_" width="575.6" height="325.9"/>
				</defs>
				<clipPath id="SVGID_18_">
					<use xlink:href="#SVGID_17_"  style="overflow:visible;"/>
				</clipPath>
				<path class="st6" d="M391.1,162c0,3.7-3,6.7-6.7,6.7s-6.7-3-6.7-6.7s3-6.7,6.7-6.7S391.1,158.3,391.1,162"/>
			</g>
		</g>
	</g>
	<g>
		<g>
			<g>
				<defs>
					<rect id="SVGID_19_" width="575.6" height="325.9"/>
				</defs>
				<clipPath id="SVGID_20_">
					<use xlink:href="#SVGID_19_"  style="overflow:visible;"/>
				</clipPath>
				
					<linearGradient id="SVGID_21_" gradientUnits="userSpaceOnUse" x1="437.2242" y1="151.676" x2="438.2242" y2="151.676" gradientTransform="matrix(8.1715 14.1535 -14.1535 8.1715 -1045.7048 -7272.7271)">
					<stop  offset="0" style="stop-color:#FF6F72"/>
					<stop  offset="1" style="stop-color:#FFF25A"/>
				</linearGradient>
				<linearGradient id="SVGID_22_" gradientUnits="userSpaceOnUse" x1="376.2" y1="162" x2="392.6" y2="162">
					<stop  offset="0" style="stop-color:#FF6F72"/>
					<stop  offset="1" style="stop-color:#FFF25A"/>
				</linearGradient>
				<path class="st7" d="M391.1,162h1c0,4.2-3.4,7.7-7.7,7.7c-4.2,0-7.7-3.4-7.7-7.7c0-4.2,3.4-7.7,7.7-7.7c4.2,0,7.7,3.4,7.7,7.7
					H391.1h-1c0-3.1-2.5-5.7-5.7-5.7c-3.1,0-5.7,2.5-5.7,5.7c0,3.1,2.5,5.7,5.7,5.7c3.1,0,5.7-2.5,5.7-5.7H391.1z"/>
			</g>
		</g>
	</g>
	<g>
		<g>
			<g>
				<defs>
					<rect id="SVGID_23_" width="575.6" height="325.9"/>
				</defs>
				<clipPath id="SVGID_24_">
					<use xlink:href="#SVGID_23_"  style="overflow:visible;"/>
				</clipPath>
				<path class="st8" d="M449.7,167.7c0,3.7-3,6.7-6.7,6.7s-6.7-3-6.7-6.7s3-6.7,6.7-6.7S449.7,164,449.7,167.7"/>
			</g>
		</g>
	</g>
	<g>
		<g>
			<g>
				<defs>
					<rect id="SVGID_25_" width="575.6" height="325.9"/>
				</defs>
				<clipPath id="SVGID_26_">
					<use xlink:href="#SVGID_25_"  style="overflow:visible;"/>
				</clipPath>
				
					<linearGradient id="SVGID_27_" gradientUnits="userSpaceOnUse" x1="437.2242" y1="151.677" x2="438.2242" y2="151.677" gradientTransform="matrix(8.1715 14.1535 -14.1535 8.1715 -987.1028 -7267.0571)">
					<stop  offset="0" style="stop-color:#FF6F72"/>
					<stop  offset="1" style="stop-color:#FFF25A"/>
				</linearGradient>
				<linearGradient id="SVGID_28_" gradientUnits="userSpaceOnUse" x1="434.8" y1="167.7" x2="451.2" y2="167.7">
					<stop  offset="0" style="stop-color:#FF6F72"/>
					<stop  offset="1" style="stop-color:#FFF25A"/>
				</linearGradient>
				<path class="st9" d="M449.7,167.7h1c0,4.2-3.4,7.7-7.7,7.7c-4.2,0-7.7-3.4-7.7-7.7c0-4.2,3.4-7.7,7.7-7.7c4.2,0,7.7,3.4,7.7,7.7
					H449.7h-1c0-3.1-2.5-5.7-5.7-5.7c-3.1,0-5.7,2.5-5.7,5.7c0,3.1,2.5,5.7,5.7,5.7c3.1,0,5.7-2.5,5.7-5.7H449.7z"/>
			</g>
		</g>
	</g>
	<g>
		<g>
			<g>
				<defs>
					<rect id="SVGID_29_" width="575.6" height="325.9"/>
				</defs>
				<clipPath id="SVGID_30_">
					<use xlink:href="#SVGID_29_"  style="overflow:visible;"/>
				</clipPath>
				<path class="st10" d="M574.1,8.2c0,3.7-3,6.7-6.7,6.7s-6.7-3-6.7-6.7s3-6.7,6.7-6.7S574.1,4.5,574.1,8.2"/>
			</g>
		</g>
	</g>
	<g>
		<g>
			<g>
				<defs>
					<rect id="SVGID_31_" width="575.6" height="325.9"/>
				</defs>
				<clipPath id="SVGID_32_">
					<use xlink:href="#SVGID_31_"  style="overflow:visible;"/>
				</clipPath>
				
					<linearGradient id="SVGID_33_" gradientUnits="userSpaceOnUse" x1="437.2242" y1="151.6801" x2="438.2242" y2="151.6801" gradientTransform="matrix(8.1715 14.1535 -14.1535 8.1715 -862.656 -7426.5762)">
					<stop  offset="0" style="stop-color:#FF6F72"/>
					<stop  offset="1" style="stop-color:#FFF25A"/>
				</linearGradient>
				<linearGradient id="SVGID_34_" gradientUnits="userSpaceOnUse" x1="559.2" y1="8.2" x2="575.6" y2="8.2">
					<stop  offset="0" style="stop-color:#FF6F72"/>
					<stop  offset="1" style="stop-color:#FFF25A"/>
				</linearGradient>
				<path class="st11" d="M574.1,8.2h1c0,4.2-3.4,7.7-7.7,7.7c-4.2,0-7.7-3.4-7.7-7.7c0-4.2,3.4-7.7,7.7-7.7c4.2,0,7.7,3.4,7.7,7.7
					H574.1h-1c0-3.1-2.5-5.7-5.7-5.7c-3.1,0-5.7,2.5-5.7,5.7c0,3.1,2.5,5.7,5.7,5.7c3.1,0,5.7-2.5,5.7-5.7H574.1z"/>
			</g>
		</g>
	</g>
	<g>
		<g>
			<g>
				<defs>
					<rect id="SVGID_35_" width="575.6" height="325.9"/>
				</defs>
				<clipPath id="SVGID_36_">
					<use xlink:href="#SVGID_35_"  style="overflow:visible;"/>
				</clipPath>
				<path class="st12" d="M128.5,48.1c0,2.6-2.1,4.6-4.6,4.6s-4.6-2.1-4.6-4.6c0-2.6,2.1-4.6,4.6-4.6S128.5,45.5,128.5,48.1"/>
			</g>
		</g>
	</g>
	<g>
		<g>
			<g>
				<defs>
					<rect id="SVGID_37_" width="575.6" height="325.9"/>
				</defs>
				<clipPath id="SVGID_38_">
					<use xlink:href="#SVGID_37_"  style="overflow:visible;"/>
				</clipPath>
				<circle class="st13" cx="123.8" cy="48.1" r="4.6"/>
			</g>
		</g>
	</g>
	<g>
		<g>
			<g>
				<defs>
					<rect id="SVGID_39_" width="575.6" height="325.9"/>
				</defs>
				<clipPath id="SVGID_40_">
					<use xlink:href="#SVGID_39_"  style="overflow:visible;"/>
				</clipPath>
				<path class="st14" d="M97.2,145.9c0,2.6-2.1,4.6-4.6,4.6s-4.6-2.1-4.6-4.6c0-2.6,2.1-4.6,4.6-4.6S97.2,143.4,97.2,145.9"/>
			</g>
		</g>
	</g>
	<g>
		<g>
			<g>
				<defs>
					<rect id="SVGID_41_" width="575.6" height="325.9"/>
				</defs>
				<clipPath id="SVGID_42_">
					<use xlink:href="#SVGID_41_"  style="overflow:visible;"/>
				</clipPath>
				<circle class="st15" cx="92.6" cy="145.9" r="4.6"/>
			</g>
		</g>
	</g>
	<g>
		<g>
			<g>
				<defs>
					<rect id="SVGID_43_" width="575.6" height="325.9"/>
				</defs>
				<clipPath id="SVGID_44_">
					<use xlink:href="#SVGID_43_"  style="overflow:visible;"/>
				</clipPath>
				<path class="st16" d="M225,66.8c0,2.6-2.1,4.6-4.6,4.6s-4.6-2.1-4.6-4.6c0-2.6,2.1-4.6,4.6-4.6S225,64.2,225,66.8"/>
			</g>
		</g>
	</g>
	<g>
		<g>
			<g>
				<defs>
					<rect id="SVGID_45_" width="575.6" height="325.9"/>
				</defs>
				<clipPath id="SVGID_46_">
					<use xlink:href="#SVGID_45_"  style="overflow:visible;"/>
				</clipPath>
				<circle class="st17" cx="220.3" cy="66.8" r="4.6"/>
			</g>
		</g>
	</g>
	<g>
		<g>
			<g>
				<defs>
					<rect id="SVGID_47_" width="575.6" height="325.9"/>
				</defs>
				<clipPath id="SVGID_48_">
					<use xlink:href="#SVGID_47_"  style="overflow:visible;"/>
				</clipPath>
				<path class="st18" d="M169.9,320.8c0,2.6-2.1,4.6-4.6,4.6s-4.6-2.1-4.6-4.6s2.1-4.6,4.6-4.6S169.9,318.3,169.9,320.8"/>
			</g>
		</g>
	</g>
	<g>
		<g>
			<g>
				<defs>
					<rect id="SVGID_49_" width="575.6" height="325.9"/>
				</defs>
				<clipPath id="SVGID_50_">
					<use xlink:href="#SVGID_49_"  style="overflow:visible;"/>
				</clipPath>
				<circle class="st19" cx="165.2" cy="320.8" r="4.6"/>
			</g>
		</g>
	</g>
	<g>
		<g>
			<g>
				<defs>
					<rect id="SVGID_51_" width="575.6" height="325.9"/>
				</defs>
				<clipPath id="SVGID_52_">
					<use xlink:href="#SVGID_51_"  style="overflow:visible;"/>
				</clipPath>
				<path class="st20" d="M223.2,123.8c0,2.6-2.1,4.6-4.6,4.6s-4.6-2.1-4.6-4.6c0-2.6,2.1-4.6,4.6-4.6S223.2,121.2,223.2,123.8"/>
			</g>
		</g>
	</g>
	<g>
		<g>
			<g>
				<defs>
					<rect id="SVGID_53_" width="575.6" height="325.9"/>
				</defs>
				<clipPath id="SVGID_54_">
					<use xlink:href="#SVGID_53_"  style="overflow:visible;"/>
				</clipPath>
				<circle class="st21" cx="218.5" cy="123.8" r="4.6"/>
			</g>
		</g>
	</g>
	<g>
		<g>
			<g>
				<defs>
					<rect id="SVGID_55_" width="575.6" height="325.9"/>
				</defs>
				<clipPath id="SVGID_56_">
					<use xlink:href="#SVGID_55_"  style="overflow:visible;"/>
				</clipPath>
				<path class="st22" d="M293.4,57.4c0,2.6-2.1,4.6-4.6,4.6s-4.6-2.1-4.6-4.6c0-2.6,2.1-4.6,4.6-4.6S293.4,54.8,293.4,57.4"/>
			</g>
		</g>
	</g>
	<g>
		<g>
			<g>
				<defs>
					<rect id="SVGID_57_" width="575.6" height="325.9"/>
				</defs>
				<clipPath id="SVGID_58_">
					<use xlink:href="#SVGID_57_"  style="overflow:visible;"/>
				</clipPath>
				<circle class="st23" cx="288.7" cy="57.4" r="4.6"/>
			</g>
		</g>
	</g>
	<g>
		<g>
			<g>
				<defs>
					<rect id="SVGID_59_" width="575.6" height="325.9"/>
				</defs>
				<clipPath id="SVGID_60_">
					<use xlink:href="#SVGID_59_"  style="overflow:visible;"/>
				</clipPath>
				<path class="st24" d="M471.3,229.2c0,2.6-2.1,4.6-4.6,4.6s-4.6-2.1-4.6-4.6s2.1-4.6,4.6-4.6S471.3,226.7,471.3,229.2"/>
			</g>
		</g>
	</g>
	<g>
		<g>
			<g>
				<defs>
					<rect id="SVGID_61_" width="575.6" height="325.9"/>
				</defs>
				<clipPath id="SVGID_62_">
					<use xlink:href="#SVGID_61_"  style="overflow:visible;"/>
				</clipPath>
				<circle class="st25" cx="466.6" cy="229.2" r="4.6"/>
			</g>
		</g>
	</g>
	<g>
		<g>
			<g>
				<defs>
					<rect id="SVGID_63_" width="575.6" height="325.9"/>
				</defs>
				<clipPath id="SVGID_64_">
					<use xlink:href="#SVGID_63_"  style="overflow:visible;"/>
				</clipPath>
				<path class="st26" d="M441,104.6c0,2.6-2.1,4.6-4.6,4.6s-4.6-2.1-4.6-4.6c0-2.6,2.1-4.6,4.6-4.6S441,102.1,441,104.6"/>
			</g>
		</g>
	</g>
	<g>
		<g>
			<g>
				<defs>
					<rect id="SVGID_65_" width="575.6" height="325.9"/>
				</defs>
				<clipPath id="SVGID_66_">
					<use xlink:href="#SVGID_65_"  style="overflow:visible;"/>
				</clipPath>
				<circle class="st27" cx="436.4" cy="104.6" r="4.6"/>
			</g>
		</g>
	</g>
	<g>
		<g>
			<g>
				<defs>
					<rect id="SVGID_67_" width="575.6" height="325.9"/>
				</defs>
				<clipPath id="SVGID_68_">
					<use xlink:href="#SVGID_67_"  style="overflow:visible;"/>
				</clipPath>
				<path class="st28" d="M201.6,179.9c0,2.6-2.1,4.6-4.6,4.6c-2.6,0-4.6-2.1-4.6-4.6c0-2.6,2.1-4.6,4.6-4.6
					C199.5,175.3,201.6,177.4,201.6,179.9"/>
			</g>
		</g>
	</g>
	<g>
		<g>
			<g>
				<defs>
					<rect id="SVGID_69_" width="575.6" height="325.9"/>
				</defs>
				<clipPath id="SVGID_70_">
					<use xlink:href="#SVGID_69_"  style="overflow:visible;"/>
				</clipPath>
				<circle class="st29" cx="197" cy="179.9" r="4.6"/>
			</g>
		</g>
	</g>
	<g>
		<g>
			<g>
				<defs>
					<rect id="SVGID_71_" width="575.6" height="325.9"/>
				</defs>
				<clipPath id="SVGID_72_">
					<use xlink:href="#SVGID_71_"  style="overflow:visible;"/>
				</clipPath>
				<path class="st30" d="M342.7,276.1c0,2.6-2.1,4.6-4.6,4.6s-4.6-2.1-4.6-4.6s2.1-4.6,4.6-4.6S342.7,273.5,342.7,276.1"/>
			</g>
		</g>
	</g>
	<g>
		<g>
			<g>
				<defs>
					<rect id="SVGID_73_" width="575.6" height="325.9"/>
				</defs>
				<clipPath id="SVGID_74_">
					<use xlink:href="#SVGID_73_"  style="overflow:visible;"/>
				</clipPath>
				<circle class="st31" cx="338.1" cy="276.1" r="4.6"/>
			</g>
		</g>
	</g>
	<g>
		<g>
			<g>
				<defs>
					<rect id="SVGID_75_" width="575.6" height="325.9"/>
				</defs>
				<clipPath id="SVGID_76_">
					<use xlink:href="#SVGID_75_"  style="overflow:visible;"/>
				</clipPath>
				<path class="st32" d="M347.4,210.8c0,2.6-2.1,4.6-4.6,4.6s-4.6-2.1-4.6-4.6s2.1-4.6,4.6-4.6S347.4,208.3,347.4,210.8"/>
			</g>
		</g>
	</g>
	<g>
		<g>
			<g>
				<defs>
					<rect id="SVGID_77_" width="575.6" height="325.9"/>
				</defs>
				<clipPath id="SVGID_78_">
					<use xlink:href="#SVGID_77_"  style="overflow:visible;"/>
				</clipPath>
				<circle class="st33" cx="342.7" cy="210.8" r="4.6"/>
			</g>
		</g>
	</g>
</g>
</svg>
