<?xml version="1.0" encoding="utf-8"?>
<!-- Generator: Adobe Illustrator 22.1.0, SVG Export Plug-In . SVG Version: 6.00 Build 0)  -->
<svg version="1.1" id="Layer_1" xmlns="http://www.w3.org/2000/svg" xmlns:xlink="http://www.w3.org/1999/xlink" x="0px" y="0px"
	 viewBox="0 0 200 100" style="enable-background:new 0 0 200 100;" xml:space="preserve">
<style type="text/css">
	.st0{fill:#E33D55;}
	.st1{fill:#404041;}
</style>
<g>
	<path class="st0" d="M57.5,63.3c-1.4-1.2-2.8-2.7-4.4-4.3c-1.1-1.2-2.3-2.9-3.3-4.7c1.9-6.5,2.8-12.7,0.8-15.7
		c-0.9-1.4-2.3-2.1-4.1-2.1c-2,0-3.5,0.9-4.2,2.6c-1.6,3.6,0.8,10.2,3.7,15.6c-0.8,2.6-1.8,5.4-3,8.5c-0.7,1.7-1.5,3.4-2.3,5
		c-8.2,3.2-13.2,6.8-13.9,10.2c-0.3,1.6,0.2,3,1.6,4.1c0.8,0.6,1.7,1,2.7,1c0.4,0,0.8-0.1,1.2-0.2c3.8-1,7.9-6.6,10.9-12.3
		c1.8-0.7,3.9-1.4,6.2-2c2.7-0.8,5.1-1.4,7.2-1.8c3.9,3.1,7.2,4.8,10.1,4.8c2.2,0.1,3.8-0.7,5.3-2.2c2.2-2.2,1.3-4.1,1-4.6
		C71.2,62.4,65.7,61.8,57.5,63.3z M31.3,79.8c-0.4,0.1-0.6,0-0.8-0.1c-0.4-0.3-0.4-0.5-0.3-0.7c0.2-1.2,2.5-3.4,7.5-5.8
		C35.3,76.8,32.9,79.4,31.3,79.8z M45.5,40.5c0.1-0.2,0.2-0.5,1-0.5c0.7,0,1,0.3,1.2,0.5c0.9,1.3,0.8,4.6-0.3,9
		C45.7,45.7,44.8,42.1,45.5,40.5z M48.3,65.5c-1,0.3-2,0.6-3,0.9c0.3-0.7,0.6-1.4,0.9-2c0.7-1.9,1.5-3.8,2.2-5.8
		c0.8,1.1,1.5,2.1,2.2,2.8c0.9,1,1.8,1.9,2.7,2.8C51.7,64.6,50,65,48.3,65.5z M69.4,67.3c-0.7,0.8-1.6,1.1-2.7,1.1
		c-1.5,0-3.3-0.7-5.4-2.1C67.1,65.5,70.4,66.1,69.4,67.3z"/>
	<path class="st0" d="M85.8,26.6L63.9,4.7c-1.4-1.4-3.3-2.2-5.2-2.2H19.4l0,0c-2,0-3.8,0.8-5.2,2.2S12,7.9,12,9.9v80.2
		c0,4.1,3.3,7.4,7.4,7.4h61.2c4.1,0,7.4-3.3,7.4-7.4V31.8C88,29.9,87.2,28,85.8,26.6z M81.6,28.4H65.4c-1.8,0-3.3-1.5-3.3-3.3V9
		L81.6,28.4z M80.6,93.2H19.4c-1.7,0-3.1-1.4-3.1-3.1V9.9c0-0.8,0.3-1.6,0.9-2.2c0.6-0.6,1.4-0.9,2.2-0.9l0,0h38.4v18.3
		c0,4.2,3.4,7.6,7.6,7.6h18.3v57.4C83.7,91.8,82.3,93.2,80.6,93.2z"/>
</g>
<g>
	<path class="st1" d="M157.5,63.3c-1.4-1.2-2.8-2.7-4.4-4.3c-1.1-1.2-2.3-2.9-3.3-4.7c1.9-6.5,2.8-12.7,0.8-15.7
		c-0.9-1.4-2.3-2.1-4.1-2.1c-2,0-3.5,0.9-4.2,2.6c-1.6,3.6,0.8,10.2,3.7,15.6c-0.8,2.6-1.8,5.4-3,8.5c-0.7,1.7-1.5,3.4-2.3,5
		c-8.2,3.2-13.2,6.8-13.9,10.2c-0.3,1.6,0.2,3,1.6,4.1c0.8,0.6,1.7,1,2.7,1c0.4,0,0.8-0.1,1.2-0.2c3.8-1,7.9-6.6,10.9-12.3
		c1.8-0.7,3.9-1.4,6.2-2c2.7-0.8,5.1-1.4,7.2-1.8c3.9,3.1,7.2,4.8,10.1,4.8c2.2,0.1,3.8-0.7,5.3-2.2c2.2-2.2,1.3-4.1,1-4.6
		C171.2,62.4,165.7,61.8,157.5,63.3z M131.3,79.8c-0.4,0.1-0.6,0-0.8-0.1c-0.4-0.3-0.4-0.5-0.3-0.7c0.2-1.2,2.5-3.4,7.5-5.8
		C135.3,76.8,132.9,79.4,131.3,79.8z M145.5,40.5c0.1-0.2,0.2-0.5,1-0.5c0.7,0,1,0.3,1.2,0.5c0.9,1.3,0.8,4.6-0.3,9
		C145.7,45.7,144.8,42.1,145.5,40.5z M148.3,65.5c-1,0.3-2,0.6-3,0.9c0.3-0.7,0.6-1.4,0.9-2c0.7-1.9,1.5-3.8,2.2-5.8
		c0.8,1.1,1.5,2.1,2.2,2.8c0.9,1,1.8,1.9,2.7,2.8C151.7,64.6,150,65,148.3,65.5z M169.4,67.3c-0.7,0.8-1.6,1.1-2.7,1.1
		c-1.5,0-3.3-0.7-5.4-2.1C167.1,65.5,170.4,66.1,169.4,67.3z"/>
	<path class="st1" d="M185.8,26.6L163.9,4.7c-1.4-1.4-3.3-2.2-5.2-2.2h-39.3l0,0c-2,0-3.8,0.8-5.2,2.2c-1.4,1.4-2.2,3.2-2.2,5.2
		v80.2c0,4.1,3.3,7.4,7.4,7.4h61.2c4.1,0,7.4-3.3,7.4-7.4V31.8C188,29.9,187.2,28,185.8,26.6z M181.6,28.4h-16.2
		c-1.8,0-3.3-1.5-3.3-3.3V9L181.6,28.4z M180.6,93.2h-61.2c-1.7,0-3.1-1.4-3.1-3.1V9.9c0-0.8,0.3-1.6,0.9-2.2
		c0.6-0.6,1.4-0.9,2.2-0.9l0,0h38.4v18.3c0,4.2,3.4,7.6,7.6,7.6h18.3v57.4C183.7,91.8,182.3,93.2,180.6,93.2z"/>
</g>
</svg>
