<?xml version="1.0" encoding="utf-8"?>
<!-- Generator: Adobe Illustrator 22.1.0, SVG Export Plug-In . SVG Version: 6.00 Build 0)  -->
<svg version="1.1" id="Layer_1" xmlns="http://www.w3.org/2000/svg" xmlns:xlink="http://www.w3.org/1999/xlink" x="0px" y="0px"
	 viewBox="0 0 60 120" style="enable-background:new 0 0 60 120;" xml:space="preserve">
<style type="text/css">
	.st0{fill:none;stroke:#404041;stroke-width:2;stroke-linecap:square;stroke-miterlimit:2;}
	.st1{fill:none;stroke:#FFFFFF;stroke-width:2;stroke-linecap:square;stroke-miterlimit:2;}
</style>
<g>
	<path class="st0" d="M27,33h19c0,5.2-2.1,10-5.6,13.4L27,33z"/>
	<path class="st0" d="M27,33l13.4,13.4C37,49.9,32.2,52,27,52s-10-2.1-13.4-5.6L27,33z"/>
	<path class="st0" d="M27,33L13.6,46.4C10.1,43,8,38.2,8,33c0-10.5,8.5-19,19-19V33z"/>
	<path class="st0" d="M33,27V8c10.5,0,19,8.5,19,19H33z"/>
</g>
<g>
	<path class="st1" d="M27,93h19c0,5.2-2.1,10-5.6,13.4L27,93z"/>
	<path class="st1" d="M27,93l13.4,13.4C37,109.9,32.2,112,27,112s-10-2.1-13.4-5.6L27,93z"/>
	<path class="st1" d="M27,93l-13.4,13.4C10.1,103,8,98.2,8,93c0-10.5,8.5-19,19-19V93z"/>
	<path class="st1" d="M33,87V68c10.5,0,19,8.5,19,19H33z"/>
</g>
</svg>
