<?xml version="1.0" encoding="utf-8"?>
<!-- Generator: Adobe Illustrator 22.1.0, SVG Export Plug-In . SVG Version: 6.00 Build 0)  -->
<svg version="1.1" id="Layer_1" xmlns="http://www.w3.org/2000/svg" xmlns:xlink="http://www.w3.org/1999/xlink" x="0px" y="0px"
	 viewBox="0 0 150 300" style="enable-background:new 0 0 150 300;" xml:space="preserve">
<style type="text/css">
	.st0{fill:#FFFFFF;}
	.st1{fill:#404041;}
</style>
<g>
	<g>
		<g>
			<path class="st0" d="M60.6,207.9c-10.3,0-18.7-8.4-18.7-18.7s8.5-18.7,18.7-18.7h11.8v-4.9c0-1.4,1.1-2.5,2.5-2.5
				c1.3,0,2.5,1.1,2.5,2.5v4.9h11.8c10.3,0,18.7,8.5,18.7,18.7s-8.6,18.7-18.8,18.7H60.6z M60.6,175.4c-7.6,0-13.8,6.1-13.8,13.8
				S52.9,203,60.6,203H89c7.6,0,13.8-6.1,13.8-13.8c0-7.6-6.1-13.8-13.8-13.8H60.6z"/>
		</g>
		<g>
			<ellipse class="st0" cx="61.4" cy="189.2" rx="4.1" ry="4.1"/>
		</g>
		<g>
			<ellipse class="st0" cx="88.3" cy="189.2" rx="4.1" ry="4.1"/>
		</g>
		<g>
			<path class="st0" d="M58.4,250.6c-1.3,0-2.5-1.1-2.5-2.5v-16.5c0-1.3,1.1-2.5,2.5-2.5h32.9c1.4,0,2.5,1.1,2.5,2.5v16.6
				c0,1.4-1.1,2.5-2.5,2.5C91.4,250.6,58.4,250.6,58.4,250.6z M60.9,245.7h28v-11.6h-28V245.7z"/>
		</g>
		<g>
			<path class="st0" d="M74.8,286.9c-5.7,0-10.3-4.7-10.3-10.3v-11.9H54.4c-6.8,0-12.4-5.6-12.4-12.4v-0.9c0-1.3,1.1-2.5,2.5-2.5
				s2.5,1.1,2.5,2.5v0.9c0,4,3.3,7.4,7.4,7.4h41c4.1,0,7.5-3.3,7.5-7.4v-20.7c0-1.3,1.1-2.5,2.5-2.5c9.2,0,16.8-7.2,17.2-16.5
				l0.1-1.1l-1.1-0.4c-4.4-1.5-7.3-5.7-7.3-10.3v-4c0-1.4,1.1-2.5,2.5-2.5s2.5,1.1,2.5,2.5v4c0,3.2,2.7,5.9,5.9,5.9s5.9-2.7,5.9-5.9
				v-4c0-1.4,1.1-2.5,2.5-2.5c1.3,0,2.5,1.1,2.5,2.5v4c0,4.7-3,8.8-7.4,10.3l-1,0.3v1c-0.4,10.5-8.1,19.4-18.5,21.1l-1.3,0.3v18.4
				c0,6.8-5.6,12.4-12.4,12.4H85.4v11.9C85.2,282.2,80.6,286.9,74.8,286.9z M69.5,276.6c0,3,2.3,5.3,5.3,5.3s5.3-2.3,5.3-5.3v-11.9
				H69.5V276.6z"/>
		</g>
		<g>
			<path class="st0" d="M24.7,234.1c-1.4,0-2.5-1.1-2.5-2.5v-19.9l-1-0.3c-4.4-1.6-7.4-5.8-7.4-10.3v-4c0-1.4,1.1-2.5,2.5-2.5
				s2.5,1.1,2.5,2.5v4c0,3.2,2.7,5.9,5.9,5.9s5.9-2.7,5.9-5.9v-4c0-1.4,1.1-2.5,2.5-2.5c1.3,0,2.5,1.1,2.5,2.5v4
				c0,4.7-3,8.8-7.4,10.3l-1,0.3v17.6H42v-1.7c0-6.8,5.6-12.4,12.4-12.4h51c1.3,0,2.5,1.1,2.5,2.5s-1.1,2.5-2.5,2.5h-51
				c-4,0-7.4,3.3-7.4,7.4v4.1c0,1.4-1.1,2.5-2.5,2.5L24.7,234.1L24.7,234.1z"/>
		</g>
	</g>
</g>
<g>
	<g>
		<g>
			<path class="st1" d="M60.6,57.9c-10.3,0-18.7-8.4-18.7-18.7c0-10.4,8.5-18.7,18.7-18.7h11.8v-4.9c0-1.4,1.1-2.5,2.5-2.5
				c1.3,0,2.5,1.1,2.5,2.5v4.9h11.8c10.3,0,18.7,8.5,18.7,18.7c0,10.3-8.6,18.7-18.8,18.7H60.6L60.6,57.9z M60.6,25.4
				c-7.6,0-13.8,6.1-13.8,13.8c0,7.6,6.1,13.8,13.8,13.8H89c7.6,0,13.8-6.1,13.8-13.8c0-7.7-6.1-13.8-13.8-13.8H60.6z"/>
		</g>
		<g>
			<ellipse class="st1" cx="61.4" cy="39.2" rx="4.1" ry="4.1"/>
		</g>
		<g>
			<ellipse class="st1" cx="88.3" cy="39.2" rx="4.1" ry="4.1"/>
		</g>
		<g>
			<path class="st1" d="M58.4,100.6c-1.3,0-2.5-1.1-2.5-2.5V81.6c0-1.4,1.1-2.5,2.5-2.5h32.9c1.4,0,2.5,1.1,2.5,2.5v16.6
				c0,1.3-1.1,2.5-2.5,2.5C91.4,100.6,58.4,100.6,58.4,100.6z M60.9,95.7h28V84.1h-28V95.7z"/>
		</g>
		<g>
			<path class="st1" d="M74.8,136.9c-5.7,0-10.3-4.7-10.3-10.3v-11.9H54.4c-6.8,0-12.4-5.6-12.4-12.4v-0.9c0-1.4,1.1-2.5,2.5-2.5
				s2.5,1.1,2.5,2.5v0.9c0,4.1,3.3,7.4,7.4,7.4h41c4.1,0,7.5-3.3,7.5-7.4V81.6c0-1.4,1.1-2.5,2.5-2.5c9.2,0,16.8-7.2,17.2-16.5
				l0.1-1.1l-1.1-0.4c-4.4-1.5-7.3-5.7-7.3-10.3v-4c0-1.3,1.1-2.5,2.5-2.5s2.5,1.1,2.5,2.5v4c0,3.2,2.7,5.9,5.9,5.9
				c3.2,0,5.9-2.7,5.9-5.9v-4c0-1.3,1.1-2.5,2.5-2.5c1.3,0,2.5,1.1,2.5,2.5v4c0,4.7-3,8.8-7.4,10.3l-1,0.3v1
				c-0.4,10.5-8.1,19.4-18.5,21.2l-1.3,0.3v18.4c0,6.8-5.6,12.4-12.4,12.4H85.4v11.9C85.2,132.2,80.6,136.9,74.8,136.9z M69.5,126.6
				c0,3,2.3,5.3,5.3,5.3s5.3-2.3,5.3-5.3v-11.9H69.5V126.6z"/>
		</g>
		<g>
			<path class="st1" d="M24.7,84.1c-1.4,0-2.5-1.1-2.5-2.5V61.7l-1-0.3c-4.4-1.6-7.4-5.8-7.4-10.4v-4c0-1.4,1.1-2.5,2.5-2.5
				c1.4,0,2.5,1.1,2.5,2.5v4c0,3.2,2.7,5.9,5.9,5.9c3.2,0,5.9-2.7,5.9-5.9v-4c0-1.4,1.1-2.5,2.5-2.5c1.3,0,2.5,1.1,2.5,2.5v4
				c0,4.7-3,8.8-7.4,10.3l-1,0.3v17.6H42v-1.7c0-6.8,5.6-12.4,12.4-12.4h51c1.3,0,2.5,1.1,2.5,2.5s-1.1,2.5-2.5,2.5h-51
				c-4,0-7.4,3.3-7.4,7.4v4.1c0,1.4-1.1,2.5-2.5,2.5H24.7L24.7,84.1z"/>
		</g>
	</g>
</g>
</svg>
