<?xml version="1.0" encoding="utf-8"?>
<!-- Generator: Adobe Illustrator 22.1.0, SVG Export Plug-In . SVG Version: 6.00 Build 0)  -->
<svg version="1.1" id="Layer_1" xmlns="http://www.w3.org/2000/svg" xmlns:xlink="http://www.w3.org/1999/xlink" x="0px" y="0px"
	 viewBox="0 0 60 120" style="enable-background:new 0 0 60 120;" xml:space="preserve">
<style type="text/css">
	.st0{fill:none;stroke:#404041;stroke-width:2;stroke-linecap:round;stroke-miterlimit:10;}
	.st1{fill:none;stroke:#404041;stroke-width:2;stroke-miterlimit:10;}
	.st2{fill:none;stroke:#FFFFFF;stroke-width:2;stroke-linecap:round;stroke-miterlimit:10;}
	.st3{fill:none;stroke:#FFFFFF;stroke-width:2;stroke-miterlimit:10;}
</style>
<g>
	<g>
		<g>
			<g>
				<line class="st0" x1="32" y1="26.5" x2="37.5" y2="17"/>
				<circle class="st1" cx="39.5" cy="13.5" r="4"/>
			</g>
			<g>
				<line class="st0" x1="28" y1="26.5" x2="22.5" y2="17"/>
				<circle class="st1" cx="20.5" cy="13.5" r="4"/>
			</g>
			<g>
				<line class="st0" x1="26" y1="30" x2="15" y2="30"/>
				<circle class="st1" cx="11" cy="30" r="4"/>
			</g>
			<g>
				<line class="st0" x1="28" y1="33.5" x2="22.5" y2="43"/>
				<circle class="st1" cx="20.5" cy="46.5" r="4"/>
			</g>
			<g>
				<line class="st0" x1="32" y1="33.5" x2="37.5" y2="43"/>
				<circle class="st1" cx="39.5" cy="46.4" r="4"/>
			</g>
			<g>
				<line class="st0" x1="34" y1="30" x2="45" y2="30"/>
				<circle class="st1" cx="49" cy="30" r="4"/>
			</g>
			<path class="st1" d="M34,30c0,2.2-1.8,4-4,4s-4-1.8-4-4s1.8-4,4-4S34,27.8,34,30z"/>
		</g>
	</g>
</g>
<g>
	<g>
		<g>
			<g>
				<line class="st2" x1="32" y1="86.5" x2="37.5" y2="77"/>
				<circle class="st3" cx="39.5" cy="73.5" r="4"/>
			</g>
			<g>
				<line class="st2" x1="28" y1="86.5" x2="22.5" y2="77"/>
				<circle class="st3" cx="20.5" cy="73.5" r="4"/>
			</g>
			<g>
				<line class="st2" x1="26" y1="90" x2="15" y2="90"/>
				<circle class="st3" cx="11" cy="90" r="4"/>
			</g>
			<g>
				<line class="st2" x1="28" y1="93.5" x2="22.5" y2="103"/>
				<circle class="st3" cx="20.5" cy="106.5" r="4"/>
			</g>
			<g>
				<line class="st2" x1="32" y1="93.5" x2="37.5" y2="103"/>
				<circle class="st3" cx="39.5" cy="106.4" r="4"/>
			</g>
			<g>
				<line class="st2" x1="34" y1="90" x2="45" y2="90"/>
				<circle class="st3" cx="49" cy="90" r="4"/>
			</g>
			<path class="st3" d="M34,90c0,2.2-1.8,4-4,4s-4-1.8-4-4s1.8-4,4-4S34,87.8,34,90z"/>
		</g>
	</g>
</g>
</svg>
