<?xml version="1.0" encoding="utf-8"?>
<!-- Generator: Adobe Illustrator 22.1.0, SVG Export Plug-In . SVG Version: 6.00 Build 0)  -->
<svg version="1.1" id="Layer_1" xmlns="http://www.w3.org/2000/svg" xmlns:xlink="http://www.w3.org/1999/xlink" x="0px" y="0px"
	 viewBox="0 0 60 120" style="enable-background:new 0 0 60 120;" xml:space="preserve">
<style type="text/css">
	.st0{fill:none;stroke:#404041;stroke-width:2;stroke-linecap:square;stroke-miterlimit:10;}
	.st1{fill:none;stroke:#007AFF;stroke-width:2;stroke-linecap:square;stroke-miterlimit:10;}
	.st2{fill:none;stroke:#FFFFFF;stroke-width:2;stroke-linecap:square;stroke-miterlimit:10;}
</style>
<g>
	<g>
		<path class="st0" d="M53,28.9c0,0.4,0,0.7,0,1.1"/>
		<path class="st0" d="M51.5,22c0.3,0.7,0.5,1.4,0.7,2.1"/>
		<path class="st0" d="M46.8,14.3c0.8,0.8,1.5,1.7,2.1,2.7"/>
		<path class="st0" d="M49.8,42.2C45.8,48.8,38.3,53,30,53C17.3,53,7,42.7,7,30S17.3,7,30,7c4.2,0,8.2,1.1,11.8,3.2"/>
		<polyline class="st0" points="43,41 51,41 51,49 		"/>
	</g>
	<g>
		<line id="small_419_417" class="st1" x1="30" y1="31" x2="41" y2="24"/>
		<line id="big_420_418" class="st1" x1="30" y1="31" x2="18" y2="19"/>
	</g>
</g>
<g>
	<g>
		<path class="st2" d="M53,88.9c0,0.4,0,0.7,0,1.1"/>
		<path class="st2" d="M51.5,82c0.3,0.7,0.5,1.4,0.7,2.1"/>
		<path class="st2" d="M46.8,74.3c0.8,0.8,1.5,1.7,2.1,2.7"/>
		<path class="st2" d="M49.8,102.2c-4,6.6-11.5,10.8-19.8,10.8c-12.7,0-23-10.3-23-23s10.3-23,23-23c4.2,0,8.2,1.1,11.8,3.2"/>
		<polyline class="st2" points="43,101 51,101 51,109 		"/>
	</g>
	<g>
		<line id="small_419_417_1_" class="st2" x1="30" y1="91" x2="41" y2="84"/>
		<line id="big_420_418_1_" class="st2" x1="30" y1="91" x2="18" y2="79"/>
	</g>
</g>
</svg>
